<svg height="512px" viewBox="-39 0 512 512.00013" width="512px" xmlns="http://www.w3.org/2000/svg"><path d="m107.582031 460.574219c16.992188-50.117188 53.597657-77.816407 53.597657-77.816407h111.703124s36.597657 27.699219 53.585938 77.816407l-38.835938 51.425781h-141.214843zm0 0" fill="#e1738c"/><path d="m258.578125 382.324219c0 22.945312-18.601563 41.550781-41.546875 41.550781-22.949219 0-41.550781-18.605469-41.550781-41.550781 0-22.945313 18.601562-41.550781 41.550781-41.550781 22.945312 0 41.546875 18.605468 41.546875 41.550781zm0 0" fill="#eb8"/><path d="m334.945312 512h-47.3125v-51.425781h38.835938c5.132812 15.140625 8.476562 32.328125 8.476562 51.425781zm0 0" fill="#f2d1a5"/><path d="m146.417969 460.574219v51.425781h-47.308594c0-19.097656 3.34375-36.285156 8.472656-51.425781zm0 0" fill="#f2d1a5"/><g fill="#e9e9e9"><path d="m212.054688 446.238281c-.925782-4.613281-4.484376-7.789062-7.949219-7.097656-3.464844.695313-5.523438 5-4.601563 9.617187.925782 4.613282 4.484375 7.789063 7.953125 7.09375 3.464844-.691406 5.523438-4.996093 4.597657-9.613281zm0 0"/><path d="m190.75 457.5c-1.90625-4.300781-6.070312-6.632812-9.300781-5.199219-3.230469 1.429688-4.308594 6.078125-2.402344 10.382813 1.90625 4.300781 6.070313 6.632812 9.300781 5.199218 3.234375-1.429687 4.308594-6.078124 2.402344-10.382812zm0 0"/><path d="m230.644531 439.167969c-3.464843-.695313-7.023437 2.484375-7.949219 7.097656-.925781 4.613281 1.132813 8.917969 4.597657 9.613281 3.464843.695313 7.027343-2.484375 7.949219-7.097656.925781-4.613281-1.132813-8.917969-4.597657-9.613281zm0 0"/><path d="m253.238281 452.257812c-3.230469-1.429687-7.394531.898438-9.300781 5.199219-1.90625 4.304688-.828125 8.953125 2.402344 10.382813 3.230468 1.433594 7.394531-.898438 9.300781-5.199219 1.90625-4.304687.832031-8.953125-2.402344-10.382813zm0 0"/><path d="m236.960938 468.257812c-9.3125 0-8.847657-9.132812-19.605469-9.132812-10.757813 0-10.292969 9.132812-19.605469 9.132812-7.25 0-15.378906 12.074219-8.761719 23.066407 6.621094 10.988281 17.300781 3.40625 28.367188 3.40625 11.070312 0 21.75 7.582031 28.367187-3.40625 6.621094-10.992188-1.511718-23.066407-8.761718-23.066407zm0 0"/></g><path d="m217.355469 5.695312c-68.066407 0-100.773438-2.816406-116.421875-5.355468-9.8125-1.589844-19.660156 2.496094-25.503906 10.535156-22.625 31.132812-70.898438 109.167969-65.867188 202.613281h415.585938c0-114.578125-93.214844-207.792969-207.792969-207.792969zm0 0" fill="#e08778"/><path d="m107.363281 10.875c2.726563-3.746094 6.324219-6.621094 10.378907-8.476562-7.085938-.667969-12.578126-1.371094-16.808594-2.058594-9.8125-1.589844-19.660156 2.496094-25.503906 10.535156-22.625 31.132812-70.898438 109.167969-65.867188 202.613281h31.9375c-5.03125-93.445312 43.238281-171.480469 65.863281-202.613281zm0 0" fill="#d2614c"/><path d="m434.710938 213.488281c0 21.675781-17.570313 39.25-39.25 39.25-21.675782 0-39.246094-17.574219-39.246094-39.25s17.570312-39.25 39.246094-39.25c21.679687 0 39.25 17.574219 39.25 39.25zm0 0" fill="#eb8"/><path d="m395.460938 213.085938c-.050782-24.027344-8.71875-47.277344-24.160157-65.691407-94.996093-113.296875-192.269531-6.59375-269.523437-37.824219-13.679688-5.53125-29.429688-.550781-37.050782 12.085938-16.183593 26.835938-25.492187 58.289062-25.480468 91.917969.046875 97.84375 79.941406 177.847656 177.785156 178.023437 98.511719.175782 178.429688-79.632812 178.429688-178.109375 0-.132812 0-.265625 0-.402343zm0 0" fill="#f2d1a5"/><path d="m70.15625 213.574219c-.015625-31.152344 7.976562-78.097657 22.015625-106.179688-10.863281-.664062-21.566406 4.519531-27.441406 14.261719-9.726563 16.121094-16.945313 33.917969-21.171875 52.839844-1.375-.164063-2.804688-.257813-4.308594-.257813-21.675781 0-39.25 17.574219-39.25 39.25 0 21.679688 17.574219 39.25 39.25 39.25 1.511719 0 2.949219-.09375 4.332031-.257812 17.867188 79.285156 88.960938 138.964843 173.449219 139.117187 5.328125.007813 10.601562-.230468 15.808594-.679687-90.832032-7.871094-162.640625-84.585938-162.683594-177.34375zm0 0" fill="#eb8"/><path d="m129.101562 232.894531c-4.265624 0-7.722656-3.460937-7.722656-7.726562v-17.160157c0-4.265624 3.457032-7.726562 7.722656-7.726562 4.269532 0 7.726563 3.460938 7.726563 7.726562v17.160157c0 4.265625-3.457031 7.726562-7.726563 7.726562zm0 0" fill="#424952"/><path d="m140.789062 258.117188h-23.371093c-4.269531 0-7.726563-3.460938-7.726563-7.726563 0-4.269531 3.457032-7.726563 7.726563-7.726563h23.371093c4.269532 0 7.726563 3.457032 7.726563 7.726563 0 4.265625-3.457031 7.726563-7.726563 7.726563zm0 0" fill="#e1738c"/><path d="m305.605469 232.894531c-4.265625 0-7.722657-3.460937-7.722657-7.726562v-17.160157c0-4.265624 3.457032-7.726562 7.722657-7.726562 4.269531 0 7.726562 3.460938 7.726562 7.726562v17.160157c0 4.265625-3.457031 7.726562-7.726562 7.726562zm0 0" fill="#424952"/><path d="m317.292969 258.117188h-23.371094c-4.269531 0-7.726563-3.460938-7.726563-7.726563 0-4.269531 3.457032-7.726563 7.726563-7.726563h23.371094c4.269531 0 7.726562 3.457032 7.726562 7.726563 0 4.265625-3.457031 7.726563-7.726562 7.726563zm0 0" fill="#e1738c"/><path d="m217.355469 257.148438c-8.382813 0-16.253907-3.507813-21.601563-9.625-2.808594-3.214844-2.480468-8.09375.730469-10.902344 3.214844-2.8125 8.09375-2.484375 10.902344.730468 2.414062 2.757813 6.046875 4.339844 9.96875 4.339844s7.554687-1.582031 9.96875-4.339844c2.808593-3.214843 7.6875-3.542968 10.902343-.730468 3.210938 2.804687 3.539063 7.6875.730469 10.902344-5.347656 6.113281-13.21875 9.625-21.601562 9.625zm0 0" fill="#424952"/></svg>