<svg height="512px" viewBox="-80 0 512 512" width="512px" xmlns="http://www.w3.org/2000/svg"><path d="m92.660156 121.34375s-21.96875 40.160156-68.304687 63.597656c-4.628907 2.34375-6.699219 7.84375-4.855469 12.695313l2.390625 6.285156c1.683594 4.429687 6.203125 7.148437 10.894531 6.492187 63.054688-8.824218 86.816406-46.640624 86.816406-46.640624l3.480469-31.105469zm0 0" fill="#e1738c"/><path d="m18.480469 23.4375c-10.207031 0-18.480469 8.273438-18.480469 18.480469v26.636719c0 10.207031 8.273438 18.480468 18.480469 18.480468h51.132812v-63.597656zm0 0" fill="#80c0e4"/><path d="m72.832031 147.773438 24.1875 38.09375c15.835938-11.363282 22.582031-22.09375 22.582031-22.09375l3.480469-31.109376-30.421875-11.320312s-6.484375 11.847656-19.828125 26.429688zm0 0" fill="#d74a6c"/><path d="m28.832031 23.4375h40.78125v63.59375h-40.78125zm0 0" fill="#5ba0d3"/><path d="m343.96875 74.597656-52.59375-52.589844c-14.089844-14.09375-33.203125-22.007812-53.128906-22.007812h-165.375c-12.941406 0-23.4375 10.492188-23.4375 23.4375v63.59375c0 12.945312 10.492187 23.441406 23.4375 23.441406 8.023437 0 15.488281 4.101563 19.789062 10.871094l42.832032 67.457031 51.652343 28.578125 51.652344-28.578125 17.183594-21.738281c5.585937-7.070312 14.101562-11.191406 23.113281-11.191406h22.347656c9.617188 0 18.628906-4.691406 24.144532-12.566406l21.679687-30.945313c8.210937-11.71875 6.820313-27.640625-3.296875-37.761719zm0 0" fill="#e9e9e9"/><path d="m260.402344 245.957031-73.257813-28.578125-73.257812 28.578125s-71.007813 68.304688-71.007813 188.359375c0 .785156.007813 1.5625.027344 2.335938 1.070312 42.085937 36.175781 75.347656 78.277344 75.347656h131.921875c42.101562 0 77.207031-33.261719 78.277343-75.347656.019532-.773438.03125-1.550782.03125-2.335938 0-120.054687-71.011718-188.359375-71.011718-188.359375zm0 0" fill="#e1738c"/><path d="m73.8125 436.652344c-.019531-.773438-.03125-1.550782-.03125-2.335938 0-120.054687 71.011719-188.359375 71.011719-188.359375l57.804687-22.550781-15.453125-6.027344-73.257812 28.578125s-71.007813 68.304688-71.007813 188.359375c0 .785156.007813 1.5625.027344 2.332032 1.070312 42.089843 36.175781 75.351562 78.277344 75.351562h30.902344c-42.097657 0-77.207032-33.261719-78.273438-75.347656zm0 0" fill="#d74a6c"/><path d="m121.984375 91.707031c-4.265625 0-7.726563-3.460937-7.726563-7.726562v-11.792969c0-4.269531 3.460938-7.726562 7.726563-7.726562s7.726563 3.457031 7.726563 7.726562v11.792969c0 4.265625-3.460938 7.726562-7.726563 7.726562zm0 0" fill="#424952"/><path d="m252.304688 91.707031c-4.265626 0-7.726563-3.460937-7.726563-7.726562v-11.792969c0-4.269531 3.460937-7.726562 7.726563-7.726562 4.269531 0 7.726562 3.457031 7.726562 7.726562v11.792969c0 4.265625-3.457031 7.726562-7.726562 7.726562zm0 0" fill="#424952"/><path d="m187.144531 98c-8.496093 0-16.480469-3.554688-21.898437-9.753906-2.808594-3.214844-2.480469-8.09375.730468-10.902344 3.214844-2.808594 8.09375-2.480469 10.902344.730469 2.484375 2.84375 6.226563 4.472656 10.265625 4.472656 4.039063 0 7.78125-1.628906 10.265625-4.472656 2.808594-3.214844 7.6875-3.539063 10.902344-.730469s3.542969 7.6875.730469 10.902344c-5.417969 6.199218-13.398438 9.753906-21.898438 9.753906zm0 0" fill="#424952"/><path d="m238.796875 188.800781h-103.300781c-11.933594 0-21.609375 9.675781-21.609375 21.605469v35.550781h146.515625v-35.550781c0-11.929688-9.671875-21.605469-21.605469-21.605469zm0 0" fill="#80c0e4"/><path d="m166.398438 188.800781h-30.902344c-11.933594 0-21.609375 9.675781-21.609375 21.605469v35.550781h30.90625v-35.550781c0-11.929688 9.671875-21.605469 21.605469-21.605469zm0 0" fill="#5ba0d3"/><g fill="#e9e9e9"><path d="m174.863281 318.1875c-2.140625-10.664062-10.363281-18.007812-18.375-16.402344-8.007812 1.605469-12.765625 11.550782-10.625 22.214844 2.136719 10.664062 10.363281 18.007812 18.371094 16.402344 8.007813-1.605469 12.765625-11.550782 10.628906-22.214844zm0 0"/><path d="m125.695312 344.175781c-4.402343-9.945312-14.027343-15.328125-21.496093-12.023437-7.46875 3.308594-9.953125 14.050781-5.550781 23.996094 4.402343 9.945312 14.027343 15.324218 21.496093 12.019531 7.46875-3.304688 9.953125-14.046875 5.550781-23.992188zm0 0"/><path d="m217.832031 301.804688c-8.007812-1.605469-16.234375 5.738281-18.371093 16.402343-2.140626 10.664063 2.621093 20.609375 10.628906 22.21875 8.007812 1.605469 16.230468-5.738281 18.371094-16.402343 2.136718-10.664063-2.621094-20.613282-10.628907-22.21875zm0 0"/><path d="m270.066406 332.117188c-7.46875-3.304688-17.089844 2.078124-21.492187 12.023437-4.402344 9.945313-1.917969 20.6875 5.550781 23.992187 7.46875 3.308594 17.089844-2.074218 21.492188-12.019531 4.402343-9.945312 1.917968-20.6875-5.550782-23.996093zm0 0"/><path d="m232.449219 383.878906c-21.515625 0-20.445313-21.101562-45.304688-21.101562s-23.785156 21.101562-45.304687 21.101562c-16.757813 0-35.539063 27.902344-20.246094 53.300782 15.292969 25.394531 39.976562 7.867187 65.550781 7.867187s50.257813 17.527344 65.546875-7.867187c15.296875-25.398438-3.484375-53.300782-20.242187-53.300782zm0 0"/></g></svg>