<svg height="512px" viewBox="0 -18 512 512" width="512px" xmlns="http://www.w3.org/2000/svg"><path d="m482.398438 226.960938c-1.503907-32.125-27.488282-58.207032-59.605469-59.824219-11.746094-.59375-22.828125 2.042969-32.441407 7.089843-6.753906 3.546876-15.105468.757813-18.265624-6.179687-9.886719-21.699219-31.753907-36.78125-57.152344-36.78125-4.199219 0-8.300782.417969-12.269532 1.207031-6.039062 1.203125-12.136718-1.785156-14.734374-7.375-12.335938-26.523437-39.207032-44.917968-70.386719-44.917968-26.554688 0-49.984375 13.34375-63.972657 33.683593-3.390624 4.933594-9.613281 7-15.289062 5.082031-6.25-2.117187-13.035156-3.066406-20.101562-2.585937-24.855469 1.691406-45.183594 21.335937-47.6875 46.125-.359376 3.558594-.351563 7.050781-.011719 10.445313.632812 6.328124-3.371094 12.082031-9.46875 13.890624-18.203125 5.40625-31.476563 22.257813-31.476563 42.214844 0 24.324219 19.714844 44.042969 44.039063 44.042969l345.96875 19.828125c35.753906.003906 64.542969-29.820312 62.855469-65.945312zm0 0" fill="#cbe7f8"/><path d="m256 258.566406-226.46875 29.53125s3.339844 91.089844 36.800781 152.929688c11.808594 21.828125 34.632813 35.429687 59.449219 35.429687h260.4375c24.816406 0 47.640625-13.601562 59.449219-35.429687 33.460937-61.839844 36.800781-152.929688 36.800781-152.929688zm0 0" fill="#80c0e4"/><g fill="#424952"><path d="m171.261719 385.253906c-4.265625 0-7.722657-3.460937-7.722657-7.726562v-15.335938c0-4.269531 3.457032-7.726562 7.722657-7.726562 4.269531 0 7.726562 3.457031 7.726562 7.726562v15.335938c0 4.265625-3.457031 7.726562-7.726562 7.726562zm0 0"/><path d="m340.738281 385.253906c-4.269531 0-7.726562-3.460937-7.726562-7.726562v-15.335938c0-4.269531 3.457031-7.726562 7.726562-7.726562 4.265625 0 7.722657 3.457031 7.722657 7.726562v15.335938c0 4.265625-3.457032 7.726562-7.722657 7.726562zm0 0"/><path d="m256 393.4375c-10.382812 0-20.125-4.332031-26.730469-11.894531-2.808593-3.210938-2.480469-8.09375.730469-10.902344 3.214844-2.808594 8.09375-2.480469 10.902344.734375 3.671875 4.203125 9.175781 6.609375 15.097656 6.609375s11.421875-2.40625 15.097656-6.609375c2.808594-3.214844 7.6875-3.542969 10.902344-.734375 3.210938 2.808594 3.539062 7.691406.730469 10.902344-6.605469 7.5625-16.351563 11.894531-26.730469 11.894531zm0 0"/></g><path d="m29.53125 288.097656s.453125 12.296875 2.679688 30.90625h447.578124c2.226563-18.609375 2.679688-30.90625 2.679688-30.90625l-226.46875-29.53125zm0 0" fill="#5ba0d3"/><path d="m482.46875 229.035156h-452.9375c-16.308594 0-29.53125 13.222656-29.53125 29.53125 0 16.3125 13.222656 29.53125 29.53125 29.53125h452.9375c16.308594 0 29.53125-13.21875 29.53125-29.53125 0-16.308594-13.222656-29.53125-29.53125-29.53125zm0 0" fill="#80c0e4"/><path d="m361.59375 36.054688c0 19.914062-16.144531 36.058593-36.054688 36.058593-19.914062 0-36.058593-16.144531-36.058593-36.058593 0-19.910157 16.144531-36.054688 36.058593-36.054688 19.910157 0 36.054688 16.144531 36.054688 36.054688zm0 0" fill="#cbe7f8"/><path d="m434.90625 107.3125c0 14.980469-12.144531 27.125-27.125 27.125-14.984375 0-27.128906-12.144531-27.128906-27.125 0-14.984375 12.144531-27.128906 27.128906-27.128906 14.980469 0 27.125 12.144531 27.125 27.128906zm0 0" fill="#80c0e4"/><path d="m448.644531 24.722656c0 10.527344-8.535156 19.058594-19.058593 19.058594-10.527344 0-19.058594-8.53125-19.058594-19.058594 0-10.523437 8.53125-19.058594 19.058594-19.058594 10.523437 0 19.058593 8.535157 19.058593 19.058594zm0 0" fill="#80c0e4"/></svg>