<svg height="504pt" viewBox="-30 0 504 504.38862" width="504pt" xmlns="http://www.w3.org/2000/svg"><path d="m193.269531 385.546875h58.101563v118.839844h-58.101563zm0 0" fill="#e08778"/><path d="m381.113281 169.039062-32.097656 216.507813h-253.390625l-32.101562-216.507813 158.796874-119.523437zm0 0" fill="#eee07d"/><path d="m63.523438 169.039062 8.519531 57.46875 150.277343-108.796874 150.273438 108.792968 8.519531-57.464844-158.792969-119.523437zm0 0" fill="#e1ba68"/><path d="m268.421875 194.308594c0 25.464844-20.640625 46.105468-46.101563 46.105468-25.460937 0-46.101562-20.640624-46.101562-46.105468 0-25.460938 20.640625-46.101563 46.101562-46.101563 25.460938 0 46.101563 20.640625 46.101563 46.101563zm0 0" fill="#59636f"/><path d="m245.882812 301.519531c0 13.015625-10.550781 23.5625-23.5625 23.5625-13.015624 0-23.5625-10.546875-23.5625-23.5625 0-13.011719 10.546876-23.5625 23.5625-23.5625 13.011719 0 23.5625 10.550781 23.5625 23.5625zm0 0" fill="#59636f"/><path d="m193.269531 385.546875h58.101563v65.964844h-58.101563zm0 0" fill="#d2614c"/><path d="m372.453125 350.03125h-300.269531c-11.074219 0-20.050782 8.980469-20.050782 20.054688v30.925781c0 11.074219 8.976563 20.050781 20.050782 20.050781h300.269531c11.074219 0 20.054687-8.976562 20.054687-20.050781v-30.925781c0-11.074219-8.980468-20.054688-20.054687-20.054688zm0 0" fill="#80c0e4"/><path d="m438.695312 148.238281-195.347656-141.425781c-12.546875-9.082031-29.507812-9.082031-42.054687 0l-195.351563 141.425781c-6.214844 4.5-7.605468 13.1875-3.105468 19.40625l25.757812 35.578125c4.5 6.214844 13.1875 7.605469 19.402344 3.105469l174.324218-126.203125 174.324219 126.203125c6.214844 4.5 14.902344 3.109375 19.402344-3.105469l25.757813-35.582031c4.5-6.214844 3.109374-14.902344-3.109376-19.402344zm0 0" fill="#e1738c"/></svg>