<svg height="512pt" viewBox="-36 0 512 512" width="512pt" xmlns="http://www.w3.org/2000/svg"><path d="m219.710938 0c-23.0625 0-41.757813 18.695312-41.757813 41.757812 0 23.066407 18.695313 41.761719 41.757813 41.761719s41.761718-18.699219 41.761718-41.761719-18.695312-41.757812-41.761718-41.757812zm0 57.175781c-8.511719 0-15.414063-6.902343-15.414063-15.417969 0-8.511718 6.902344-15.414062 15.414063-15.414062 8.515624 0 15.414062 6.902344 15.414062 15.414062 0 8.515626-6.898438 15.417969-15.414062 15.417969zm0 0" fill="#e1ba68"/><path d="m55.292969 195.191406h328.835937v35.089844h-328.835937zm0 0" fill="#e1ba68"/><path d="m55.292969 350.589844h328.835937v35.085937h-328.835937zm0 0" fill="#e1ba68"/><path d="m220.15625 60.8125c-.003906 0-.003906 0-.007812 0-.144532 0-.289063-.003906-.4375-.003906-99.945313 0-181.257813 81.3125-181.257813 181.257812v201.628906c0 9.691407 7.855469 17.546876 17.546875 17.546876 9.6875 0 17.542969-7.855469 17.542969-17.546876v-201.628906c0-62.675781 39.660156-116.257812 95.195312-136.992187-9.476562 12.292969-17.726562 25.527343-24.507812 39.449219-15.117188 31.039062-23.109375 65.695312-23.109375 100.222656v198.949218c0 9.691407 7.855468 17.546876 17.542968 17.546876 9.691407 0 17.546876-7.855469 17.546876-17.546876v-198.949218c0-29.234375 6.765624-58.578125 19.566406-84.859375 7.050781-14.46875 15.964844-28.066407 26.390625-40.375v324.183593c0 9.691407 7.855469 17.546876 17.546875 17.546876 9.6875 0 17.542968-7.855469 17.542968-17.546876v-324.183593c10.425782 12.308593 19.339844 25.90625 26.390626 40.375 12.800781 26.28125 19.566406 55.625 19.566406 84.859375v198.949218c0 9.691407 7.855468 17.546876 17.546875 17.546876 9.6875 0 17.542969-7.855469 17.542969-17.546876v-198.949218c0-34.527344-7.992188-69.183594-23.109376-100.222656-6.78125-13.925782-15.03125-27.15625-24.507812-39.449219 55.535156 20.734375 95.195312 74.316406 95.195312 136.992187v201.628906c0 9.691407 7.855469 17.546876 17.542969 17.546876 9.691407 0 17.546875-7.855469 17.546875-17.546876v-201.628906c-.003906-99.796875-81.074218-181.011718-180.816406-181.253906zm0 0" fill="#eee07d"/><g fill="#e1ba68"><path d="m383.425781 461.242188c9.6875 0 17.542969-7.855469 17.542969-17.546876v-30.90625h-35.085938v30.90625c-.003906 9.691407 7.851563 17.546876 17.542969 17.546876zm0 0"/><path d="m56 461.242188c9.6875 0 17.542969-7.855469 17.542969-17.546876v-30.90625h-35.089844v30.90625c0 9.691407 7.855469 17.546876 17.546875 17.546876zm0 0"/><path d="m300.757812 461.242188c9.691407 0 17.546876-7.855469 17.546876-17.546876v-30.90625h-35.089844v30.90625c0 9.691407 7.855468 17.546876 17.542968 17.546876zm0 0"/><path d="m219.710938 461.242188c9.691406 0 17.546874-7.855469 17.546874-17.546876v-30.90625h-35.089843v30.90625c0 9.691407 7.855469 17.546876 17.542969 17.546876zm0 0"/><path d="m138.664062 461.242188c9.691407 0 17.546876-7.855469 17.546876-17.546876v-30.90625h-35.089844v30.90625c0 9.691407 7.855468 17.546876 17.542968 17.546876zm0 0"/></g><path d="m404.523438 443.695312h-369.621094c-19.277344 0-34.902344 15.625-34.902344 34.902344v23.109375c0 5.6875 4.609375 10.292969 10.292969 10.292969h418.835937c5.6875 0 10.292969-4.609375 10.292969-10.292969v-23.109375c0-19.277344-15.625-34.902344-34.898437-34.902344zm0 0" fill="#eee07d"/><path d="m140.019531 488.9375c-4.265625 0-7.726562-3.460938-7.726562-7.726562v-14.421876c0-4.269531 3.460937-7.726562 7.726562-7.726562 4.269531 0 7.726563 3.457031 7.726563 7.726562v14.421876c0 4.265624-3.457032 7.726562-7.726563 7.726562zm0 0" fill="#424952"/><path d="m299.402344 488.9375c-4.269532 0-7.726563-3.460938-7.726563-7.726562v-14.421876c0-4.269531 3.457031-7.726562 7.726563-7.726562 4.269531 0 7.726562 3.457031 7.726562 7.726562v14.421876c0 4.265624-3.457031 7.726562-7.726562 7.726562zm0 0" fill="#424952"/><path d="m219.710938 496.636719c-9.894532 0-19.183594-4.136719-25.484376-11.34375-2.808593-3.214844-2.480468-8.09375.730469-10.902344 3.210938-2.808594 8.09375-2.480469 10.902344.730469 3.367187 3.851562 8.417969 6.0625 13.851563 6.0625 5.4375 0 10.484374-2.210938 13.851562-6.0625 2.808594-3.210938 7.6875-3.539063 10.902344-.730469s3.542968 7.6875.734375 10.902344c-6.304688 7.207031-15.59375 11.34375-25.488281 11.34375zm0 0" fill="#424952"/></svg>