<svg height="512px" viewBox="-36 0 511 512" width="512px" xmlns="http://www.w3.org/2000/svg"><path d="m333.699219 61.507812h31.140625v174.386719h-31.140625zm0 0" fill="#e9e9e9"/><path d="m425.386719 230.699219c0 15.386719-12.472657 27.863281-27.859375 27.863281-15.390625 0-27.863282-12.476562-27.863282-27.863281s12.472657-27.859375 27.863282-27.859375c15.386718 0 27.859375 12.472656 27.859375 27.859375zm0 0" fill="#8895a2"/><path d="m308.488281 269.3125c-1.082031-.542969-2.136719-1.140625-3.167969-1.753906-11.984374-7.109375-22.761718-18.960938-25.644531-32.921875-1.679687-8.136719-.460937-16.523438 2.546875-24.195313 1.574219-4.015625 6.105469-5.996094 10.121094-4.421875 2.941406 1.152344 4.789062 3.890625 4.949219 6.855469.25 4.898438.929687 9.976562 4.3125 13.796875 4.265625 4.824219 11.242187 7.570313 17.605469 7.804687 10.628906.382813 18.671874 10.28125 17.40625 20.792969-1.648438 13.660157-16.480469 19.898438-28.128907 14.042969zm0 0" fill="#8895a2"/><path d="m180.074219 35.695312h78.886719v437.765626h-78.886719zm0 0" fill="#e9e9e9"/><path d="m348.230469 225.511719h-3.894531c-21.066407 0-38.144532 17.078125-38.144532 38.148437 0 21.066406 17.078125 38.144532 38.144532 38.144532h80.1875c0-42.132813-34.160157-76.292969-76.292969-76.292969zm0 0" fill="#a6adb9"/><path d="m390.273438 283.996094c-4.265626 0-7.722657-3.460938-7.722657-7.726563v-10.082031c0-4.269531 3.457031-7.726562 7.722657-7.726562 4.269531 0 7.726562 3.457031 7.726562 7.726562v10.082031c0 4.265625-3.457031 7.726563-7.726562 7.726563zm0 0" fill="#424952"/><path d="m180.074219 35.695312h78.886719v72.289063h-78.886719zm0 0" fill="#d3d2d8"/><path d="m333.699219 61.507812h31.140625v46.476563h-31.140625zm0 0" fill="#d3d2d8"/><path d="m418.738281 0h-398.441406c-10.933594 0-19.796875 8.863281-19.796875 19.796875v37.484375c0 10.933594 8.863281 19.796875 19.796875 19.796875h398.441406c10.933594 0 19.796875-8.863281 19.796875-19.796875v-37.484375c0-10.933594-8.863281-19.796875-19.796875-19.796875zm0 0" fill="#e08778"/><path d="m180.074219 404.015625h78.886719v69.445313h-78.886719zm0 0" fill="#d3d2d8"/><path d="m418.738281 434.921875h-398.441406c-10.933594 0-19.796875 8.863281-19.796875 19.796875v37.484375c0 10.933594 8.863281 19.796875 19.796875 19.796875h398.441406c10.933594 0 19.796875-8.863281 19.796875-19.796875v-37.484375c0-10.933594-8.863281-19.796875-19.796875-19.796875zm0 0" fill="#e08778"/></svg>