<svg height="512px" viewBox="0 -10 512 512" width="512px" xmlns="http://www.w3.org/2000/svg"><path d="m432.355469 71.628906c-3.902344 17.699219-2.789063 33.441406-1.75 48.234375 1.699219 24.105469 3.164062 44.914063-18.058594 76.140625-9.097656 13.382813.742187 32.210938 17.019531 32.089844 6.652344-.050781 13.195313-3.246094 17.058594-8.933594 29.257812-43.03125 26.9375-75.832031 25.085938-102.191406-.847657-12.066406-1.617188-22.984375.585937-34.511719l-11.035156-25.796875zm0 0" fill="#59636f"/><path d="m321.117188 177.113281c121.859374-40.613281 178.519531 60.398438 138.34375 132.484375l-77.777344 29.332032-125.683594-41.207032v-76.234375zm0 0" fill="#8895a2"/><path d="m51.421875 212.78125s-30.769531-30.367188-19.4375-88.75c.769531-3.964844 3.855469-7.070312 7.816406-7.859375 57.902344-11.519531 81.308594 16.5625 81.308594 16.5625zm0 0" fill="#59636f"/><path d="m71.703125 196.078125s.21875.195313.59375.601563c-.074219-.078126-.269531-.292969-.5625-.644532zm-8.261719-57.179687h-.070312c-4.078125.003906-7.375 3.394531-7.320313 7.476562.414063 29.691406 12.808594 46.21875 15.683594 49.660156l30.875-45.804687c-.582031-.574219-11.855469-11.332031-39.167969-11.332031zm0 0" fill="#d3d2d8"/><path d="m302.679688 212.78125s30.769531-30.367188 19.4375-88.75c-.769532-3.964844-3.855469-7.070312-7.816407-7.859375-57.902343-11.519531-81.308593 16.5625-81.308593 16.5625zm0 0" fill="#59636f"/><path d="m282.367188 196.035156c-.292969.351563-.488282.566406-.5625.644532.375-.40625.59375-.601563.59375-.601563zm-30.875-45.804687 30.875 45.804687c2.875-3.441406 15.269531-19.96875 15.683593-49.660156.054688-4.082031-3.242187-7.472656-7.320312-7.476562h-.070313c-27.3125 0-38.585937 10.757812-39.167968 11.332031zm0 0" fill="#d3d2d8"/><path d="m37.511719 260.597656c0 77.066406 62.472656 139.539063 139.539062 139.539063 77.066407 0 139.539063-62.472657 139.539063-139.539063s-62.472656-139.539062-139.539063-139.539062c-77.066406 0-139.539062 62.472656-139.539062 139.539062zm0 0" fill="#a6adb9"/><path d="m68.417969 260.597656c0-71.839844 54.292969-130.992187 124.085937-138.683594-5.074218-.558593-10.230468-.855468-15.453125-.855468-77.066406 0-139.539062 62.472656-139.539062 139.539062s62.472656 139.535156 139.539062 139.535156c5.222657 0 10.378907-.296874 15.453125-.855468-69.792968-7.6875-124.085937-66.839844-124.085937-138.679688zm0 0" fill="#8895a2"/><g fill="#59636f"><path d="m111.046875 240.308594c-4.269531 0-7.726563-3.457032-7.726563-7.726563v-11.945312c0-4.265625 3.457032-7.726563 7.726563-7.726563 4.265625 0 7.726563 3.460938 7.726563 7.726563v11.945312c0 4.269531-3.460938 7.726563-7.726563 7.726563zm0 0"/><path d="m243.054688 240.308594c-4.265626 0-7.726563-3.457032-7.726563-7.726563v-11.945312c0-4.265625 3.460937-7.726563 7.726563-7.726563 4.269531 0 7.726562 3.460938 7.726562 7.726563v11.945312c0 4.269531-3.457031 7.726563-7.726562 7.726563zm0 0"/><path d="m192.722656 226.128906h-31.34375c-6.222656 0-7.96875 8.53125-2.25 10.992188 5.449219 2.347656 11.519532 3.65625 17.921875 3.65625 6.402344 0 12.472657-1.308594 17.921875-3.65625 5.71875-2.464844 3.976563-10.992188-2.25-10.992188zm0 0"/><path d="m211.347656 249.179688c-3.214844-2.808594-8.09375-2.480469-10.902344.734374-2.125 2.425782-5.328124 3.820313-8.789062 3.820313s-6.667969-1.394531-8.789062-3.820313c-1.363282-1.5625-3.367188-2.527343-5.4375-2.628906-2.328126-.113281-4.660157.871094-6.195313 2.628906-2.125 2.425782-5.324219 3.820313-8.789063 3.820313-3.460937 0-6.664062-1.394531-8.789062-3.820313-2.808594-3.214843-7.691406-3.539062-10.902344-.734374-3.210937 2.8125-3.539062 7.691406-.730468 10.902343 5.058593 5.785157 12.503906 9.105469 20.421874 9.105469 5.269532 0 10.320313-1.476562 14.605469-4.164062 4.285157 2.6875 9.335938 4.164062 14.605469 4.164062 7.917969 0 15.363281-3.320312 20.421875-9.105469 2.808594-3.210937 2.480469-8.089843-.730469-10.902343zm0 0"/><path d="m75.300781 243.152344c-.652343 0-1.316406-.082032-1.980469-.257813l-33.59375-8.875c-4.125-1.089843-6.585937-5.320312-5.496093-9.445312 1.09375-4.125 5.3125-6.589844 9.445312-5.496094l33.59375 8.878906c4.125 1.089844 6.585938 5.316407 5.496094 9.441407-.917969 3.464843-4.042969 5.753906-7.464844 5.753906zm0 0"/><path d="m41.695312 300.050781c-3.421874 0-6.546874-2.292969-7.464843-5.757812-1.089844-4.125 1.371093-8.351563 5.496093-9.441407l33.59375-8.875c4.125-1.09375 8.351563 1.371094 9.445313 5.496094 1.089844 4.125-1.371094 8.351563-5.496094 9.441406l-33.59375 8.875c-.660156.175782-1.328125.261719-1.980469.261719zm0 0"/><path d="m75.292969 267.160156h-37.78125c-4.265625 0-7.726563-3.457031-7.726563-7.726562 0-4.265625 3.460938-7.726563 7.726563-7.726563h37.78125c4.269531 0 7.726562 3.460938 7.726562 7.726563 0 4.269531-3.457031 7.726562-7.726562 7.726562zm0 0"/><path d="m278.800781 243.152344c-3.421875 0-6.546875-2.289063-7.464843-5.753906-1.089844-4.125 1.371093-8.351563 5.496093-9.441407l33.59375-8.878906c4.125-1.09375 8.351563 1.371094 9.445313 5.496094 1.089844 4.125-1.371094 8.355469-5.496094 9.445312l-33.59375 8.875c-.660156.175781-1.328125.257813-1.980469.257813zm0 0"/><path d="m312.40625 300.050781c-.652344 0-1.316406-.085937-1.980469-.261719l-33.59375-8.875c-4.125-1.089843-6.585937-5.316406-5.496093-9.441406 1.09375-4.125 5.3125-6.589844 9.445312-5.496094l33.59375 8.875c4.125 1.089844 6.585938 5.316407 5.496094 9.441407-.917969 3.464843-4.042969 5.757812-7.464844 5.757812zm0 0"/><path d="m316.589844 267.160156h-37.785156c-4.265626 0-7.726563-3.457031-7.726563-7.726562 0-4.265625 3.460937-7.726563 7.726563-7.726563h37.785156c4.265625 0 7.722656 3.460938 7.722656 7.726563 0 4.269531-3.457031 7.726562-7.722656 7.726562zm0 0"/><path d="m342.535156 317.324219c-4.269531 0-7.726562-3.460938-7.726562-7.726563 0-44.125 23.960937-66.988281 38.242187-76.691406 3.53125-2.398438 8.335938-1.480469 10.734375 2.050781 2.398438 3.527344 1.480469 8.335938-2.046875 10.730469-14.359375 9.753906-31.476562 28.757812-31.476562 63.910156 0 4.265625-3.460938 7.726563-7.726563 7.726563zm0 0"/></g><path d="m499.082031 34.273438c-16.925781 19.082031-24.085937 34.078124-26.785156 48.183593-10.40625-4.996093-23.746094-9.40625-39.941406-10.828125 4.164062-18.925781 14.0625-40.085937 35.902343-64.695312 7.550782-8.519532 20.574219-9.292969 29.09375-1.742188 8.507813 7.550782 9.28125 20.574219 1.730469 29.082032zm0 0" fill="#d3d2d8"/><path d="m256 338.929688-226.667969 29.335937 10.917969 87.6875c2.609375 20.933594 20.398438 36.644531 41.492188 36.644531h348.519531c21.09375 0 38.882812-15.710937 41.488281-36.644531l10.917969-87.6875zm0 0" fill="#e1738c"/><path d="m29.332031 368.265625 3.847657 30.902344h445.640624l3.847657-30.902344-226.667969-29.335937zm0 0" fill="#d74a6c"/><path d="m482.667969 309.597656h-453.335938c-16.199219 0-29.332031 13.132813-29.332031 29.332032 0 16.203124 13.132812 29.335937 29.332031 29.335937h453.335938c16.199219 0 29.332031-13.132813 29.332031-29.335937 0-16.199219-13.132812-29.332032-29.332031-29.332032zm0 0" fill="#e1738c"/></svg>