<svg height="512px" viewBox="0 -84 512.00103 512" width="512px" xmlns="http://www.w3.org/2000/svg"><path d="m32.621094 32.621094h446.757812v277.828125h-446.757812zm0 0" fill="#e1738c"/><path d="m32.621094 32.621094h30.90625v277.828125h-30.90625zm0 0" fill="#d74a6c"/><g fill="#e9e9e9"><path d="m221.886719 237.394531c-1.273438 0-2.566407-.3125-3.757813-.980469-3.726562-2.078124-5.0625-6.785156-2.980468-10.511718 6.027343-10.792969 13.207031-28.988282 13.207031-54.367188s-7.179688-43.574218-13.207031-54.367187c-2.082032-3.726563-.746094-8.433594 2.980468-10.511719 3.726563-2.082031 8.433594-.746094 10.511719 2.980469 6.921875 12.394531 15.171875 33.195312 15.171875 61.898437s-8.25 49.503906-15.171875 61.898438c-1.414063 2.535156-4.042969 3.960937-6.753906 3.960937zm0 0"/><path d="m279.46875 222.804688c-1.277344 0-2.566406-.316407-3.757812-.984376-3.726563-2.078124-5.0625-6.785156-2.980469-10.511718 4.398437-7.882813 9.644531-21.179688 9.644531-39.773438s-5.242188-31.890625-9.644531-39.769531c-2.082031-3.726563-.746094-8.433594 2.980469-10.515625 3.726562-2.078125 8.429687-.746094 10.511718 2.980469 5.292969 9.484375 11.605469 25.390625 11.605469 47.304687 0 21.917969-6.3125 37.820313-11.605469 47.308594-1.414062 2.53125-4.042968 3.960938-6.753906 3.960938zm0 0"/><path d="m337.050781 208.207031c-1.273437 0-2.566406-.316406-3.757812-.980469-3.726563-2.078124-5.0625-6.785156-2.980469-10.511718 2.773438-4.972656 6.082031-13.378906 6.082031-25.179688 0-11.804687-3.308593-20.207031-6.082031-25.179687-2.082031-3.726563-.746094-8.433594 2.980469-10.511719 3.722656-2.082031 8.429687-.746094 10.511719 2.980469 3.671874 6.574219 8.046874 17.582031 8.046874 32.710937s-4.375 26.136719-8.046874 32.710938c-1.414063 2.535156-4.042969 3.960937-6.753907 3.960937zm0 0"/></g><path d="m228.355469 171.535156c0 8.550782-.824219 16.269532-2.136719 23.179688h15.691406c1.175782-7.042969 1.898438-14.761719 1.898438-23.179688 0-8.414062-.722656-16.132812-1.898438-23.179687h-15.691406c1.308594 6.914062 2.136719 14.628906 2.136719 23.179687zm0 0" fill="#d3d2d8"/><path d="m282.375 171.535156c0 8.96875-1.222656 16.691406-2.980469 23.179688h15.910157c1.523437-6.769532 2.523437-14.496094 2.523437-23.179688s-1-16.40625-2.523437-23.179687h-15.910157c1.757813 6.492187 2.980469 14.214843 2.980469 23.179687zm0 0" fill="#d3d2d8"/><path d="m336.394531 171.535156c0 10.347656-2.539062 18.082032-5.035156 23.179688h16.699219c2.132812-6.117188 3.792968-13.863282 3.792968-23.179688 0-9.3125-1.660156-17.058594-3.792968-23.179687h-16.699219c2.496094 5.101562 5.035156 12.835937 5.035156 23.179687zm0 0" fill="#d3d2d8"/><path d="m393.703125 179.261719h-205.007813c-4.265624 0-7.726562-3.457031-7.726562-7.726563 0-4.265625 3.460938-7.726562 7.726562-7.726562h205.007813c4.265625 0 7.722656 3.460937 7.722656 7.726562 0 4.269532-3.457031 7.726563-7.722656 7.726563zm0 0" fill="#e9e9e9"/><path d="m174.507812 113.402344c-5.382812-9.636719-16.980468-13.851563-27.34375-10.0625-18.402343 6.730468-48.234374 22.207031-70.425781 56.019531-4.839843 7.375-4.839843 16.976563 0 24.351563 22.191407 33.8125 52.023438 49.292968 70.425781 56.019531 10.363282 3.792969 21.960938-.425781 27.34375-10.0625 6.726563-12.042969 14.1875-31.429688 14.1875-58.132813s-7.464843-46.085937-14.1875-58.132812zm0 0" fill="#e9e9e9"/><path d="m146.980469 164.324219 5.796875-5.800781c3.019531-3.015626 3.019531-7.910157 0-10.925782-3.015625-3.015625-7.90625-3.015625-10.925782 0l-5.796874 5.800782-5.800782-5.800782c-3.015625-3.015625-7.910156-3.015625-10.925781 0-3.019531 3.019532-3.019531 7.910156 0 10.925782l5.796875 5.800781-5.796875 5.800781c-3.019531 3.015625-3.019531 7.910156 0 10.925781 1.507813 1.507813 3.484375 2.261719 5.460937 2.261719 1.976563 0 3.957032-.753906 5.464844-2.261719l5.800782-5.800781 5.796874 5.800781c1.507813 1.507813 3.488282 2.261719 5.464844 2.261719 1.976563 0 3.953125-.753906 5.460938-2.261719 3.019531-3.015625 3.019531-7.910156 0-10.925781zm0 0" fill="#a6adb9"/><path d="m441.433594 160.625c-5.785156-6.121094-5.785156-15.695312 0-21.816406 5.78125-6.125 5.78125-15.699219 0-21.820313l-2.25-2.382812c-5.214844-5.523438-13.636719-6.621094-20.035156-2.527344-12.136719 7.765625-31.1875 24.664063-46.050782 59.457031 14.863282 34.796875 33.914063 51.695313 46.050782 59.460938 6.398437 4.09375 14.820312 2.996094 20.035156-2.527344l2.25-2.382812c5.78125-6.125 5.78125-15.695313 0-21.820313-5.785156-6.121094-5.785156-15.695313 0-21.816406 5.78125-6.128907 5.78125-15.699219 0-21.824219zm0 0" fill="#e9e9e9"/><path d="m479.378906 0h-446.757812c-18.015625 0-32.621094 14.605469-32.621094 32.621094s14.605469 32.621094 32.621094 32.621094h446.757812c18.015625 0 32.621094-14.605469 32.621094-32.621094s-14.605469-32.621094-32.621094-32.621094zm0 0" fill="#a6adb9"/><path d="m30.90625 32.621094c0-18.015625 14.605469-32.621094 32.621094-32.621094h-30.90625c-18.015625 0-32.621094 14.605469-32.621094 32.621094s14.605469 32.621094 32.621094 32.621094h30.90625c-18.015625 0-32.621094-14.605469-32.621094-32.621094zm0 0" fill="#8895a2"/><path d="m479.378906 277.828125h-446.757812c-18.015625 0-32.621094 14.605469-32.621094 32.621094s14.605469 32.621093 32.621094 32.621093h446.757812c18.015625 0 32.621094-14.605468 32.621094-32.621093s-14.605469-32.621094-32.621094-32.621094zm0 0" fill="#a6adb9"/><path d="m30.90625 310.449219c0-18.015625 14.605469-32.621094 32.621094-32.621094h-30.90625c-18.015625 0-32.621094 14.605469-32.621094 32.621094s14.605469 32.621093 32.621094 32.621093h30.90625c-18.015625 0-32.621094-14.605468-32.621094-32.621093zm0 0" fill="#8895a2"/></svg>