<svg height="512px" viewBox="0 -5 512.00019 512" width="512px" xmlns="http://www.w3.org/2000/svg"><path d="m45.535156 237.003906c15.933594-23.441406 47.585938-31 72.367188-17.253906 17.5625 9.742188 27.585937 27.402344 28.441406 45.808594.476562 10.253906 6.164062 19.554687 14.867188 25l72.96875 45.652344c8.699218 5.445312 19.554687 6.496093 28.984374 2.4375 16.925782-7.277344 37.191407-5.984376 53.628907 5.546874 23.203125 16.277344 30.25 48.046876 16.136719 72.625-6.792969 11.828126-17.222657 20.128907-29.007813 24.414063 1.296875 12.472656-1.605469 25.484375-9.273437 36.761719-15.929688 23.441406-47.582032 31-72.367188 17.25-17.558594-9.738282-27.585938-27.398438-28.4375-45.804688-.476562-10.253906-6.167969-19.554687-14.867188-25l-72.96875-45.65625c-8.703124-5.441406-19.554687-6.492187-28.984374-2.4375-16.925782 7.28125-37.191407 5.988282-53.632813-5.542968-23.199219-16.277344-30.246094-48.046876-16.132813-72.625 6.792969-11.828126 17.222657-20.128907 29.007813-24.414063-1.300781-12.472656 1.605469-25.484375 9.269531-36.761719zm0 0" fill="#e08778"/><path d="m232.585938 474.644531c-17.5625-9.742187-27.585938-27.398437-28.441407-45.804687-.476562-10.253906-6.164062-19.554688-14.867187-25.003906l-72.96875-45.652344c-8.699219-5.445313-19.554688-6.496094-28.984375-2.4375-16.925781 7.277344-37.1875 5.984375-53.628907-5.546875-19.101562-13.398438-27.238281-37.296875-21.648437-59.039063-1.742187 2.179688-3.351563 4.515625-4.789063 7.019532-14.113281 24.578124-7.066406 56.347656 16.132813 72.625 16.441406 11.53125 36.707031 12.824218 53.632813 5.542968 9.429687-4.054687 20.28125-3.007812 28.984374 2.4375l72.96875 45.65625c8.699219 5.445313 14.390626 14.746094 14.867188 25 .855469 18.40625 10.878906 36.066406 28.441406 45.804688 24.78125 13.75 56.433594 6.191406 72.367188-17.25 3.691406-5.433594 6.269531-11.269532 7.8125-17.253906-16.566406 20.777343-46.320313 26.972656-69.878906 13.902343zm0 0" fill="#d2614c"/><path d="m466.464844 24.097656c-15.933594-23.441406-47.585938-31-72.367188-17.25-17.5625 9.742188-27.585937 27.398438-28.441406 45.804688-.476562 10.253906-6.167969 19.558594-14.867188 25l-72.96875 45.65625c-8.699218 5.445312-19.554687 6.492187-28.984374 2.4375-16.925782-7.28125-37.191407-5.988282-53.632813 5.546875-23.199219 16.273437-30.246094 48.046875-16.132813 72.625 6.792969 11.824219 17.222657 20.125 29.007813 24.414062-1.300781 12.472657 1.605469 25.480469 9.273437 36.761719 15.929688 23.441406 47.582032 31 72.367188 17.25 17.558594-9.742188 27.582031-27.398438 28.4375-45.804688.476562-10.253906 6.167969-19.554687 14.867188-25l72.96875-45.65625c8.699218-5.445312 19.554687-6.492187 28.984374-2.4375 16.925782 7.28125 37.191407 5.988282 53.632813-5.542968 23.203125-16.277344 30.246094-48.046875 16.132813-72.625-6.792969-11.828125-17.222657-20.128906-29.007813-24.414063 1.300781-12.476562-1.605469-25.484375-9.269531-36.765625zm0 0" fill="#eee07d"/><path d="m504.742188 85.277344c-1.4375-2.503906-3.046876-4.839844-4.785157-7.019532 5.589844 21.742188-2.550781 45.640626-21.652343 59.039063-16.4375 11.53125-36.703126 12.824219-53.628907 5.542969-9.429687-4.054688-20.285156-3.003906-28.984375 2.4375l-72.96875 45.65625c-8.703125 5.445312-14.390625 14.746094-14.867187 25-.855469 18.40625-10.878907 36.066406-28.441407 45.804687-23.558593 13.070313-53.3125 6.875-69.878906-13.898437 1.542969 5.984375 4.121094 11.820312 7.816406 17.253906 15.929688 23.441406 47.582032 31 72.367188 17.25 17.558594-9.742188 27.582031-27.398438 28.4375-45.804688.476562-10.253906 6.167969-19.554687 14.867188-25l72.96875-45.65625c8.699218-5.445312 19.554687-6.492187 28.984374-2.4375 16.925782 7.28125 37.191407 5.988282 53.632813-5.542968 23.203125-16.277344 30.246094-48.046875 16.132813-72.625zm0 0" fill="#e1ba68"/><g fill="#424952"><path d="m280.722656 194.300781c-2.574218 0-5.089844-1.289062-6.554687-3.632812l-7.117188-11.371094c-2.261719-3.617187-1.164062-8.386719 2.453125-10.648437 3.617188-2.265626 8.382813-1.167969 10.648438 2.449218l7.117187 11.375c2.261719 3.617188 1.164063 8.386719-2.453125 10.648438-1.273437.796875-2.691406 1.179687-4.09375 1.179687zm0 0"/><path d="m406.421875 115.652344c-2.574219 0-5.089844-1.285156-6.558594-3.628906l-7.117187-11.375c-2.261719-3.617188-1.164063-8.386719 2.453125-10.648438 3.617187-2.261719 8.382812-1.164062 10.648437 2.453125l7.117188 11.375c2.261718 3.613281 1.164062 8.382813-2.453125 10.644531-1.273438.800782-2.691407 1.179688-4.089844 1.179688zm0 0"/><path d="m334.246094 164.871094c-3.007813 0-6.011719-.433594-8.921875-1.3125-4.085938-1.234375-6.394531-5.546875-5.164063-9.628906 1.234375-4.085938 5.546875-6.394532 9.632813-5.164063 4.40625 1.332031 9.316406.605469 13.472656-1.996094 4.15625-2.601562 6.957031-6.699219 7.6875-11.242187.675781-4.214844 4.628906-7.082032 8.851563-6.40625 4.214843.675781 7.082031 4.640625 6.40625 8.855468-1.4375 8.945313-6.808594 16.925782-14.746094 21.894532-5.277344 3.296875-11.253906 5-17.21875 5zm0 0"/><path d="m231.277344 407.203125c-1.402344 0-2.816406-.382813-4.09375-1.179687-3.617188-2.261719-4.714844-7.03125-2.453125-10.648438l7.117187-11.371094c2.265625-3.621094 7.03125-4.714844 10.648438-2.453125 3.617187 2.261719 4.714844 7.03125 2.453125 10.648438l-7.117188 11.375c-1.464843 2.34375-3.980469 3.628906-6.554687 3.628906zm0 0"/><path d="m105.578125 328.554688c-1.398437 0-2.816406-.378907-4.089844-1.175782-3.617187-2.265625-4.714843-7.03125-2.453125-10.648437l7.117188-11.375c2.265625-3.617188 7.03125-4.714844 10.648437-2.449219 3.621094 2.261719 4.714844 7.03125 2.453125 10.644531l-7.117187 11.375c-1.46875 2.34375-3.984375 3.628907-6.558594 3.628907zm0 0"/><path d="m177.753906 377.773438c-5.964844 0-11.941406-1.699219-17.214844-5-7.9375-4.964844-13.3125-12.945313-14.75-21.894532-.675781-4.210937 2.191407-8.175781 6.402344-8.851562 4.214844-.679688 8.179688 2.191406 8.855469 6.402344.730469 4.546874 3.53125 8.644531 7.6875 11.246093 4.15625 2.597657 9.070313 3.324219 13.472656 1.996094 4.082031-1.238281 8.398438 1.074219 9.632813 5.160156 1.234375 4.085938-1.078125 8.398438-5.164063 9.628907-2.910156.878906-5.914062 1.3125-8.921875 1.3125zm0 0"/></g></svg>