<svg height="512pt" viewBox="0 -3 512.0008 512" width="512pt" xmlns="http://www.w3.org/2000/svg"><path d="m256 43.269531 197.796875 141.136719v322.445312h-395.589844v-322.445312z" fill="#80c0e4"/><path d="m291.765625 219.164062h-71.527344c-44.058593 0-79.777343 35.71875-79.777343 79.777344v68.890625h231.078124v-68.890625c0-44.058594-35.714843-79.777344-79.773437-79.777344zm0 0" fill="#424952"/><path d="m111.449219 316.753906c-4.621094 7.699219-4.949219 17.238282-10.074219 24.617188-4.652344 6.703125-12.152344 11.089844-14.691406 19.238281-4.160156 13.347656 6.019531 25.144531 17.59375 30.292969 11.117187 4.945312 30.886718 4.1875 37.332031-8.445313.003906-.003906 34.042969-66.734375 34.042969-66.734375-17.59375-19.4375-49.074219-24.152344-64.203125 1.03125zm0 0" fill="#e1ba68"/><path d="m400.550781 316.753906c4.625 7.699219 4.953125 17.238282 10.074219 24.617188 4.652344 6.703125 12.152344 11.089844 14.691406 19.238281 4.160156 13.347656-6.019531 25.144531-17.589844 30.292969-11.117187 4.945312-30.890624 4.1875-37.332031-8.445313-.003906-.003906-34.042969-66.734375-34.042969-66.734375 17.589844-19.4375 49.074219-24.152344 64.199219 1.03125zm0 0" fill="#e1ba68"/><path d="m256 283.195312c-63.8125 0-115.539062 51.730469-115.539062 115.542969v108.113281h231.078124v-108.113281c0-63.8125-51.726562-115.542969-115.539062-115.542969zm0 0" fill="#eee07d"/><path d="m284.515625 506.851562c-17.796875-21.839843.539063-68.492187 67.410156-68.492187 70.378907 0 48.269531 68.492187 27.503907 68.492187zm0 0" fill="#e1ba68"/><path d="m227.484375 506.851562c17.796875-21.839843-.535156-68.492187-67.410156-68.492187-70.378907 0-48.265625 68.492187-27.503907 68.492187zm0 0" fill="#e1ba68"/><g fill="#424952"><path d="m203.859375 364.371094c-4.265625 0-7.726563 3.460937-7.726563 7.726562v9.4375c0 4.265625 3.460938 7.726563 7.726563 7.726563s7.726563-3.460938 7.726563-7.726563v-9.4375c0-4.265625-3.460938-7.726562-7.726563-7.726562zm0 0"/><path d="m308.140625 364.371094c-4.265625 0-7.726563 3.460937-7.726563 7.726562v9.4375c0 4.265625 3.460938 7.726563 7.726563 7.726563 4.269531 0 7.726563-3.460938 7.726563-7.726563v-9.4375c0-4.265625-3.457032-7.726562-7.726563-7.726562zm0 0"/><path d="m241.84375 385.121094c4.300781 1.855468 9.101562 2.890625 14.15625 2.890625 5.058594 0 9.855469-1.035157 14.160156-2.890625 4.515625-1.945313 3.136719-8.679688-1.78125-8.679688h-24.757812c-4.917969-.003906-6.292969 6.734375-1.777344 8.679688zm0 0"/><path d="m284.160156 393.425781c-3.210937-2.808593-8.09375-2.480469-10.902344.734375-1.367187 1.5625-3.453124 2.460938-5.71875 2.460938-2.269531 0-4.351562-.898438-5.722656-2.460938-1.359375-1.558594-3.378906-2.527344-5.441406-2.628906-2.324219-.109375-4.65625.871094-6.191406 2.628906-1.371094 1.5625-3.453125 2.460938-5.722656 2.460938-2.265626 0-4.351563-.898438-5.71875-2.460938-2.808594-3.214844-7.6875-3.542968-10.902344-.734375-3.210938 2.808594-3.539063 7.6875-.730469 10.902344 4.300781 4.921875 10.628906 7.746094 17.351563 7.746094 4.125 0 8.089843-1.0625 11.539062-3.015625 3.449219 1.953125 7.417969 3.015625 11.539062 3.015625 6.726563 0 13.050782-2.824219 17.355469-7.746094 2.808594-3.214844 2.476563-8.09375-.734375-10.902344zm0 0"/></g><path d="m58.207031 184.40625v89.914062c5.308594-1.472656 10.320313-3.925781 14.84375-7.300781l182.949219-136.589843 182.953125 136.589843c4.519531 3.375 9.535156 5.828125 14.84375 7.300781v-89.914062l-197.796875-141.136719zm0 0" fill="#5ba0d3"/><path d="m506.335938 176.761719-225.886719-168.640625c-14.5-10.828125-34.394531-10.828125-48.894531 0l-225.886719 168.640625c-6.242188 4.660156-7.523438 13.5-2.867188 19.738281l32.023438 42.890625c4.660156 6.242187 13.496093 7.523437 19.738281 2.863281l201.4375-150.390625 201.441406 150.390625c6.238282 4.660156 15.078125 3.378906 19.734375-2.863281l32.023438-42.890625c4.65625-6.242188 3.375-15.078125-2.863281-19.738281zm0 0" fill="#eee07d"/></svg>