<svg height="512pt" viewBox="0 -26 512 512" width="512pt" xmlns="http://www.w3.org/2000/svg"><path d="m256 0c-141.382812 0-256 51.890625-256 115.90625l.183594 8.304688 6.136718 31.097656h8.855469c35.601563-44.617188 129.988281-76.511719 240.824219-76.511719s205.222656 31.894531 240.824219 76.511719h8.855469l6.136718-31.097656.183594-8.304688c0-64.015625-114.617188-115.90625-256-115.90625zm0 0" fill="#d74a6c"/><path d="m512 194.703125c0 64.015625-114.617188 115.917969-256 115.917969s-256-51.902344-256-115.917969v-78.796875c0 13.835938 5.355469 27.101562 15.175781 39.402344 35.613281 44.617187 129.996094 76.511718 240.824219 76.511718s205.210938-31.894531 240.824219-76.511718c9.820312-12.300782 15.175781-25.566406 15.175781-39.402344zm0 0" fill="#e1738c"/><path d="m256 247.429688c-26.414062 0-47.902344 21.488281-47.902344 47.902343v13.253907c15.519532 1.332031 31.527344 2.035156 47.902344 2.035156s32.382812-.703125 47.902344-2.035156v-13.253907c0-26.414062-21.488282-47.902343-47.902344-47.902343zm0 0" fill="#d74a6c"/><path d="m278.148438 369.644531v-74.3125c0-12.230469-9.917969-22.148437-22.148438-22.148437s-22.148438 9.917968-22.148438 22.148437v74.3125zm0 0" fill="#eee07d"/><path d="m233.851562 330.640625h44.296876v39.003906h-44.296876zm0 0" fill="#e1ba68"/><path d="m375.636719 394.625c9.972656-7.199219 16.171875-19.308594 15.023437-32.789062-1.492187-17.460938-15.585937-31.59375-33.039062-33.125-15.175782-1.332032-28.628906 6.636718-35.304688 18.84375-4.796875 8.761718-14.214844 13.988281-24.203125 13.988281h-84.226562c-9.988281 0-19.40625-5.226563-24.203125-13.988281-6.675782-12.207032-20.132813-20.175782-35.304688-18.84375-17.457031 1.53125-31.550781 15.664062-33.039062 33.125-1.152344 13.480468 5.046875 25.589843 15.023437 32.789062-9.976562 7.195312-16.171875 19.304688-15.023437 32.785156 1.488281 17.460938 15.582031 31.59375 33.039062 33.125 15.171875 1.332032 28.625-6.636718 35.304688-18.84375 4.796875-8.761718 14.214844-13.988281 24.203125-13.988281h84.226562c9.988281 0 19.40625 5.226563 24.203125 13.988281 6.675782 12.207032 20.128906 20.175782 35.304688 18.84375 17.453125-1.53125 31.546875-15.664062 33.039062-33.125 1.148438-13.480468-5.046875-25.589844-15.023437-32.785156zm0 0" fill="#eee07d"/><path d="m147.09375 427.410156c-.867188-10.171875 2.449219-19.5625 8.410156-26.648437 3.003906-3.570313 3.003906-8.707031 0-12.273438-5.960937-7.089843-9.277344-16.480469-8.410156-26.652343 1.207031-14.121094 10.65625-26.0625 23.460938-30.925782-4.964844-1.875-10.445313-2.703125-16.171876-2.199218-17.707031 1.554687-31.765624 15.828124-33.078124 33.554687-.984376 13.308594 5.1875 25.234375 15.058593 32.359375-9.976562 7.195312-16.171875 19.304688-15.023437 32.785156 1.488281 17.460938 15.582031 31.59375 33.039062 33.125 5.726563.503906 11.210938-.324218 16.175782-2.199218-12.804688-4.863282-22.253907-16.804688-23.460938-30.925782zm0 0" fill="#e1ba68"/><path d="m202.546875 404.605469c-4.269531 0-7.726563-3.460938-7.726563-7.726563v-9.675781c0-4.265625 3.457032-7.726563 7.726563-7.726563 4.265625 0 7.722656 3.460938 7.722656 7.726563v9.675781c0 4.265625-3.457031 7.726563-7.722656 7.726563zm0 0" fill="#424952"/><path d="m309.453125 404.605469c-4.265625 0-7.722656-3.460938-7.722656-7.726563v-9.675781c0-4.265625 3.457031-7.726563 7.722656-7.726563 4.269531 0 7.726563 3.460938 7.726563 7.726563v9.675781c0 4.265625-3.457032 7.726563-7.726563 7.726563zm0 0" fill="#424952"/><path d="m256 409.769531c-7.371094 0-14.300781-3.089843-19.011719-8.480469-2.808593-3.210937-2.480469-8.09375.734375-10.902343 3.210938-2.808594 8.09375-2.480469 10.898438.734375 1.777344 2.027344 4.464844 3.195312 7.378906 3.195312s5.601562-1.167968 7.375-3.195312c2.808594-3.214844 7.691406-3.542969 10.902344-.734375 3.214844 2.808593 3.542968 7.691406.734375 10.902343-4.710938 5.390626-11.640625 8.480469-19.011719 8.480469zm0 0" fill="#424952"/><g fill="#e9e9e9"><path d="m354.898438 264.441406c0 7.585938-6.152344 13.734375-13.738282 13.734375-7.585937 0-13.734375-6.148437-13.734375-13.734375 0-7.585937 6.148438-13.734375 13.734375-13.734375 7.585938 0 13.738282 6.148438 13.738282 13.734375zm0 0"/><path d="m449.582031 236.96875c0 7.585938-6.152343 13.734375-13.738281 13.734375s-13.734375-6.148437-13.734375-13.734375 6.148437-13.734375 13.734375-13.734375 13.738281 6.148437 13.738281 13.734375zm0 0"/><path d="m184.574219 264.441406c0 7.585938-6.148438 13.734375-13.734375 13.734375-7.585938 0-13.738282-6.148437-13.738282-13.734375 0-7.585937 6.152344-13.734375 13.738282-13.734375 7.585937 0 13.734375 6.148438 13.734375 13.734375zm0 0"/><path d="m89.890625 236.96875c0 7.585938-6.148437 13.734375-13.734375 13.734375s-13.738281-6.148437-13.738281-13.734375 6.152343-13.734375 13.738281-13.734375 13.734375 6.148437 13.734375 13.734375zm0 0"/></g></svg>