<svg height="512px" viewBox="-10 0 512 512.00103" width="512px" xmlns="http://www.w3.org/2000/svg"><path d="m464.636719 0h-438.089844c-14.660156 0-26.546875 11.886719-26.546875 26.546875v458.910156c0 14.660157 11.886719 26.542969 26.546875 26.542969h52.496094l166.546875-19.402344 166.546875 19.402344h52.5c14.660156 0 26.542969-11.886719 26.542969-26.546875v-458.90625c0-14.660156-11.882813-26.546875-26.542969-26.546875zm0 0" fill="#e9a577"/><path d="m30.90625 485.453125v-458.90625c0-14.660156 11.886719-26.546875 26.546875-26.546875h-30.90625c-14.660156 0-26.546875 11.886719-26.546875 26.546875v458.910156c0 14.660157 11.886719 26.542969 26.546875 26.542969h30.90625c-14.660156 0-26.546875-11.886719-26.546875-26.546875zm0 0" fill="#e48949"/><path d="m365.226562 102.949219c9.976563-7.199219 16.171876-19.304688 15.023438-32.789063-1.488281-17.457031-15.582031-31.59375-33.039062-33.125-15.171876-1.332031-28.625 6.636719-35.304688 18.84375-4.796875 8.765625-14.214844 13.988282-24.203125 13.988282h-84.226563c-9.988281 0-19.40625-5.222657-24.203124-13.988282-6.675782-12.207031-20.128907-20.175781-35.304688-18.84375-17.453125 1.53125-31.546875 15.667969-33.039062 33.125-1.148438 13.484375 5.046874 25.589844 15.023437 32.789063-9.976563 7.199219-16.171875 19.304687-15.023437 32.789062 1.492187 17.457031 15.585937 31.59375 33.039062 33.125 15.175781 1.328125 28.628906-6.636719 35.304688-18.84375 4.796874-8.765625 14.214843-13.992187 24.203124-13.992187h84.226563c9.988281 0 19.40625 5.226562 24.203125 13.992187 6.675781 12.207031 20.132812 20.171875 35.304688 18.84375 17.457031-1.53125 31.550781-15.667969 33.039062-33.125 1.148438-13.484375-5.046875-25.589843-15.023438-32.789062zm0 0" fill="#e9e9e9"/><path d="m173.859375 263.492188c-30.257813-39.941407-58.585937-26.035157-73.523437-3.886719-6.59375 9.773437-14.40625 10.226562-24.875 12.351562-17.230469 3.5-19.714844 24.515625-15.539063 38.632813 6.015625 20.351562 29.460937 29.050781 48.847656 24.546875zm0 0" fill="#d2614c"/><path d="m317.320312 263.492188c30.257813-39.941407 58.589844-26.035157 73.527344-3.886719 6.589844 9.773437 14.402344 10.226562 24.871094 12.351562 17.230469 3.5 19.714844 24.515625 15.542969 38.632813-6.019531 20.351562-29.460938 29.050781-48.847657 24.546875zm0 0" fill="#d2614c"/><path d="m174.394531 512h-95.351562c0-77.4375 6.179687-264.582031 166.546875-264.582031 160.367187 0 166.550781 187.144531 166.550781 264.582031h-95.355469l-71.195312-19.402344zm0 0" fill="#e9e9e9"/><path d="m317.320312 503.933594c0 2.730468-.183593 5.417968-.535156 8.066406h-142.390625c-.351562-2.648438-.535156-5.335938-.535156-8.066406 0-36.394532 32.109375-65.890625 71.730469-65.890625s71.730468 29.496093 71.730468 65.890625zm0 0" fill="#d2614c"/><g fill="#424952"><path d="m262.796875 358.820312h-34.414063c-6.835937 0-8.75 9.367188-2.472656 12.070313 5.984375 2.578125 12.652344 4.015625 19.679688 4.015625 7.03125 0 13.699218-1.4375 19.679687-4.015625 6.28125-2.703125 4.367188-12.070313-2.472656-12.070313zm0 0"/><path d="m173.109375 338.164062c-4.265625 0-7.726563 3.460938-7.726563 7.726563v13.117187c0 4.269532 3.460938 7.726563 7.726563 7.726563s7.726563-3.457031 7.726563-7.726563v-13.117187c0-4.265625-3.460938-7.726563-7.726563-7.726563zm0 0"/><path d="m318.070312 338.164062c-4.265624 0-7.726562 3.460938-7.726562 7.726563v13.117187c0 4.269532 3.460938 7.726563 7.726562 7.726563 4.269532 0 7.726563-3.457031 7.726563-7.726563v-13.117187c0-4.265625-3.457031-7.726563-7.726563-7.726563zm0 0"/><path d="m282.75 384.703125c-3.210938-2.808594-8.09375-2.480469-10.902344.734375-2.472656 2.828125-6.199218 4.453125-10.21875 4.453125-4.019531 0-7.746094-1.625-10.222656-4.453125-1.441406-1.65625-3.625-2.636719-5.816406-2.636719-2.199219 0-4.367188.976563-5.816406 2.636719-2.476563 2.828125-6.199219 4.453125-10.222657 4.453125-4.019531 0-7.746093-1.625-10.21875-4.453125-2.808593-3.214844-7.691406-3.542969-10.902343-.734375-3.214844 2.8125-3.542969 7.691406-.734376 10.902344 5.410157 6.191406 13.375 9.738281 21.855469 9.738281 5.808594 0 11.371094-1.664062 16.039063-4.699219 4.667968 3.035157 10.230468 4.699219 16.039062 4.699219 8.480469 0 16.445313-3.546875 21.855469-9.738281 2.808594-3.210938 2.480469-8.09375-.734375-10.902344zm0 0"/></g></svg>