<svg height="512px" viewBox="-45 0 512 512" width="512px" xmlns="http://www.w3.org/2000/svg"><path d="m350.988281 84.632812-139.753906-42.316406-139.757813 42.316406s-71.476562 131.746094-71.476562 301.875c0 1.0625.0117188 2.121094.03125 3.167969 1.4375 68.191407 58.035156 122.324219 126.242188 122.324219h169.921874c68.203126 0 124.804688-54.132812 126.238282-122.324219.019531-1.046875.03125-2.105469.03125-3.167969 0-170.128906-71.476563-301.875-71.476563-301.875zm0 0" fill="#eee07d"/><path d="m30.9375 389.675781c-.019531-1.046875-.03125-2.105469-.03125-3.167969 0-170.128906 71.476562-301.875 71.476562-301.875l124.304688-37.636718-15.453125-4.679688-139.757813 42.316406s-71.476562 131.746094-71.476562 301.875c0 1.0625.0117188 2.121094.03125 3.167969 1.4375 68.191407 58.035156 122.324219 126.242188 122.324219h30.90625c-68.207032 0-124.808594-54.132812-126.242188-122.324219zm0 0" fill="#e1ba68"/><path d="m315.40625 0h-208.347656c-19.648438 0-35.578125 15.929688-35.578125 35.582031v49.050781h279.507812v-49.050781c0-19.652343-15.929687-35.582031-35.582031-35.582031zm0 0" fill="#80c0e4"/><path d="m137.964844 0h-30.90625c-19.648438 0-35.578125 15.929688-35.578125 35.582031v49.050781h30.902343v-49.050781c0-19.652343 15.929688-35.582031 35.582032-35.582031zm0 0" fill="#5ba0d3"/><path d="m300.484375 124.75h-178.5c-5.707031 0-10.335937 4.625-10.335937 10.332031v25.226563c0 5.707031 4.628906 10.332031 10.335937 10.332031h178.5c5.707031 0 10.332031-4.625 10.332031-10.332031v-25.226563c0-5.707031-4.625-10.332031-10.332031-10.332031zm0 0" fill="#e1ba68"/><path d="m243.457031 254.613281c8.4375-14.433593 24.601563-31.371093 43.105469-27.039062 17.070312 4 21.0625 23.078125 27.835938 36.640625 4.003906 8.015625 11.601562 15.054687 13.738281 23.90625 4.90625 20.316406-24.695313 26.722656-38.863281 22.53125-10.902344-3.226563-21.113282-10-29.253907-17.871094zm0 0" fill="#d2614c"/><path d="m130.75 254.613281c-8.4375-14.433593-24.601562-31.371093-43.109375-27.039062-17.066406 4-21.058594 23.078125-27.832031 36.640625-4.003906 8.015625-11.601563 15.054687-13.738282 23.90625-4.910156 20.316406 24.695313 26.722656 38.863282 22.53125 10.902344-3.226563 21.113281-10 29.253906-17.871094zm0 0" fill="#d2614c"/><path d="m291.414062 342.40625c0 57.605469-46.703124 104.308594-104.3125 104.308594-57.609374 0-104.308593-46.703125-104.308593-104.308594 0-57.609375 46.699219-104.3125 104.308593-104.3125 57.609376 0 104.3125 46.703125 104.3125 104.3125zm0 0" fill="#e1ba68"/><g fill="#424952"><path d="m135.84375 323.347656c-4.265625 0-7.726562 3.460938-7.726562 7.726563v9.277343c0 4.269532 3.460937 7.726563 7.726562 7.726563 4.269531 0 7.726562-3.457031 7.726562-7.726563v-9.277343c0-4.265625-3.457031-7.726563-7.726562-7.726563zm0 0"/><path d="m238.359375 323.347656c-4.265625 0-7.722656 3.460938-7.722656 7.726563v9.277343c0 4.269532 3.457031 7.726563 7.722656 7.726563 4.269531 0 7.726563-3.457031 7.726563-7.726563v-9.277343c0-4.265625-3.457032-7.726563-7.726563-7.726563zm0 0"/><path d="m173.1875 343.878906c4.230469 1.820313 8.945312 2.839844 13.917969 2.839844 4.96875 0 9.683593-1.019531 13.914062-2.839844 4.441407-1.914062 3.089844-8.535156-1.746093-8.535156h-24.339844c-4.835938 0-6.1875 6.621094-1.746094 8.535156zm0 0"/><path d="m214.871094 351.941406c-3.210938-2.808594-8.09375-2.480468-10.902344.734375-1.320312 1.507813-3.332031 2.375-5.523438 2.375-2.191406 0-4.203124-.867187-5.523437-2.375-1.460937-1.667969-3.613281-2.636719-5.824219-2.636719-2.203125 0-4.359375.972657-5.8125 2.636719-1.320312 1.507813-3.332031 2.375-5.523437 2.375-2.191407 0-4.203125-.867187-5.523438-2.375-2.808593-3.214843-7.691406-3.542969-10.902343-.734375-3.214844 2.808594-3.542969 7.691406-.730469 10.902344 4.253906 4.871094 10.507812 7.660156 17.15625 7.660156 4.050781 0 7.949219-1.039062 11.34375-2.949218 3.390625 1.910156 7.289062 2.949218 11.339843 2.949218 6.648438 0 12.90625-2.789062 17.160157-7.660156 2.808593-3.210938 2.480469-8.09375-.734375-10.902344zm0 0"/></g><path d="m321.121094 378.957031h59.410156c4.269531 0 7.726562-3.457031 7.726562-7.726562 0-4.265625-3.457031-7.726563-7.726562-7.726563h-59.410156c-4.269532 0-7.726563 3.460938-7.726563 7.726563 0 4.269531 3.457031 7.726562 7.726563 7.726562zm0 0" fill="#e1ba68"/><path d="m380.53125 391.863281h-59.410156c-4.269532 0-7.726563 3.457031-7.726563 7.726563 0 4.265625 3.457031 7.726562 7.726563 7.726562h59.410156c4.269531 0 7.726562-3.460937 7.726562-7.726562 0-4.269532-3.457031-7.726563-7.726562-7.726563zm0 0" fill="#e1ba68"/><path d="m380.53125 420.21875h-59.410156c-4.269532 0-7.726563 3.457031-7.726563 7.726562 0 4.265626 3.457031 7.726563 7.726563 7.726563h59.410156c4.269531 0 7.726562-3.460937 7.726562-7.726563 0-4.269531-3.457031-7.726562-7.726562-7.726562zm0 0" fill="#e1ba68"/></svg>