<svg height="512pt" viewBox="0 -35 512.00103 512" width="512pt" xmlns="http://www.w3.org/2000/svg"><path d="m393.964844 101.59375c22.746094-37.9375-20.375-81.058594-58.3125-58.3125.734375-44.226562-58.171875-60.011719-79.652344-21.339844-21.480469-38.671875-80.386719-22.886718-79.652344 21.339844-37.9375-22.746094-81.058594 20.375-58.3125 58.3125-44.226562-.730469-60.011718 58.171875-21.34375 79.652344l159.308594 21.007812 159.304688-21.007812c38.671874-21.480469 22.886718-80.386719-21.339844-79.652344zm0 0" fill="#e08778"/><path d="m146.082031 95.019531c-10.136719-23.371093 3.257813-46.632812 23.734375-54.988281-36.113281-14.582031-73.230468 25.789062-51.78125 61.5625-44.226562-.730469-60.011718 58.171875-21.34375 79.652344l159.308594 21.007812 15.453125-2.035156-143.855469-18.972656c-37.835937-21.019532-30.714844-72.898438 11.046875-74.433594 1.867188-.070312 3.664063-.742188 5.101563-1.933594 2.886718-2.398437 3.832031-6.414062 2.335937-9.859375zm0 0" fill="#d2614c"/><g fill="#424952"><path d="m183.625 118.65625c-4.265625 0-7.726562-3.460938-7.726562-7.726562v-13.097657c0-4.269531 3.460937-7.726562 7.726562-7.726562 4.269531 0 7.726562 3.457031 7.726562 7.726562v13.097657c0 4.269531-3.457031 7.726562-7.726562 7.726562zm0 0"/><path d="m328.375 118.65625c-4.269531 0-7.726562-3.460938-7.726562-7.726562v-13.097657c0-4.269531 3.457031-7.726562 7.726562-7.726562 4.265625 0 7.726562 3.457031 7.726562 7.726562v13.097657c0 4.269531-3.460937 7.726562-7.726562 7.726562zm0 0"/><path d="m256 125.648438c-9.191406 0-17.824219-3.84375-23.679688-10.546876-2.808593-3.210937-2.480468-8.09375.730469-10.902343 3.210938-2.804688 8.09375-2.480469 10.902344.734375 2.921875 3.34375 7.3125 5.261718 12.046875 5.261718s9.121094-1.917968 12.042969-5.261718c2.808593-3.214844 7.691406-3.539063 10.90625-.734375 3.210937 2.808593 3.539062 7.691406.730469 10.902343-5.855469 6.703126-14.488282 10.546876-23.679688 10.546876zm0 0"/></g><path d="m34.207031 374.5625s-4.785156-112.820312 61.75-193.316406h320.085938c66.535156 80.496094 61.75 193.316406 61.75 193.316406l-221.792969 34.207031zm0 0" fill="#80c0e4"/><path d="m65.113281 374.5625s-4.785156-112.820312 61.746094-193.316406h-30.902344c-66.535156 80.496094-61.75 193.316406-61.75 193.316406l221.792969 34.207031 15.453125-2.382812zm0 0" fill="#5ba0d3"/><path d="m376.21875 276.382812c7.558594-5.453124 12.253906-14.625 11.382812-24.839843-1.128906-13.230469-11.808593-23.9375-25.03125-25.097657-11.496093-1.007812-21.691406 5.027344-26.75 14.277344-3.632812 6.636719-10.769531 10.597656-18.339843 10.597656h-122.960938c-7.570312 0-14.707031-3.960937-18.339843-10.597656-5.058594-9.25-15.25-15.285156-26.746094-14.277344-13.226563 1.160157-23.90625 11.867188-25.035156 25.097657-.871094 10.214843 3.824218 19.386719 11.382812 24.839843-7.558594 5.457032-12.253906 14.628907-11.382812 24.84375 1.128906 13.226563 11.808593 23.9375 25.035156 25.097657 11.496094 1.007812 21.6875-5.027344 26.746094-14.277344 3.632812-6.640625 10.769531-10.597656 18.339843-10.597656h122.960938c7.570312 0 14.707031 3.957031 18.339843 10.597656 5.058594 9.25 15.25 15.285156 26.746094 14.277344 13.226563-1.160157 23.90625-11.871094 25.035156-25.097657.871094-10.214843-3.824218-19.386718-11.382812-24.84375zm0 0" fill="#e9e9e9"/><path d="m477.792969 374.5625h-443.585938c-18.890625 0-34.207031 15.316406-34.207031 34.207031s15.316406 34.207031 34.207031 34.207031h443.585938c18.894531 0 34.207031-15.316406 34.207031-34.207031s-15.316406-34.207031-34.207031-34.207031zm0 0" fill="#e1738c"/><path d="m30.90625 408.769531c0-18.890625 15.3125-34.207031 34.207031-34.207031h-30.90625c-18.890625 0-34.207031 15.316406-34.207031 34.207031s15.316406 34.207031 34.207031 34.207031h30.90625c-18.894531 0-34.207031-15.316406-34.207031-34.207031zm0 0" fill="#d74a6c"/></svg>