<svg height="511pt" viewBox="0 -7 511.99967 511" width="511pt" xmlns="http://www.w3.org/2000/svg"><path d="m188.574219 422.945312c-39.328125-3.628906-74.890625-3.132812-97.9375-.679687l4.285156 40.300781c21.09375-2.246094 55.46875-2.613281 93.335937 1.09375l18.953126-16.785156zm0 0" fill="#d3d2d8"/><path d="m477.632812 438.40625c-29.347656 39.035156-72.355468 59.792969-119.667968 59.792969-20.300782 0-41.394532-3.820313-62.550782-11.660157-33.429687-12.382812-71.808593-19.402343-107.15625-22.878906.8125-12.035156 1.25-26.613281.316407-40.714844 39.460937 3.648438 82.710937 11.449219 120.914062 25.601563 16.65625 6.160156 33.027344 9.1875 48.609375 9.1875 34.738282 0 65.597656-15.023437 87.148438-43.683594 18.070312-24.03125 27.34375-55.621093 26.117187-88.941406-1.386719-37.769531-15.957031-76.480469-42.136719-111.917969l32.601563-24.082031c31.042969 42.042969 48.347656 88.554687 50.039063 134.511719 1.558593 42.578125-10.597657 83.347656-34.234376 114.785156zm0 0" fill="#e08778"/><path d="m258.960938.5h-48.671876c-15.519531 0-28.820312 11.085938-31.617187 26.347656l-5.300781 28.925782h111.515625v-29.347657c0-14.320312-11.609375-25.925781-25.925781-25.925781zm0 0" fill="#5ba0d3"/><path d="m461.828125 189.109375-32.601563 24.082031c22.445313 30.386719 36.347657 63.175782 40.734376 95.714844 11.0625-20.835938 18.707031-43.746094 22.1875-67.988281-7.871094-17.761719-18.011719-35.136719-30.320313-51.808594zm0 0" fill="#d2614c"/><path d="m284.886719 32.527344c-240.902344 0-284.886719 118.660156-284.886719 178.5 0 59.84375 54.820312 76.957031 109.753906 34.644531 16.132813 82 88.402344 143.855469 175.132813 143.855469 98.582031 0 178.5-79.914063 178.5-178.5 0-98.582032-79.917969-178.5-178.5-178.5zm-149.894531 81.554687c-14.65625 22.617188-24.332032 48.761719-27.476563 76.882813-.976563 8.71875-5.703125 16.605468-13.015625 21.453125-7.980469 5.289062-16.332031 9.910156-25.113281 13.167969-12.039063 4.460937-28.863281.875-28.863281-14.570313.003906-14.023437 3.789062-50.019531 38.753906-81.609375 12.210937-11.035156 27.140625-20.507812 44.582031-28.367188 8.160156-3.679687 16.003906 5.53125 11.132813 13.042969zm0 0" fill="#80c0e4"/><path d="m284.886719 343.941406c-73.289063 0-132.914063-59.625-132.914063-132.914062 0-73.285156 59.625-132.910156 132.914063-132.910156 73.285156 0 132.910156 59.625 132.910156 132.910156 0 73.289062-59.625 132.914062-132.910156 132.914062zm0 0" fill="#5ba0d3"/><g fill="#424952"><path d="m213.710938 221.757812c-4.265626 0-7.726563-3.460937-7.726563-7.726562v-12.882812c0-4.265626 3.460937-7.722657 7.726563-7.722657 4.265624 0 7.726562 3.457031 7.726562 7.722657v12.882812c0 4.265625-3.460938 7.726562-7.726562 7.726562zm0 0"/><path d="m356.058594 221.757812c-4.265625 0-7.722656-3.460937-7.722656-7.726562v-12.882812c0-4.265626 3.457031-7.722657 7.722656-7.722657 4.269531 0 7.726562 3.457031 7.726562 7.722657v12.882812c0 4.265625-3.457031 7.726562-7.726562 7.726562zm0 0"/><path d="m284.886719 228.632812c-9.078125 0-17.601563-3.792968-23.386719-10.414062-2.808594-3.210938-2.480469-8.089844.734375-10.902344 3.210937-2.808594 8.089844-2.480468 10.902344.734375 2.847656 3.257813 7.132812 5.128907 11.75 5.128907 4.617187 0 8.898437-1.871094 11.746093-5.128907 2.808594-3.214843 7.691407-3.542969 10.902344-.734375 3.214844 2.808594 3.542969 7.691406.734375 10.902344-5.785156 6.621094-14.308593 10.414062-23.382812 10.414062zm0 0"/></g><path d="m135.46875 442.417969c0 23.574219-19.109375 42.6875-42.6875 42.6875-23.574219 0-42.6875-19.113281-42.6875-42.6875 0-23.578125 19.113281-42.6875 42.6875-42.6875 23.578125 0 42.6875 19.109375 42.6875 42.6875zm0 0" fill="#8895a2"/><path d="m107.824219 442.417969c0 8.308593-6.734375 15.042969-15.042969 15.042969s-15.042969-6.734376-15.042969-15.042969c0-8.308594 6.734375-15.046875 15.042969-15.046875s15.042969 6.738281 15.042969 15.046875zm0 0" fill="#d3d2d8"/></svg>