<svg height="512pt" viewBox="0 0 512 512" width="512pt" xmlns="http://www.w3.org/2000/svg"><path d="m512 256c0 141.386719-114.613281 256-256 256s-256-114.613281-256-256 114.613281-256 256-256 256 114.613281 256 256zm0 0" fill="#7cdac2"/><path d="m30.90625 256c0-136.195312 106.359375-247.53125 240.546875-255.523438-5.113281-.304687-10.261719-.476562-15.453125-.476562-141.386719 0-256 114.613281-256 256s114.613281 256 256 256c5.191406 0 10.339844-.171875 15.453125-.476562-134.1875-7.992188-240.546875-119.328126-240.546875-255.523438zm0 0" fill="#6ec2a1"/><g fill="#e9e9e9"><path d="m419.152344 474.679688c-5.769532 0-11.570313-1.960938-16.324219-5.976563-62.796875-53.046875-98.816406-130.574219-98.816406-212.703125s36.019531-159.65625 98.816406-212.703125c10.679687-9.023437 26.65625-7.675781 35.679687 3.003906 9.023438 10.683594 7.675782 26.660157-3.003906 35.679688-51.382812 43.402343-80.851562 106.832031-80.851562 174.019531s29.46875 130.617188 80.851562 174.019531c10.683594 9.023438 12.027344 24.996094 3.003906 35.679688-5.007812 5.925781-12.15625 8.980469-19.355468 8.980469zm0 0"/><path d="m92.847656 474.679688c5.769532 0 11.570313-1.960938 16.324219-5.976563 62.796875-53.046875 98.816406-130.574219 98.816406-212.703125s-36.019531-159.65625-98.816406-212.703125c-10.679687-9.023437-26.65625-7.675781-35.679687 3.003906-9.023438 10.683594-7.675782 26.660157 3.003906 35.679688 51.382812 43.402343 80.851562 106.832031 80.851562 174.019531s-29.46875 130.617188-80.851562 174.019531c-10.683594 9.023438-12.027344 24.996094-3.003906 35.679688 5.007812 5.925781 12.15625 8.980469 19.355468 8.980469zm0 0"/></g></svg>