<svg height="512pt" viewBox="-67 0 512 512" width="512pt" xmlns="http://www.w3.org/2000/svg"><path d="m321.214844 311.21875-132.441406-66.269531-132.445313 66.269531c-23.171875 39.445312-47.097656 112.125 26.285156 184.585938 10.539063 10.40625 24.789063 16.195312 39.597657 16.195312h133.117187c14.808594 0 29.0625-5.789062 39.597656-16.195312 73.386719-72.460938 49.460938-145.140626 26.289063-184.585938zm0 0" fill="#59636f"/><path d="m321.214844 311.21875c-12.949219 6.667969-27.691406 12.046875-44.191406 16.09375-25.027344 6.132812-54.722657 9.246094-88.25 9.246094-33.53125 0-63.222657-3.113282-88.25-9.246094-16.503907-4.046875-31.246094-9.425781-44.191407-16.09375 11.082031-18.875 21.984375-30.132812 21.984375-30.132812h220.910156s10.90625 11.257812 21.988282 30.132812zm0 0" fill="#e1738c"/><path d="m94.699219 28.15625s-28.125-24.84375-71.867188-18.460938c-10.140625 1.480469-18.1875 9.257813-20.191406 19.304688-4.9375 24.792969-7.484375 74.992188 35.5 121.976562zm0 0" fill="#424952"/><path d="m282.84375 28.15625s28.125-24.84375 71.871094-18.460938c10.136718 1.480469 18.183594 9.257813 20.1875 19.304688 4.9375 24.792969 7.484375 74.992188-35.5 121.976562zm0 0" fill="#424952"/><path d="m310.335938 24.949219c-2.800782-2.828125-5.699219-5.523438-8.691407-8.089844-12.035156 5.332031-18.800781 11.296875-18.800781 11.296875l56.558594 122.820312c7.480468-8.175781 13.578125-16.449218 18.527344-24.667968-3.921876-26.398438-15.199219-68.664063-47.59375-101.359375zm0 0" fill="#383d43"/><path d="m19.613281 126.308594c4.953125 8.21875 11.050781 16.492187 18.527344 24.667968l56.5625-122.820312s-6.769531-5.964844-18.804687-11.296875c-2.988282 2.566406-5.886719 5.265625-8.6875 8.089844-32.398438 32.695312-43.675782 74.964843-47.597657 101.359375zm0 0" fill="#383d43"/><path d="m42.386719 43.25h-.078125c-4.746094.003906-8.703125 3.660156-9.195313 8.375-2.300781 21.933594.738281 55.886719 30.382813 88.289062l18.679687-83.746093c-.714843-.59375-15.808593-12.917969-39.789062-12.917969zm0 0" fill="#e9e9e9"/><path d="m335.160156 43.25h.078125c4.742188.003906 8.699219 3.660156 9.191407 8.375 2.300781 21.933594-.738282 55.886719-30.382813 88.289062l-18.679687-83.746093c.714843-.59375 15.8125-12.917969 39.792968-12.917969zm0 0" fill="#e9e9e9"/><path d="m326.175781 43.839844c-18.714843 2.453125-30.1875 11.8125-30.808593 12.328125l18.679687 83.746093c19.9375-21.792968 27.832031-44.28125 30.171875-63.347656-4.570312-10.886718-10.457031-22.03125-18.042969-32.726562zm0 0" fill="#d3d2d8"/><path d="m33.328125 76.570312c2.335937 19.066407 10.230469 41.550782 30.167969 63.34375l18.679687-83.746093c-.621093-.515625-12.09375-9.875-30.808593-12.328125-7.585938 10.695312-13.472657 21.839844-18.039063 32.730468zm0 0" fill="#d3d2d8"/><path d="m339.40625 150.980469s1.394531-150.980469-150.632812-150.980469c-152.03125 0-150.636719 150.980469-150.636719 150.980469s-56.039063 109.523437 71.117187 140.695312c21.097656 5.167969 47.234375 8.1875 79.519532 8.1875 32.28125 0 58.417968-3.019531 79.515624-8.1875 127.15625-31.171875 71.117188-140.695312 71.117188-140.695312zm0 0" fill="#59636f"/><path d="m163.046875 139.113281c-17.601563 6.332031-25.667969 18.894531-29.359375 28.839844-3.386719 9.132813-9.105469 17.175781-16.496094 23.523437-16.878906 14.492188-40.050781 46.609376-7.9375 100.1875v.011719c21.097656 5.167969 47.234375 8.1875 79.519532 8.1875 32.28125 0 58.417968-3.019531 79.515624-8.1875v-.011719c32.113282-53.578124 8.941407-85.699218-7.9375-100.1875-7.390624-6.34375-13.109374-14.390624-16.496093-23.523437-3.6875-9.925781-11.730469-22.464844-29.269531-28.804687l-.089844-.035157zm0 0" fill="#e9e9e9"/><path d="m110.136719 131.585938c-4.269531 0-7.726563 3.460937-7.726563 7.726562v14.234375c0 4.265625 3.457032 7.726563 7.726563 7.726563 4.265625 0 7.726562-3.460938 7.726562-7.726563v-14.234375c0-4.265625-3.460937-7.726562-7.726562-7.726562zm0 0" fill="#383d43"/><path d="m267.40625 131.585938c-4.269531 0-7.726562 3.460937-7.726562 7.726562v14.234375c0 4.265625 3.457031 7.726563 7.726562 7.726563s7.726562-3.460938 7.726562-7.726563v-14.234375c0-4.265625-3.457031-7.726562-7.726562-7.726562zm0 0" fill="#383d43"/><g fill="#424952"><path d="m226.503906 179.359375c-3.214844-2.808594-8.097656-2.484375-10.902344.730469-2.546874 2.910156-6.375 4.582031-10.507812 4.582031-4.128906 0-7.960938-1.671875-10.503906-4.582031-1.429688-1.632813-3.65625-2.632813-5.824219-2.632813-2.203125 0-4.363281.972657-5.808594 2.632813-2.546875 2.910156-6.375 4.582031-10.507812 4.582031-4.128907 0-7.960938-1.671875-10.503907-4.582031-2.808593-3.210938-7.691406-3.539063-10.902343-.730469-3.214844 2.804687-3.542969 7.6875-.734375 10.902344 5.480468 6.265625 13.550781 9.859375 22.140625 9.859375 5.914062 0 11.578125-1.699219 16.324219-4.804688 4.742187 3.105469 10.410156 4.804688 16.324218 4.804688 8.589844 0 16.660156-3.59375 22.136719-9.859375 2.808594-3.214844 2.480469-8.09375-.730469-10.902344zm0 0"/><path d="m110.136719 403.882812c-4.269531 0-7.726563 3.460938-7.726563 7.726563 0 49.480469 18.949219 85.988281 27.839844 100.390625h18.078125c-.246094-.898438-.65625-1.769531-1.246094-2.5625-.292969-.394531-29.21875-39.921875-29.21875-97.828125 0-4.265625-3.460937-7.726563-7.726562-7.726563zm0 0"/><path d="m188.773438 403.882812c-4.269532 0-7.726563 3.460938-7.726563 7.726563v100.390625h15.453125v-100.390625c0-4.265625-3.460938-7.726563-7.726562-7.726563zm0 0"/></g><path d="m207.191406 347.042969c0 10.175781-8.246094 18.421875-18.417968 18.421875-10.175782 0-18.421876-8.246094-18.421876-18.421875 0-10.171875 8.246094-18.417969 18.421876-18.417969 10.171874 0 18.417968 8.246094 18.417968 18.417969zm0 0" fill="#eee07d"/><path d="m188.773438 135.074219c-10.289063 0-18.753907 1.53125-25.726563 4.039062 1.941406 12.460938 12.71875 21.996094 25.726563 21.996094 13.003906 0 23.78125-9.535156 25.722656-21.996094-6.972656-2.507812-15.4375-4.039062-25.722656-4.039062zm0 0" fill="#424952"/><path d="m259.679688 411.609375c0 57.804687-28.820313 97.289063-29.214844 97.824219-.59375.792968-1.003906 1.667968-1.253906 2.566406h18.085937c8.886719-14.402344 27.835937-50.910156 27.835937-100.390625 0-4.265625-3.457031-7.726563-7.726562-7.726563s-7.726562 3.460938-7.726562 7.726563zm0 0" fill="#424952"/></svg>