<svg height="512pt" viewBox="-9 0 512 512.0006" width="512pt" xmlns="http://www.w3.org/2000/svg"><path d="m449.359375 469.527344-23.316406 17.546875h-358.277344l-22.328125-24.460938 12.046875-42.46875 188.589844-37.527343 188.589843 37.527343zm0 0" fill="#eee07d"/><path d="m434.664062 420.144531h-377.179687l46.222656-162.949219h282.445313zm0 0" fill="#7cdac2"/><path d="m246.90625 0c-21.875 0-39.605469 17.730469-39.605469 39.601562v201.792969h79.207031v-201.792969c0-21.871093-17.730468-39.601562-39.601562-39.601562zm14.136719 72.953125c0 7.808594-6.332031 14.136719-14.136719 14.136719-7.8125 0-14.140625-6.328125-14.140625-14.136719v-18.253906c0-7.808594 6.328125-14.140625 14.140625-14.140625 7.808594 0 14.136719 6.332031 14.136719 14.140625zm0 0" fill="#7cdac2"/><path d="m370.710938 407.421875 23.148437 79.652344h32.183594l23.316406-17.546875-14.695313-49.382813zm0 0" fill="#e1ba68"/><path d="m123.199219 407.070312-65.714844 13.074219-12.046875 42.46875 22.328125 24.460938h32.183594zm0 0" fill="#e1ba68"/><path d="m386.152344 257.195312h-282.445313l-46.222656 162.949219h61.914063l31.484374-108.339843h192.042969l31.484375 108.339843h60.253906zm0 0" fill="#6ec2a1"/><path d="m207.300781 180.863281h79.207031v60.53125h-79.207031zm0 0" fill="#6ec2a1"/><path d="m459.21875 512c-14.984375 0-28.785156-9.816406-33.175781-24.929688l-56.511719-194.464843c-2.003906-6.894531-8.414062-11.707031-15.59375-11.707031h-214.066406c-7.175782 0-13.589844 4.8125-15.59375 11.707031l-56.511719 194.464843c-5.328125 18.332032-24.507813 28.875-42.835937 23.546876-18.332032-5.324219-28.875-24.503907-23.546876-42.835938l56.511719-194.46875c5.199219-17.890625 15.820313-33.257812 30.722657-44.445312 14.898437-11.1875 32.621093-17.101563 51.253906-17.101563h214.066406c18.628906 0 36.355469 5.914063 51.253906 17.101563 14.898438 11.1875 25.523438 26.554687 30.722656 44.445312 0 0 56.355469 193.933594 56.511719 194.46875 6.296875 21.660156-10.714843 44.21875-33.207031 44.21875zm0 0" fill="#7cdac2"/><g fill="#424952"><path d="m170.9375 260.472656c-4.265625 0-7.726562-3.460937-7.726562-7.726562v-13.75c0-4.265625 3.460937-7.726563 7.726562-7.726563 4.269531 0 7.726562 3.460938 7.726562 7.726563v13.75c0 4.265625-3.457031 7.726562-7.726562 7.726562zm0 0"/><path d="m322.871094 260.472656c-4.269532 0-7.726563-3.460937-7.726563-7.726562v-13.75c0-4.265625 3.457031-7.726563 7.726563-7.726563 4.265625 0 7.726562 3.460938 7.726562 7.726563v13.75c0 4.265625-3.460937 7.726562-7.726562 7.726562zm0 0"/><path d="m246.90625 267.8125c-9.539062 0-18.492188-3.988281-24.570312-10.9375-2.804688-3.214844-2.480469-8.09375.734374-10.902344 3.214844-2.808594 8.09375-2.480468 10.902344.730469 3.140625 3.59375 7.855469 5.65625 12.933594 5.65625 5.074219 0 9.789062-2.0625 12.929688-5.65625 2.808593-3.210937 7.691406-3.539063 10.902343-.730469 3.214844 2.808594 3.542969 7.6875.734375 10.902344-6.078125 6.949219-15.03125 10.9375-24.566406 10.9375zm0 0"/></g></svg>