<svg height="512px" viewBox="0 -11 512 512" width="512px" xmlns="http://www.w3.org/2000/svg"><path d="m95.863281 69.957031h-24.261719c-10.59375 0-19.179687 8.585938-19.179687 19.179688v45.023437h62.625v-45.023437c0-10.59375-8.589844-19.179688-19.183594-19.179688zm0 0" fill="#e9e9e9"/><path d="m99.1875 70.261719c-1.082031-.1875-2.1875-.304688-3.324219-.304688h-24.261719c-10.59375 0-19.179687 8.585938-19.179687 19.179688v45.023437h30.90625v-45.023437c-.003906-9.457031 6.851563-17.296875 15.859375-18.875zm0 0" fill="#d3d2d8"/><path d="m416.136719 69.957031h24.261719c10.59375 0 19.179687 8.585938 19.179687 19.179688v45.023437h-62.625v-45.023437c0-10.59375 8.589844-19.179688 19.183594-19.179688zm0 0" fill="#e9e9e9"/><path d="m443.71875 70.261719c-1.078125-.1875-2.183594-.304688-3.320312-.304688h-24.261719c-10.59375 0-19.179688 8.585938-19.179688 19.179688v45.023437h30.902344v-45.023437c0-9.457031 6.851563-17.296875 15.859375-18.875zm0 0" fill="#d3d2d8"/><path d="m360.3125 139.878906h-48.609375v-70.542968c0-11.429688-9.296875-20.730469-20.730469-20.730469h-69.949218c-11.429688 0-20.730469 9.300781-20.730469 20.730469v70.542968h-48.605469v-70.542968c0-38.230469 31.105469-69.335938 69.335938-69.335938h69.949218c38.234375 0 69.335938 31.105469 69.335938 69.335938v70.542968zm0 0" fill="#e1738c"/><path d="m151.6875 81.652344h48.609375v58.226562h-48.609375zm0 0" fill="#d74a6c"/><path d="m311.703125 81.652344h48.609375v58.226562h-48.609375zm0 0" fill="#d74a6c"/><path d="m459.582031 112.554688h-407.164062c-28.949219 0-52.417969 23.472656-52.417969 52.421874v271.695313c0 28.953125 23.46875 52.421875 52.417969 52.421875h407.164062c28.949219 0 52.417969-23.472656 52.417969-52.421875v-271.695313c0-28.949218-23.46875-52.421874-52.417969-52.421874zm0 0" fill="#7cdac2"/><path d="m64.808594 177.367188h382.378906v246.914062h-382.378906zm0 0" fill="#e9e9e9"/><path d="m64.808594 177.367188h30.90625v246.914062h-30.90625zm0 0" fill="#d3d2d8"/><path d="m319.5625 274.996094h-37.734375v-37.734375c0-6.605469-5.351563-11.960938-11.957031-11.960938h-27.742188c-6.605468 0-11.957031 5.355469-11.957031 11.960938v37.734375h-37.734375c-6.605469 0-11.960938 5.351562-11.960938 11.957031v27.742187c0 6.605469 5.355469 11.957032 11.960938 11.957032h37.734375v37.734375c0 6.605469 5.351563 11.960937 11.957031 11.960937h27.742188c6.601562 0 11.957031-5.355468 11.957031-11.960937v-37.734375h37.734375c6.605469 0 11.960938-5.351563 11.960938-11.957032v-27.742187c0-6.601563-5.355469-11.957031-11.960938-11.957031zm0 0" fill="#e1738c"/></svg>