<svg height="512pt" viewBox="-55 0 512 512.0001" width="512pt" xmlns="http://www.w3.org/2000/svg"><path d="m281.289062 6.675781-1.945312-1.457031c-9.308594-6.957031-22.085938-6.957031-31.394531 0-9.308594 6.960938-22.085938 6.960938-31.394531 0-9.308594-6.957031-22.085938-6.957031-31.394532 0-9.308594 6.960938-22.085937 6.960938-31.394531 0-9.308594-6.957031-22.085937-6.957031-31.394531 0l-1.945313 1.457031c-9.074219 6.785157-12.804687 18.644531-9.136719 29.363281 2.347657 6.863282 5.800782 14.613282 10.808594 21.519532 4.9375 6.816406 12.835938 10.863281 21.253906 10.863281l57.507813 22.027344 57.503906-22.027344c8.417969 0 16.316407-4.046875 21.253907-10.863281 5.007812-6.90625 8.460937-14.65625 10.808593-21.519532 3.667969-10.71875-.066406-22.578124-9.136719-29.363281zm0 0" fill="#cbe7f8"/><path d="m174.257812 68.421875c-8.417968 0-16.316406-4.046875-21.257812-10.863281-5.003906-6.90625-8.460938-14.65625-10.808594-21.519532-3.664062-10.71875.066406-22.578124 9.140625-29.363281l1.945313-1.457031c.078125-.058594.160156-.105469.242187-.164062-9.285156-6.785157-21.921875-6.734376-31.148437.164062l-1.945313 1.457031c-9.074219 6.785157-12.804687 18.644531-9.136719 29.363281 2.347657 6.863282 5.800782 14.613282 10.808594 21.519532 4.9375 6.816406 12.835938 10.863281 21.253906 10.863281l57.507813 22.027344 15.449219-5.921875zm0 0" fill="#80c0e4"/><path d="m143.351562 112.476562s-143.351562 54.179688-143.351562 228.367188c0 174.191406 200.859375 171.152344 200.859375 171.152344s200.855469 3.039062 200.855469-171.152344c0-174.1875-143.351563-228.367188-143.351563-228.367188l-57.503906-22.027343zm0 0" fill="#cbe7f8"/><path d="m258.363281 68.421875h-115.011719c-12.164062 0-22.027343 9.863281-22.027343 22.027344 0 12.164062 9.863281 22.027343 22.027343 22.027343h115.011719c12.164063 0 22.027344-9.863281 22.027344-22.027343 0-12.164063-9.863281-22.027344-22.027344-22.027344zm0 0" fill="#e9a577"/><path d="m152.230469 90.449219c0-12.164063 9.863281-22.027344 22.027343-22.027344h-30.90625c-12.164062 0-22.027343 9.863281-22.027343 22.027344 0 12.164062 9.863281 22.027343 22.027343 22.027343h30.90625c-12.164062 0-22.027343-9.863281-22.027343-22.027343zm0 0" fill="#e48949"/><path d="m307.140625 188.566406c-.085937-.085937-.171875-.175781-.261719-.265625-11.449218-11.546875-27.6875-16.847656-43.828125-14.871093-62.953125 7.714843-80.589843-30.679688-138.710937-7.578126-4.960938 1.972657-9.605469 4.695313-13.730469 8.085938-5.253906 4.320312-10.660156 9.183594-16.035156 14.628906-39.234375 39.71875-59.128907 90.949219-59.128907 152.277344 0 55.824219 24.339844 93.882812 74.414063 116.355469 42.632813 19.132812 88.402344 19.355469 90.328125 19.355469h.144531l.214844-.015626.746094.015626h.234375c1.925781 0 47.6875-.222657 90.320312-19.351563 50.078125-22.472656 74.421875-60.53125 74.421875-116.359375 0-61.324219-19.894531-112.558594-59.128906-152.277344zm0 0" fill="#80c0e4"/><path d="m140.765625 457.199219c-50.074219-22.46875-74.414063-60.53125-74.414063-116.355469 0-61.324219 19.890626-112.558594 59.125-152.277344 5.378907-5.445312 10.785157-10.308594 16.039063-14.628906 4.125-3.390625 8.765625-6.109375 13.730469-8.082031 7.351562-2.925781 14.054687-4.859375 20.285156-6.03125-14.476562-2.632813-30.1875-2.316407-51.191406 6.03125-4.964844 1.972656-9.605469 4.691406-13.730469 8.082031-5.253906 4.320312-10.660156 9.1875-16.035156 14.628906-39.234375 39.71875-59.128907 90.953125-59.128907 152.277344 0 55.824219 24.339844 93.886719 74.414063 116.355469 42.632813 19.132812 88.402344 19.355469 90.328125 19.355469h.144531l.214844-.015626.746094.015626h.234375c.640625 0 6.152344-.027344 14.785156-.765626-17.289062-1.480468-47.113281-5.828124-75.546875-18.589843zm0 0" fill="#5ba0d3"/><path d="m94.601562 350.632812c5.371094-5.683593 5.371094-14.570312 0-20.257812-5.367187-5.6875-5.367187-14.574219 0-20.261719l2.089844-2.207031c4.84375-5.132812 12.660156-6.152344 18.601563-2.351562 11.269531 7.210937 28.960937 22.902343 42.761719 55.207031-13.800782 32.308593-31.488282 48-42.761719 55.207031-5.941407 3.800781-13.757813 2.78125-18.601563-2.347656l-2.089844-2.210938c-5.367187-5.683594-5.367187-14.574218 0-20.257812 5.371094-5.6875 5.371094-14.574219 0-20.261719-5.367187-5.683594-5.367187-14.570313 0-20.257813zm0 0" fill="#e9a577"/><path d="m115.292969 395.367188c-5.941407 3.800781-13.757813 2.78125-18.601563-2.347657l-1.933594-2.046875c-.054687.058594-.097656.121094-.152343.179688-5.371094 5.683594-5.371094 14.574218 0 20.257812l2.085937 2.210938c4.84375 5.128906 12.660156 6.152344 18.601563 2.347656 11.269531-7.207031 28.960937-22.898438 42.757812-55.203125-1.554687-3.648437-3.164062-7.070313-4.804687-10.304687-12.90625 25.429687-27.953125 38.511718-37.953125 44.90625zm0 0" fill="#e48949"/><path d="m221.425781 297.550781s-5.667969-24.957031-39.496093-26.445312c-4.578126-.199219-8.042969 4.039062-6.921876 8.480469 1.859376 7.359374 3.191407 18.796874-1.296874 30.910156zm0 0" fill="#e9a577"/><path d="m261.613281 420.210938c-9.976562 2.59375-20.78125 4.011718-32.066406 4.011718-50.523437 0-91.480469-28.40625-91.480469-63.457031s40.957032-63.46875 91.480469-63.46875c11.292969 0 22.097656 1.417969 32.074219 4.011719zm0 0" fill="#e48949"/><path d="m214.359375 360.761719c0-8.949219-11.03125-16.207031-24.640625-16.207031-13.613281 0-24.644531 7.257812-24.644531 16.207031s11.03125 16.203125 24.644531 16.203125c13.609375 0 24.640625-7.253906 24.640625-16.203125zm0 0" fill="#e9a577"/><path d="m261.613281 399.609375c-9.976562 2.59375-20.78125 4.011719-32.066406 4.011719-45.46875 0-83.175781-23.007813-90.273437-53.15625-.386719 1.652344-.683594 3.328125-.886719 5.023437-.003907.035157-.011719.066407-.015625.101563-.699219 6.023437-.160156 12.152344 1.554687 17.964844 4.128907 13.992187 14.550781 25.242187 26.503907 33.144531 18.484374 12.21875 41.144531 17.523437 63.117187 17.523437 11.28125 0 22.085937-1.417968 32.0625-4.011718.003906 0 .003906-20.601563.003906-20.601563zm0 0" fill="#e06f1c"/><path d="m314.128906 373.121094 6.480469-6.304688c.273437-1.992187.429687-4.007812.429687-6.050781 0-27.222656-24.710937-50.445313-59.417968-59.457031-15.21875 15.210937-24.640625 36.234375-24.640625 59.457031s9.410156 44.238281 24.632812 59.449219c25.152344-6.523438 45.046875-20.515625 54.101563-38.082032zm0 0" fill="#e9a577"/><path d="m311.242188 368.746094c-10.308594 14.152344-28.03125 25.261718-49.628907 30.863281-4.394531 1.140625-8.953125 2.039063-13.636719 2.707031 3.742188 6.566406 8.324219 12.589844 13.636719 17.898438 25.152344-6.523438 45.046875-20.515625 54.101563-38.082032l-1.585938-9.011718zm0 0" fill="#e48949"/><path d="m279.351562 364.671875c-4.269531 0-7.726562-3.457031-7.726562-7.726563v-12.875c0-4.265624 3.457031-7.726562 7.726562-7.726562 4.269532 0 7.726563 3.460938 7.726563 7.726562v12.875c0 4.269532-3.460937 7.726563-7.726563 7.726563zm0 0" fill="#424952"/><path d="m320.609375 366.816406c-.71875-.160156-1.46875-.21875-2.238281-.164062-2.570313.1875-11.054688-.082032-16.257813-3.652344-3.519531-2.414062-8.332031-1.519531-10.742187 2-2.414063 3.519531-1.519532 8.328125 1.996094 10.742188 7.648437 5.246093 17.117187 6.265624 22.34375 6.390624 2.507812-4.859374 4.171874-9.992187 4.898437-15.316406zm0 0" fill="#424952"/><g fill="#cbe7f8"><path d="m286.734375 254.660156c0 10.199219-8.265625 18.464844-18.464844 18.464844s-18.464843-8.265625-18.464843-18.464844c0-10.195312 8.265624-18.464844 18.464843-18.464844s18.464844 8.269532 18.464844 18.464844zm0 0"/><path d="m231.238281 220.5c0 8.667969-7.027343 15.695312-15.695312 15.695312-8.671875 0-15.699219-7.027343-15.699219-15.695312s7.027344-15.695312 15.699219-15.695312c8.667969 0 15.695312 7.027343 15.695312 15.695312zm0 0"/></g></svg>