<svg height="512pt" viewBox="0 -11 512 512" width="512pt" xmlns="http://www.w3.org/2000/svg"><path d="m400.976562 0h-289.953124c-18.777344 0-34 15.222656-34 34s15.222656 34 34 34l144.976562 16.332031 144.976562-16.332031c18.777344 0 34-15.222656 34-34s-15.222656-34-34-34zm0 0" fill="#80c0e4"/><path d="m141.929688 68c-18.78125 0-34-15.222656-34-34s15.21875-34 34-34h-30.90625c-18.777344 0-34 15.222656-34 34s15.222656 34 34 34l144.976562 16.332031 15.453125-1.738281zm0 0" fill="#5ba0d3"/><path d="m400.976562 68h-289.953124c-67.054688 46.160156-111.023438 123.441406-111.023438 211 0 67.351562 26.015625 128.617188 68.539062 174.320312 21.21875 22.804688 51.019532 35.679688 82.167969 35.679688h210.585938c31.148437 0 60.949219-12.875 82.167969-35.679688 42.523437-45.703124 68.539062-106.96875 68.539062-174.320312 0-87.558594-43.96875-164.839844-111.023438-211zm0 0" fill="#cbe7f8"/><path d="m406.535156 124.121094c-10.34375-10.0625-25.074218-14.234375-39.214844-11.339844-118.296874 24.1875-122.113281-34.214844-229.964843-8.269531-8.957031 2.152343-17.308594 6.398437-24.21875 12.496093-46.195313 40.785157-73.136719 99.644532-73.136719 161.992188 0 54.769531 20.535156 107 57.824219 147.074219 13.554687 14.570312 32.832031 22.925781 52.882812 22.925781h210.585938c20.050781 0 39.324219-8.355469 52.882812-22.925781 37.289063-40.074219 57.824219-92.304688 57.824219-147.074219 0-58.808594-23.972656-114.519531-65.464844-154.878906zm0 0" fill="#80c0e4"/><path d="m128.730469 426.074219c-37.289063-40.074219-57.824219-92.308594-57.824219-147.074219 0-62.347656 26.9375-121.210938 73.136719-161.992188 6.90625-6.097656 15.261719-10.34375 24.21875-12.496093 13.378906-3.21875 25.152343-5.136719 35.75-6.078125-17.773438-1.695313-38.722657-.644532-66.65625 6.078125-8.957031 2.152343-17.308594 6.398437-24.21875 12.496093-46.195313 40.78125-73.136719 99.644532-73.136719 161.992188 0 54.765625 20.535156 107 57.824219 147.074219 13.558593 14.570312 32.832031 22.925781 52.882812 22.925781h30.90625c-20.050781 0-39.328125-8.355469-52.882812-22.925781zm0 0" fill="#5ba0d3"/><path d="m316.167969 251.769531h45.125v197.230469h-45.125zm0 0" fill="#a6adb9"/><path d="m195.832031 449h-45.125v-197.234375h45.125zm0 0" fill="#a6adb9"/><path d="m267.933594 263.027344c-7.007813-5.488282-16.859375-5.488282-23.867188 0l-54.984375 43.039062 66.917969 12.71875 66.917969-12.71875zm0 0" fill="#e1738c"/><path d="m219.988281 306.066406 51.464844-40.285156-3.519531-2.753906c-7.007813-5.488282-16.859375-5.488282-23.867188 0l-54.984375 43.039062 66.917969 12.71875 15.453125-2.9375zm0 0" fill="#d74a6c"/><path d="m189.082031 306.066406h133.835938v142.933594h-133.835938zm0 0" fill="#d3d2d8"/><path d="m316.167969 251.769531h45.125v43.636719h-45.125zm0 0" fill="#8895a2"/><path d="m371.53125 254.375-24.347656-26.628906c-4.542969-4.96875-12.367188-4.96875-16.910156 0l-24.347657 26.628906c-3.546875 3.878906-.796875 10.125 4.460938 10.125h56.683593c5.257813 0 8.011719-6.246094 4.460938-10.125zm0 0" fill="#e1738c"/><path d="m326.53125 254.375 22.5-24.609375-1.84375-2.015625c-4.542969-4.96875-12.371094-4.96875-16.914062 0l-24.347657 26.625c-3.546875 3.878906-.792969 10.125 4.460938 10.125h20.605469c-5.257813 0-8.011719-6.246094-4.460938-10.125zm0 0" fill="#d74a6c"/><path d="m150.707031 251.769531h45.125v43.636719h-45.125zm0 0" fill="#8895a2"/><path d="m140.46875 254.375 24.347656-26.628906c4.542969-4.96875 12.367188-4.96875 16.910156 0l24.347657 26.628906c3.546875 3.878906.796875 10.125-4.460938 10.125h-56.683593c-5.257813 0-8.011719-6.246094-4.460938-10.125zm0 0" fill="#e1738c"/><path d="m161.070312 254.375 22.5-24.609375-1.84375-2.015625c-4.542968-4.96875-12.371093-4.96875-16.914062 0l-24.347656 26.625c-3.546875 3.878906-.792969 10.125 4.464844 10.125h20.601562c-5.253906 0-8.007812-6.246094-4.460938-10.125zm0 0" fill="#d74a6c"/><path d="m270.628906 353.089844h-29.257812c-6.308594 0-11.425782 5.113281-11.425782 11.421875v84.488281h52.105469v-84.488281c0-6.308594-5.113281-11.421875-11.421875-11.421875zm0 0" fill="#8895a2"/><g fill="#cbe7f8"><path d="m295.664062 196c0 13.4375-10.894531 24.332031-24.332031 24.332031s-24.332031-10.894531-24.332031-24.332031 10.894531-24.332031 24.332031-24.332031 24.332031 10.894531 24.332031 24.332031zm0 0"/><path d="m360.128906 168.738281c0 9.847657-7.984375 17.832031-17.832031 17.832031s-17.832031-7.984374-17.832031-17.832031c0-9.847656 7.984375-17.832031 17.832031-17.832031s17.832031 7.984375 17.832031 17.832031zm0 0"/></g></svg>