<svg height="512pt" viewBox="0 -25 512.00103 512" width="512pt" xmlns="http://www.w3.org/2000/svg"><path d="m458.234375 278.773438c8.5-18.460938-10.566406-37.53125-29.027344-29.027344-1.867187-20.238282-27.917969-27.21875-39.652343-10.625-11.738282-16.59375-37.785157-9.613282-39.652344 10.625-18.464844-8.5-37.53125 10.566406-29.027344 29.027344-20.242188 1.867187-27.222656 27.917968-10.625 39.652343l79.304688 18.488281 79.304687-18.488281c16.59375-11.734375 9.613281-37.785156-10.625-39.652343zm0 0" fill="#e08778"/><path d="m496.164062 387.246094s-.085937-48.277344-27.304687-68.820313h-191.570313v89.363281h218.875zm0 0" fill="#d74a6c"/><path d="m496.164062 387.246094h-184.480468c-13.757813-69.125-42.410156-108.878906-42.410156-108.878906l-84.148438-20.546876-84.148438 20.546876s-41.417968 57.445312-48.570312 154.324218c-1.136719 15.378906 10.976562 28.511719 26.394531 28.511719h417.367188c8.742187 0 15.832031-7.089844 15.832031-15.835937v-42.285157c0-8.746093-7.089844-15.835937-15.835938-15.835937zm0 0" fill="#e1738c"/><path d="m83.3125 432.691406c7.152344-96.878906 48.570312-154.324218 48.570312-154.324218l68.695313-16.773438-15.453125-3.773438-84.148438 20.546876s-41.417968 57.445312-48.570312 154.324218c-1.136719 15.378906 10.976562 28.511719 26.394531 28.511719h30.90625c-15.421875 0-27.53125-13.128906-26.394531-28.511719zm0 0" fill="#d74a6c"/><path d="m23.515625 82.457031s-.289063 127.085938 77.460937 195.910157h168.296876c77.75-68.824219 77.460937-195.910157 77.460937-195.910157l-161.609375-29.546875zm0 0" fill="#cbe7f8"/><path d="m23.515625 82.457031s-.027344 12.128907 2.226563 30.90625h318.765624c2.253907-18.777343 2.226563-30.90625 2.226563-30.90625l-161.609375-29.546875zm0 0" fill="#80c0e4"/><path d="m346.734375 0h-323.21875c-12.988281 0-23.515625 10.527344-23.515625 23.515625v35.429687c0 12.988282 10.527344 23.515626 23.515625 23.515626h323.21875c12.988281 0 23.515625-10.527344 23.515625-23.515626v-35.429687c0-12.988281-10.527344-23.515625-23.515625-23.515625zm0 0" fill="#e1738c"/><path d="m30.90625 58.945312v-35.429687c0-12.988281 10.527344-23.515625 23.511719-23.515625h-30.902344c-12.988281 0-23.515625 10.527344-23.515625 23.515625v35.429687c0 12.988282 10.527344 23.515626 23.515625 23.515626h30.902344c-12.984375-.003907-23.511719-10.53125-23.511719-23.515626zm0 0" fill="#d74a6c"/><g fill="#424952"><path d="m100.976562 52.507812c-4.265624 0-7.726562-3.460937-7.726562-7.726562v-15.230469c0-4.265625 3.460938-7.726562 7.726562-7.726562 4.269532 0 7.726563 3.460937 7.726563 7.726562v15.230469c0 4.265625-3.457031 7.726562-7.726563 7.726562zm0 0"/><path d="m269.273438 52.507812c-4.269532 0-7.726563-3.460937-7.726563-7.726562v-15.230469c0-4.265625 3.457031-7.726562 7.726563-7.726562 4.265624 0 7.726562 3.460937 7.726562 7.726562v15.230469c0 4.265625-3.460938 7.726562-7.726562 7.726562zm0 0"/><path d="m185.125 60.636719c-10.324219 0-20.015625-4.3125-26.585938-11.832031-2.808593-3.210938-2.480468-8.09375.730469-10.902344 3.210938-2.808594 8.09375-2.480469 10.902344.734375 3.636719 4.160156 9.085937 6.546875 14.953125 6.546875 5.863281 0 11.3125-2.386719 14.953125-6.546875 2.804687-3.214844 7.6875-3.542969 10.902344-.730469 3.210937 2.808594 3.539062 7.6875.730469 10.902344-6.574219 7.515625-16.261719 11.828125-26.585938 11.828125zm0 0"/></g><path d="m283.820312 126.773438c-.378906-.023438-.761718-.035157-1.144531-.035157-3.464843 0-6.71875.902344-9.539062 2.484375-6.242188 3.503906-13.707031 3.503906-19.949219 0-2.820312-1.582031-6.070312-2.484375-9.535156-2.484375s-6.71875.902344-9.535156 2.484375c-6.242188 3.503906-13.710938 3.503906-19.949219 0-2.820313-1.582031-6.074219-2.484375-9.539063-2.484375-3.460937 0-6.714844.902344-9.535156 2.484375-6.242188 3.503906-13.707031 3.503906-19.949219 0-2.820312-1.582031-6.074219-2.484375-9.535156-2.484375-3.464844 0-6.71875.902344-9.539063 2.484375-6.242187 3.503906-13.707031 3.503906-19.949218 0-2.820313-1.582031-6.070313-2.484375-9.535156-2.484375-3.464844 0-6.71875.902344-9.535157 2.484375-6.242187 3.503906-13.710937 3.503906-19.949219 0-2.820312-1.582031-6.074218-2.484375-9.539062-2.484375-.382812 0-.765625.011719-1.144531.035157-12.019531.695312-20.164063 12.609374-17.179688 24.273437 10.199219 39.859375 25.65625 66.65625 40.175781 84.339844 3.675782 4.476562 9.195313 7.027343 14.984376 7.027343h121.515624c5.75 0 11.246094-2.507812 14.910157-6.9375 20.957031-25.355468 33.121093-56.742187 40.183593-84.46875 2.976563-11.65625-5.179687-23.539062-17.1875-24.234374zm0 0" fill="#e08778"/><path d="m140.324219 235.386719c-14.519531-17.683594-29.976563-44.480469-40.175781-84.339844-1.847657-7.230469.578124-14.554687 5.554687-19.246094-2.964844-.203125-5.898437-1.0625-8.597656-2.578125-2.820313-1.582031-6.074219-2.484375-9.535157-2.484375-.386718 0-.769531.011719-1.148437.035157-12.019531.695312-20.160156 12.609374-17.175781 24.273437 10.199218 39.859375 25.652344 66.65625 40.175781 84.339844 3.675781 4.476562 9.191406 7.027343 14.980469 7.027343h30.90625c-5.792969 0-11.308594-2.550781-14.984375-7.027343zm0 0" fill="#d2614c"/></svg>