<svg height="512pt" viewBox="-62 0 512 512" width="512pt" xmlns="http://www.w3.org/2000/svg"><path d="m334.410156 353.964844c0 77.769531-63.046875 140.816406-140.816406 140.816406s-140.816406-63.046875-140.816406-140.816406c0-77.769532 63.046875-140.816406 140.816406-140.816406s140.816406 63.046874 140.816406 140.816406zm0 0" fill="#e9e9e9"/><path d="m83.683594 353.964844c0-72.546875 54.863281-132.273438 125.363281-139.96875-5.074219-.554688-10.230469-.847656-15.453125-.847656-77.769531 0-140.816406 63.046874-140.816406 140.816406 0 77.769531 63.046875 140.816406 140.816406 140.816406 5.222656 0 10.378906-.292969 15.453125-.847656-70.5-7.695313-125.363281-67.421875-125.363281-139.96875zm0 0" fill="#d3d2d8"/><path d="m387.1875 64.722656c0 35.742188-28.976562 64.71875-64.722656 64.71875-35.742188 0-64.71875-28.976562-64.71875-64.71875 0-35.746094 28.976562-64.722656 64.71875-64.722656 35.746094 0 64.722656 28.976562 64.722656 64.722656zm0 0" fill="#e9a577"/><path d="m129.441406 64.722656c0 35.742188-28.976562 64.71875-64.71875 64.71875-35.746094 0-64.722656-28.976562-64.722656-64.71875 0-35.746094 28.976562-64.722656 64.722656-64.722656 35.742188 0 64.71875 28.976562 64.71875 64.722656zm0 0" fill="#e9a577"/><path d="m352.476562 122.0625c-12.566406-48.757812-35.082031-85.773438-67.121093-110.351562-16.691407 11.703124-27.613281 31.074218-27.613281 53.011718 0 35.742188 28.980468 64.71875 64.722656 64.71875 10.835937 0 21.039062-2.675781 30.011718-7.378906zm0 0" fill="#e48949"/><path d="m64.722656 129.441406c35.742188 0 64.71875-28.976562 64.71875-64.71875 0-21.933594-10.921875-41.304687-27.609375-53.011718-32.039062 24.582031-54.554687 61.59375-67.121093 110.351562 8.972656 4.703125 19.175781 7.378906 30.011718 7.378906zm0 0" fill="#e48949"/><path d="m347.808594 67.789062c0 15.691407-12.722656 28.410157-28.410156 28.410157-15.691407 0-28.410157-12.71875-28.410157-28.410157 0-15.6875 12.71875-28.410156 28.410157-28.410156 15.6875 0 28.410156 12.722656 28.410156 28.410156zm0 0" fill="#e9e9e9"/><path d="m96.199219 67.789062c0 15.691407-12.71875 28.410157-28.410157 28.410157-15.6875 0-28.410156-12.71875-28.410156-28.410157 0-15.6875 12.722656-28.410156 28.410156-28.410156 15.691407 0 28.410157 12.722656 28.410157 28.410156zm0 0" fill="#e9e9e9"/><path d="m193.59375 213.148438c-63.109375 0-116.523438 41.519531-134.417969 98.730468 9.582031 5.410156 20.371094 10.003906 32.316407 13.789063.710937-1.421875 1.859374-2.640625 3.386718-3.417969.117188-.0625 14.601563-7.664062 25.675782-21.789062 9.347656-11.925782 25.6875-16.257813 39.726562-10.527344 9.996094 4.078125 17.332031 12.40625 20.125 22.851562 2.367188 8.855469 1.105469 18.015625-3.410156 25.75 5.417968.171875 10.941406.269532 16.597656.269532s11.179688-.097657 16.597656-.269532c-4.515625-7.734375-5.777344-16.894531-3.410156-25.75 2.792969-10.445312 10.128906-18.773437 20.125-22.851562 14.042969-5.726563 30.378906-1.402344 39.726562 10.527344 11.074219 14.125 25.558594 21.726562 25.703126 21.804687 1.507812.78125 2.644531 1.996094 3.351562 3.40625 11.945312-3.785156 22.738281-8.378906 32.320312-13.789063-17.890624-57.214843-71.304687-98.734374-134.414062-98.734374zm0 0" fill="#d3d2d8"/><path d="m313.832031 39.929688c-13.023437 2.589843-22.84375 14.078124-22.84375 27.859374 0 15.691407 12.71875 28.410157 28.410157 28.410157 8.496093 0 16.117187-3.734375 21.324218-9.648438-7.300781-17.585937-16.273437-33.140625-26.890625-46.621093zm0 0" fill="#d3d2d8"/><path d="m73.355469 39.929688c-10.617188 13.480468-19.589844 29.035156-26.890625 46.621093 5.207031 5.914063 12.828125 9.648438 21.324218 9.648438 15.691407 0 28.410157-12.71875 28.410157-28.410157 0-13.785156-9.820313-25.269531-22.84375-27.859374zm0 0" fill="#d3d2d8"/><path d="m106.988281 303.394531v.007813c-133.550781-36.238282-55.574219-162.195313-55.574219-162.195313 30.683594-148.320312 142.179688-140.136719 142.179688-140.136719s111.496094-8.183593 142.179688 140.136719c0 0 77.976562 125.957031-55.574219 162.195313v-.007813zm0 0" fill="#e9a577"/><path d="m306.089844 264.144531c-6.363282 14.363281-15.8125 27.300781-25.890625 39.25v.007813c-22.441407 6.085937-50.847657 9.648437-86.605469 9.648437s-64.164062-3.5625-86.605469-9.648437v-.007813c-10.078125-11.949219-19.527343-24.886719-25.890625-39.25-11.847656-26.769531-6.414062-51.460937 14.378906-71.507812 10.515626-10.148438 23.710938-16.765625 31.433594-29.601563 7.128906-11.878906 9.789063-25.871094 17.277344-37.582031 10.679688-16.726563 30.472656-22.433594 49.40625-22.433594s38.726562 5.707031 49.40625 22.433594c7.484375 11.710937 10.144531 25.703125 17.273438 37.582031 7.722656 12.835938 20.917968 19.453125 31.433593 29.601563 20.796875 20.046875 26.226563 44.742187 14.382813 71.507812zm0 0" fill="#e9e9e9"/><g fill="#424952"><path d="m107.554688 123.535156c-4.269532 0-7.726563 3.460938-7.726563 7.726563v15.015625c0 4.269531 3.457031 7.726562 7.726563 7.726562 4.269531 0 7.726562-3.457031 7.726562-7.726562v-15.015625c0-4.265625-3.457031-7.726563-7.726562-7.726563zm0 0"/><path d="m279.632812 123.535156c-4.269531 0-7.726562 3.460938-7.726562 7.726563v15.015625c0 4.269531 3.457031 7.726562 7.726562 7.726562 4.269532 0 7.726563-3.457031 7.726563-7.726562v-15.015625c0-4.265625-3.457031-7.726563-7.726563-7.726563zm0 0"/><path d="m175.878906 145.59375c5.382813 2.320312 11.386719 3.613281 17.714844 3.613281s12.332031-1.292969 17.71875-3.613281c5.652344-2.4375 3.925781-10.863281-2.226562-10.863281h-30.984376c-6.152343-.003907-7.875 8.425781-2.222656 10.863281zm0 0"/><path d="m227.554688 157.449219c-3.214844-2.808594-8.09375-2.484375-10.902344.730469-2.082032 2.382812-5.222656 3.746093-8.621094 3.746093s-6.539062-1.363281-8.621094-3.746093c-1.359375-1.554688-3.378906-2.53125-5.441406-2.625-2.320312-.109376-4.660156.871093-6.191406 2.625-2.082032 2.382812-5.222656 3.746093-8.621094 3.746093s-6.539062-1.363281-8.621094-3.746093c-2.808594-3.210938-7.6875-3.542969-10.902344-.730469-3.210937 2.808593-3.539062 7.6875-.734374 10.902343 5.019531 5.738282 12.402343 9.027344 20.257812 9.027344 5.203125 0 10.199219-1.449218 14.4375-4.09375 4.238281 2.644532 9.234375 4.09375 14.4375 4.09375 7.859375 0 15.242188-3.289062 20.257812-9.027344 2.804688-3.214843 2.476563-8.09375-.734374-10.902343zm0 0"/></g><path d="m248.574219 463.527344c-14.832031 0-26.851563 12.019531-26.851563 26.847656v6.695312c0 8.246094 6.683594 14.929688 14.929688 14.929688h23.84375c8.246094 0 14.929687-6.683594 14.929687-14.929688v-6.695312c0-14.828125-12.023437-26.847656-26.851562-26.847656zm0 0" fill="#e9a577"/><path d="m242.328125 497.070312v-6.695312c0-11.175781 6.832031-20.757812 16.546875-24.796875-3.171875-1.320313-6.652344-2.050781-10.300781-2.050781-14.832031 0-26.851563 12.019531-26.851563 26.847656v6.695312c0 8.246094 6.683594 14.929688 14.929688 14.929688h20.601562c-8.242187 0-14.925781-6.683594-14.925781-14.929688zm0 0" fill="#e48949"/><path d="m138.613281 463.527344c14.832031 0 26.851563 12.019531 26.851563 26.847656v6.695312c0 8.246094-6.683594 14.929688-14.929688 14.929688h-23.84375c-8.246094 0-14.929687-6.683594-14.929687-14.929688v-6.695312c0-14.828125 12.023437-26.847656 26.851562-26.847656zm0 0" fill="#e9a577"/><path d="m132.367188 497.070312v-6.695312c0-11.175781 6.832031-20.757812 16.546874-24.796875-3.171874-1.320313-6.648437-2.050781-10.300781-2.050781-14.828125 0-26.851562 12.019531-26.851562 26.847656v6.695312c0 8.246094 6.683593 14.929688 14.929687 14.929688h20.605469c-8.246094 0-14.929687-6.683594-14.929687-14.929688zm0 0" fill="#e48949"/><path d="m217.101562 296.015625c-5.9375-8.5-14.269531-13.796875-23.507812-13.796875s-17.570312 5.296875-23.507812 13.796875l-2.316407 54.261719c5.964844 7.371094 15.3125 10.308594 25.824219 10.308594 10.515625 0 19.859375-2.9375 25.828125-10.308594zm0 0" fill="#d2614c"/><path d="m265.367188 384.117188c-1.144532 0-2.308594-.257813-3.40625-.796876-4.6875-2.308593-29.09375-15.128906-49.230469-41.015624-6.546875-8.417969-8.714844-19.179688-5.949219-29.523438 2.792969-10.441406 10.128906-18.769531 20.125-22.851562 14.042969-5.726563 30.378906-1.398438 39.726562 10.53125 11.074219 14.125 25.558594 21.726562 25.703126 21.804687 3.769531 1.953125 5.265624 6.585937 3.339843 10.367187-1.925781 3.785157-6.53125 5.3125-10.332031 3.414063l-.148438-.078125c-.121093-.058594-.242187-.125-.359374-.191406-2.871094-1.535156-18.09375-10.132813-30.363282-25.78125-5.113281-6.523438-14.046875-8.890625-21.730468-5.757813-5.480469 2.238281-9.503907 6.804688-11.035157 12.535157-1.503906 5.628906-.332031 11.476562 3.21875 16.042968 18.441407 23.707032 41.3125 35.386719 43.859375 36.636719 3.828125 1.886719 5.402344 6.515625 3.519532 10.347656-1.34375 2.730469-4.085938 4.316407-6.9375 4.316407zm0 0" fill="#e9a577"/><path d="m121.820312 384.117188c-2.851562 0-5.59375-1.585938-6.9375-4.316407-1.886718-3.832031-.308593-8.460937 3.519532-10.347656 2.546875-1.25 25.417968-12.929687 43.855468-36.636719 3.550782-4.566406 4.726563-10.414062 3.21875-16.042968-1.53125-5.730469-5.550781-10.296876-11.035156-12.535157-7.683594-3.132812-16.617187-.765625-21.726562 5.757813-12.273438 15.648437-27.496094 24.246094-30.367188 25.78125-.113281.066406-.234375.132812-.355468.191406l-.152344.078125c-3.808594 1.902344-8.433594.367187-10.351563-3.429687-1.917969-3.800782-.402343-8.433594 3.386719-10.367188.121094-.0625 14.601562-7.664062 25.675781-21.789062 9.351563-11.925782 25.691407-16.257813 39.726563-10.527344 10 4.078125 17.335937 12.40625 20.128906 22.851562 2.765625 10.34375.59375 21.101563-5.949219 29.519532-20.136719 25.890624-44.542969 38.707031-49.230469 41.015624-1.097656.539063-2.261718.796876-3.40625.796876zm0 0" fill="#e9a577"/></svg>