<svg height="512pt" viewBox="-22 0 512 512" width="512pt" xmlns="http://www.w3.org/2000/svg"><path d="m120.679688 284.15625c-2.296876-4.132812-8.203126-4.226562-10.488282-.089844-6.785156 12.273438-12.613281 34.527344 15.667969 55.378906l12.316406-38.742187s-10.941406-4.75-17.496093-16.546875zm0 0" fill="#e48949"/><path d="m316.128906 199.410156c0 25.15625-20.390625 45.546875-45.542968 45.546875-25.15625 0-45.546876-20.390625-45.546876-45.546875 0-25.152344 20.390626-45.542968 45.546876-45.542968 25.152343 0 45.542968 20.390624 45.542968 45.542968zm0 0" fill="#e48949"/><path d="m416.214844 212.300781c-42.492188-60.9375-116.789063-54.496093-163.960938 7.363281-14.722656 19.296876-34.171875 32.773438-56.15625 42.539063-20.863281 9.269531-42.847656 17.417969-56.679687 36.703125-18.605469 25.941406-15.710938 59.328125-6.335938 88.226562v31.046876l49.40625 13.433593 133.640625-80.320312 99.808594-93.226563zm0 0" fill="#e9a577"/><path d="m443.1875 256-26.972656 86.875-91.839844 81.734375-68.722656 15.164063h-43.1875l-29.976563-8.148438v-.011719c-13.453125-58.914062 2.472657-88.046875 101.96875-126.835937 99.492188-38.785156 131.757813-92.476563 131.757813-92.476563zm0 0" fill="#e9e9e9"/><path d="m366.191406 223.214844c-2.382812 0-4.730468-1.097656-6.242187-3.171875l-7.726563-10.574219c-2.515625-3.445312-1.765625-8.28125 1.679688-10.796875 3.445312-2.515625 8.28125-1.765625 10.796875 1.679687l7.726562 10.578126c2.515625 3.445312 1.765625 8.28125-1.679687 10.796874-1.375 1.003907-2.972656 1.488282-4.554688 1.488282zm0 0" fill="#424952"/><path d="m234.058594 468.121094c-62.519532 0-121.296875-24.347656-165.503906-68.554688-44.207032-44.210937-68.554688-102.988281-68.554688-165.507812 0-62.519532 24.347656-121.296875 68.554688-165.503906 44.207031-44.207032 102.984374-68.554688 165.503906-68.554688 62.519531 0 121.296875 24.347656 165.503906 68.554688 44.210938 44.207031 68.554688 102.984374 68.554688 165.503906 0 62.519531-24.34375 121.296875-68.554688 165.507812-44.207031 44.207032-102.984375 68.554688-165.503906 68.554688zm0-417.507813c-101.152344 0-183.445313 82.292969-183.445313 183.445313s82.292969 183.445312 183.445313 183.445312 183.445312-82.292968 183.445312-183.445312-82.292968-183.445313-183.445312-183.445313zm0 0" fill="#a6adb9"/><path d="m327.808594 448.648438-21.625-45.929688c-22.152344 9.507812-46.53125 14.785156-72.125 14.785156-25.589844 0-49.972656-5.273437-72.121094-14.785156l-21.628906 45.929688c29.179687 12.757812 60.949218 19.46875 93.75 19.46875 32.804687.003906 64.570312-6.710938 93.75-19.46875zm0 0" fill="#8895a2"/><path d="m308.558594 480.3125-40.335938-85.660156c-6.230468-13.230469-19.539062-21.675782-34.164062-21.675782s-27.933594 8.445313-34.164063 21.675782l-40.332031 85.660156c-6.941406 14.738281 3.8125 31.6875 20.101562 31.6875h108.789063c16.292969 0 27.046875-16.949219 20.105469-31.6875zm0 0" fill="#a6adb9"/><path d="m255.65625 439.773438c0 11.929687-9.671875 21.597656-21.597656 21.597656-11.925782 0-21.59375-9.667969-21.59375-21.597656 0-11.925782 9.667968-21.59375 21.59375-21.59375 11.925781 0 21.597656 9.667968 21.597656 21.59375zm0 0" fill="#8895a2"/></svg>