<svg height="511pt" viewBox="0 -24 511.99913 511" width="511pt" xmlns="http://www.w3.org/2000/svg"><path d="m428.917969 179.53125h35.335937s-9.101562-35.332031-39.226562-35.332031l24.519531-24.523438s-28.476563-27.136719-59.878906 0l19.9375-40.90625s-44.800781-20.933593-69.007813 7.851563l22.898438-43.179688s-43.183594-36.640625-81.785156 0v-42.527344s-73.277344-9.8125-104.683594 66.082032v-47.761719s-70.660156 11.777344-76.546875 86.363281l-25.921875-30.75s-50.628906 30.09375-32.964844 88.980469l-28.132812-9.160156s-14.394532 49.722656 17.667968 70.660156h-30.75s-7.945312 54.324219 49.023438 84.410156l25.15625 28.777344h177.058594zm0 0" fill="#d2614c"/><path d="m74.558594 74.847656s-50.625 30.09375-32.960938 88.980469l-28.132812-9.160156s-14.394532 49.722656 17.664062 70.660156h-30.75s-7.945312 54.324219 49.023438 84.410156l25.15625 28.777344h26.828125c-17.976563-61.023437-.90625-125.050781-.90625-232.917969zm0 0" fill="#ab4b3a"/><path d="m501.515625 313.910156-1.128906-10.371094 5.265625-4.636718c1.46875-6.03125 2.648437-11.78125 3.59375-17.074219l-19.714844-35.683594c-70.554688-18.824219-15.839844-93.441406-152.207031-93.441406 0 0-28.953125-27.96875-71.640625-10.792969 0 0-25.683594 33.691406 11.449218 84.078125-42.53125 134.117188-227.730468 83.75-227.730468 83.75-2.210938 45.105469 10.578125 105 94.105468 105h1.136719v21.378907c0 7.910156 3.503907 15.414062 9.570313 20.488281 4.804687 4.019531 10.871094 6.222656 17.136718 6.222656h38.179688c13.105469 0 19.695312-15.875 10.398438-25.113281-5.714844-5.675782-10.839844-12.113282-10.839844-22.976563h109.914062v21.378907c0 7.910156 3.507813 15.410156 9.574219 20.484374 4.804687 4.019532 10.871094 6.226563 17.136719 6.226563h38.179687c13.105469 0 19.695313-15.875 10.398438-25.113281-5.714844-5.675782-10.839844-12.113282-10.839844-22.976563 71.65625 0 103.734375-54.5 118.0625-100.828125zm0 0" fill="#e9a577"/><path d="m174.820312 456.605469c-6.066406-5.078125-9.574218-12.578125-9.574218-20.488281v-9.554688c0-6.53125-5.292969-11.824219-11.824219-11.824219h-8.777344v21.378907c0 7.910156 3.503907 15.410156 9.570313 20.484374 4.804687 4.019532 10.875 6.226563 17.140625 6.226563h20.601562c-6.265625 0-12.332031-2.203125-17.136719-6.222656zm0 0" fill="#e48949"/><path d="m349.179688 456.605469c-6.066407-5.078125-9.570313-12.578125-9.570313-20.488281v-9.554688c0-6.53125-5.292969-11.824219-11.824219-11.824219h-8.78125v21.378907c0 7.910156 3.507813 15.410156 9.574219 20.484374 4.804687 4.019532 10.871094 6.226563 17.136719 6.226563h20.605468c-6.265624 0-12.332031-2.203125-17.140624-6.222656zm0 0" fill="#e48949"/><path d="m320.523438 177.425781c-3.703126-3.453125-7.589844-6.609375-12.347657-8.605469-3.699219-1.546874-7.589843-2.511718-11.539062-2.871093-5.792969-.523438-10.5625 4.316406-10.011719 10.109375.632812 6.597656 3.078125 15.007812 9.246094 25.101562 2.351562 3.847656 7.738281 4.378906 10.8125 1.082032l14.160156-15.183594c2.566406-2.75 2.429688-7.066406-.320312-9.632813zm0 0" fill="#e9e9e9"/><g fill="#424952"><path d="m431.054688 277.117188c-4.265626 0-7.726563-3.457032-7.726563-7.726563v-15.421875c0-4.265625 3.460937-7.726562 7.726563-7.726562 4.269531 0 7.726562 3.460937 7.726562 7.726562v15.421875c0 4.269531-3.457031 7.726563-7.726562 7.726563zm0 0"/><path d="m511.917969 263.328125c-.5625 5.082031-1.40625 11.382813-2.671875 18.5-11.921875-4.191406-20.472656-15.558594-20.472656-28.914063 0-2.324218.257812-4.59375.757812-6.769531 3.375.902344 7.046875 1.675781 11.03125 2.304688 7.144531 1.128906 12.148438 7.683593 11.355469 14.878906zm0 0"/><path d="m504.105469 298.667969c-.097657-.007813-10.230469-1.003907-21-12.339844-2.941407-3.09375-7.828125-3.21875-10.921875-.28125s-3.21875 7.828125-.28125 10.921875c12.601562 13.261719 24.945312 16.261719 29.613281 16.9375 1.585937-5.128906 2.957031-10.160156 4.136719-15.003906-.496094-.128906-1.015625-.207032-1.546875-.234375zm0 0"/></g><path d="m425.027344 301.792969h-15.421875c-4.269531 0-7.726563-3.460938-7.726563-7.726563s3.457032-7.726562 7.726563-7.726562h15.421875c4.265625 0 7.726562 3.460937 7.726562 7.726562s-3.460937 7.726563-7.726562 7.726563zm0 0" fill="#e1738c"/><path d="m49.402344 309.738281c-2.207032 45.105469 10.578125 105 94.105468 105h1.136719c-28.953125-34.179687-42.5-64.613281-48.09375-97.132812-27.71875-2.585938-47.148437-7.867188-47.148437-7.867188zm0 0" fill="#e48949"/></svg>