<svg height="512px" viewBox="0 -27 512.00103 512" width="512px" xmlns="http://www.w3.org/2000/svg"><path d="m44.117188 4.492188c-16.988282 9.769531-22.074219 31.921874-11.046876 48.125l57.636719 86.003906 45.921875-26.410156-45.363281-93.070313c-8.457031-17.671875-30.164063-24.417969-47.148437-14.648437zm0 0" fill="#eee07d"/><path d="m90.707031 138.621094 45.917969-26.410156-20.53125-42.128907-51.476562 29.609375zm0 0" fill="#e1ba68"/><path d="m157.105469 82.148438-102.679688 59.058593c-20.410156 11.738281-27.441406 37.800781-15.703125 58.210938l44.636719 77.605469 176.59375-101.570313-44.636719-77.605469c-11.738281-20.410156-37.800781-27.4375-58.210937-15.699218zm0 0" fill="#eee07d"/><path d="m329.664062 150.347656c-22.539062-12.503906-47.890624-19.066406-73.664062-19.066406s-51.125 6.5625-73.664062 19.066406l-153.21875 85.015625 226.882812 29.117188 226.882812-29.117188zm0 0" fill="#a6adb9"/><path d="m80.625 235.363281 153.222656-95.316406c6.007813-3.332031 12.21875-6.230469 18.582032-8.707031-24.539063.578125-48.597657 7.082031-70.09375 19.007812l-153.21875 85.015625 226.882812 29.117188 25.753906-3.304688zm0 0" fill="#8895a2"/><path d="m256 264.480469-226.882812 29.117187 26.757812 112.992188c7.21875 30.476562 34.433594 52 65.757812 52h268.734376c31.324218 0 58.539062-21.523438 65.757812-52l26.757812-112.992188zm0 0" fill="#80c0e4"/><g fill="#424952"><path d="m162.527344 373.203125c-4.265625 0-7.726563-3.457031-7.726563-7.726563v-16.914062c0-4.269531 3.460938-7.726562 7.726563-7.726562 4.269531 0 7.726562 3.457031 7.726562 7.726562v16.914062c0 4.269532-3.457031 7.726563-7.726562 7.726563zm0 0"/><path d="m349.46875 373.203125c-4.265625 0-7.726562-3.457031-7.726562-7.726563v-16.914062c0-4.269531 3.460937-7.726562 7.726562-7.726562 4.269531 0 7.726562 3.457031 7.726562 7.726562v16.914062c0 4.269532-3.457031 7.726563-7.726562 7.726563zm0 0"/><path d="m256 382.234375c-11.222656 0-21.75-4.683594-28.886719-12.847656-2.808593-3.214844-2.480469-8.09375.730469-10.902344 3.214844-2.808594 8.09375-2.480469 10.902344.730469 4.203125 4.808594 10.492187 7.566406 17.253906 7.566406s13.046875-2.757812 17.25-7.566406c2.8125-3.214844 7.691406-3.542969 10.902344-.730469 3.214844 2.808594 3.542968 7.6875.734375 10.902344-7.136719 8.164062-17.664063 12.847656-28.886719 12.847656zm0 0"/></g><path d="m29.117188 293.597656 7.316406 30.902344h439.132812l7.316406-30.902344-226.882812-29.117187zm0 0" fill="#5ba0d3"/><path d="m482.882812 235.363281h-453.765624c-16.082032 0-29.117188 13.035157-29.117188 29.117188 0 16.078125 13.035156 29.117187 29.117188 29.117187h453.765624c16.082032 0 29.117188-13.039062 29.117188-29.117187 0-16.082031-13.035156-29.117188-29.117188-29.117188zm0 0" fill="#80c0e4"/></svg>