<svg height="512.00013pt" viewBox="0 0 512.00013 512.00013" width="512.00013pt" xmlns="http://www.w3.org/2000/svg"><path d="m74.921875 326.855469 251.933594-251.933594 110.21875 110.21875-251.933594 251.933594zm0 0" fill="#e9e9e9"/><g fill="#424952"><path d="m207.5625 316.429688c-1.976562 0-3.953125-.753907-5.460938-2.261719l-9.152343-9.152344c-3.019531-3.019531-3.019531-7.910156 0-10.925781 3.015625-3.019532 7.910156-3.019532 10.925781 0l9.152344 9.148437c3.015625 3.019531 3.015625 7.910157 0 10.929688-1.507813 1.507812-3.488282 2.261719-5.464844 2.261719zm0 0"/><path d="m308.703125 215.289062c-1.976563 0-3.953125-.753906-5.460937-2.261718l-9.152344-9.152344c-3.019532-3.015625-3.019532-7.910156 0-10.925781 3.015625-3.019531 7.910156-3.019531 10.925781 0l9.152344 9.152343c3.015625 3.015626 3.015625 7.910157 0 10.925782-1.511719 1.507812-3.488281 2.261718-5.464844 2.261718zm0 0"/><path d="m246.488281 277.753906c-.664062 0-1.324219-.023437-1.992187-.066406-4.257813-.285156-7.476563-3.96875-7.191406-8.226562.285156-4.257813 3.972656-7.484376 8.226562-7.191407 4.359375.289063 8.734375-1.425781 12.023438-4.714843 3.289062-3.285157 5.007812-7.667969 4.714843-12.019532-.285156-4.257812 2.933594-7.941406 7.191407-8.226562 4.257812-.296875 7.941406 2.933594 8.226562 7.191406.589844 8.800781-2.765625 17.542969-9.207031 23.984375-5.953125 5.953125-13.875 9.269531-21.992188 9.269531zm0 0"/></g><path d="m453.292969 187.785156c12.808593-7.238281 24.523437-14.195312 26.984375-16.039062 11.417968-8.5625 23.234375-19.105469 28.804687-32.613282 8.988281-21.800781-4.09375-40.804687-21.382812-53.554687-11.191407-8.253906-24.9375-15.492187-40.070313-21.207031zm0 0" fill="#e9e9e9"/><path d="m326.859375 74.921875-39.804687 39.800781c2.488281 2.480469 5.46875 4.464844 8.78125 5.761719 3.238281 1.351563 61.546874 27.152344 55.703124 124.203125-.425781 7.027344 2.058594 14 6.816407 19.179688l78.722656-78.726563zm0 0" fill="#d3d2d8"/><path d="m481.199219 86.796875c-.515625-2.269531-1.074219-4.519531-1.65625-6.765625-9.464844-5.964844-20.277344-11.261719-31.914063-15.660156l5.664063 123.414062c12.808593-7.238281 24.523437-14.195312 26.984375-16.039062 1.492187-1.117188 2.988281-2.273438 4.480468-3.460938 4.089844-25.222656 2.894532-53.191406-3.558593-81.488281zm0 0" fill="#d3d2d8"/><path d="m305.261719 96.515625c.019531.007813 79.179687 30.246094 71.984375 149.722656-.171875 2.859375 34.230468-8.777343 36.089844-9.820312 69.871093-39.207031 53.847656-156.84375 13.085937-212.117188-12.75-17.289062-31.753906-30.371093-53.554687-21.382812-13.507813 5.570312-24.050782 17.386719-32.613282 28.804687-4.378906 5.84375-37.539062 63.820313-34.992187 64.792969zm0 0" fill="#e9e9e9"/><path d="m58.707031 324.214844c-12.808593 7.238281-24.523437 14.195312-26.984375 16.039062-11.417968 8.5625-23.234375 19.105469-28.804687 32.613282-8.988281 21.800781 4.09375 40.804687 21.382812 53.558593 11.191407 8.25 24.9375 15.488281 40.070313 21.203125zm0 0" fill="#e9e9e9"/><path d="m31.722656 340.253906c-1.492187 1.117188-2.988281 2.273438-4.480468 3.460938-4.085938 25.222656-2.898438 53.191406 3.558593 81.488281.515625 2.269531 1.078125 4.523437 1.65625 6.765625 9.464844 5.964844 20.277344 11.265625 31.914063 15.660156l-5.660156-123.414062c-12.8125 7.242187-24.527344 14.195312-26.988282 16.039062zm0 0" fill="#d3d2d8"/><path d="m185.140625 437.078125 39.804687-39.804687c-2.488281-2.480469-5.46875-4.460938-8.78125-5.757813-3.238281-1.351563-61.546874-27.152344-55.699218-124.203125.421875-7.027344-2.0625-13.996094-6.816406-19.179688l-78.726563 78.726563zm0 0" fill="#d3d2d8"/><path d="m206.738281 415.484375c-.019531-.007813-79.179687-30.246094-71.984375-149.722656.171875-2.859375-34.230468 8.777343-36.089844 9.820312-69.871093 39.207031-53.847656 156.847657-13.085937 212.117188 12.75 17.289062 31.753906 30.371093 53.554687 21.382812 13.507813-5.570312 24.050782-17.386719 32.613282-28.804687 4.378906-5.84375 37.539062-63.820313 34.992187-64.792969zm0 0" fill="#e9e9e9"/></svg>