<svg height="512px" viewBox="0 -30 512.00003 512" width="512px" xmlns="http://www.w3.org/2000/svg"><path d="m263.082031 0c-23.515625 0-43.886719 13.398438-53.9375 32.96875-10.054687-19.570312-30.425781-32.96875-53.941406-32.96875-33.480469 0-60.617187 27.140625-60.617187 60.617188 0 33.480468 27.140624 60.617187 60.617187 60.617187 12.632813 0 24.355469-3.871094 34.0625-10.484375v65.96875h39.753906v-65.96875c9.707031 6.613281 21.429688 10.484375 34.0625 10.484375 33.480469 0 60.617188-27.136719 60.617188-60.617187.003906-33.476563-27.136719-60.617188-60.617188-60.617188zm-107.878906 87.332031c-14.753906 0-26.714844-11.960937-26.714844-26.714843 0-14.753907 11.960938-26.710938 26.714844-26.710938s26.714844 11.957031 26.714844 26.710938c0 14.753906-11.960938 26.714843-26.714844 26.714843zm107.878906 0c-14.753906 0-26.710937-11.960937-26.710937-26.714843 0-14.753907 11.957031-26.710938 26.710937-26.710938 14.753907 0 26.714844 11.957031 26.714844 26.710938 0 14.753906-11.960937 26.714843-26.714844 26.714843zm0 0" fill="#8895a2"/><path d="m456.238281 199.320312c0 41.992188-34.039062 76.03125-76.027343 76.03125-41.988282 0-76.03125-34.039062-76.03125-76.03125 0-41.988281 34.042968-76.027343 76.03125-76.027343 41.988281 0 76.027343 34.039062 76.027343 76.027343zm0 0" fill="#a6adb9"/><path d="m441.910156 243.71875c-1.3125-.976562-2.617187-1.984375-3.898437-3.039062-8.109375-6.695313-15.953125-13.542969-24.261719-20.789063-19.027344-16.601563-38.699219-33.765625-61.199219-48.472656-10.5625-6.902344-21.5-13.027344-32.675781-18.335938-9.835938 12.816407-15.695312 28.839844-15.695312 46.242188 0 41.988281 34.039062 76.027343 76.03125 76.027343 25.410156 0 47.894531-12.480468 61.699218-31.632812zm0 0" fill="#8895a2"/><path d="m415.144531 199.320312c0 19.292969-15.640625 34.933594-34.933593 34.933594-19.292969 0-34.933594-15.640625-34.933594-34.933594 0-19.292968 15.640625-34.929687 34.933594-34.929687 19.292968 0 34.933593 15.636719 34.933593 34.929687zm0 0" fill="#e1738c"/><path d="m60.050781 319.652344c-24.6875-16.097656-47.480469-36.367188-56.0625-65.632813-12.121093-41.347656 6.007813-82.273437 19.390625-120.816406 12.109375-34.863281 17.703125-72.859375-12.359375-100.433594-5.207031-4.773437-5.558593-12.871093-.78125-18.078125 4.539063-4.945312 12.109375-5.476562 17.316407-1.425781 40.6875 31.667969 41.460937 84.367187 29.304687 130.117187-9.03125 33.984376-29.28125 79.308594-3.394531 111.1875 8.332031 10.183594 19.691406 16.933594 31.132812 23.054688 11.863282 6.34375 16.335938 21.101562 9.992188 32.960938-6.511719 12.175781-22.789063 16.46875-34.476563 9.109374 0 0-.050781-.03125-.0625-.042968zm0 0" fill="#e1738c"/><path d="m410.371094 216.941406c-16.917969-14.746094-34.449219-29.792968-54.097656-43.046875-6.765626 6.371094-10.996094 15.402344-10.996094 25.425781 0 19.292969 15.640625 34.933594 34.933594 34.933594 12.863281 0 24.097656-6.957031 30.160156-17.3125zm0 0" fill="#d74a6c"/><path d="m84.597656 277.625c-11.441406-6.121094-22.800781-12.871094-31.132812-23.054688-5.917969-7.285156-9.417969-15.273437-11.199219-23.667968-9.117187 14.847656-16.492187 30.714844-21.808594 47.128906-.53125 1.640625-1.0625 3.378906-1.589843 5.207031 10.953124 14.574219 25.695312 26.316407 41.179687 36.414063.015625.007812.066406.042968.066406.042968 11.6875 7.359376 27.964844 3.066407 34.476563-9.109374 6.34375-11.859376 1.871094-26.617188-9.992188-32.960938zm0 0" fill="#d74a6c"/><path d="m477.332031 290.679688c-21.945312-2.375-42.730469-12.75-58.996093-26.167969-27.441407-22.65625-52.796876-47.683594-82.695313-67.226563-36.421875-23.804687-79.769531-38.660156-122.902344-37.683594-75.507812 1.707032-140.285156 58.183594-162.878906 127.945313-17.722656 54.773437-18.832031 164.769531 63 164.769531h269.539063c54.144531 0 88.570312-43.269531 108.957031-85.570312l.351562-8.976563 6.019531-5.242187c3.375-8.109375 6.246094-15.992188 8.640626-23.320313zm0 0" fill="#a6adb9"/><g fill="#424952"><path d="m511.414062 312.246094c-1.367187 5.136718-3.042968 10.859375-5.046874 16.960937-16.363282-5.402343-28.3125-20.527343-29.03125-38.527343 5.289062.566406 10.652343.667968 16.035156.234374 11.816406-.941406 21.09375 9.875 18.042968 21.332032zm0 0"/><path d="m417.71875 327.152344c-4.269531 0-7.726562-3.460938-7.726562-7.726563v-17.171875c0-4.269531 3.457031-7.726562 7.726562-7.726562s7.726562 3.457031 7.726562 7.726562v17.171875c0 4.265625-3.460937 7.726563-7.726562 7.726563zm0 0"/><path d="m496.324219 352.070312c-.175781-.039062-17.59375-3.984374-29.492188-17.46875-2.820312-3.199218-7.707031-3.507812-10.90625-.683593s-3.503906 7.707031-.683593 10.90625c12.984374 14.714843 30.652343 20.4375 36.113281 21.925781 2.300781-4.777344 4.421875-9.535156 6.371093-14.222656-.445312-.191406-.914062-.351563-1.402343-.457032zm0 0"/></g></svg>