<svg height="512px" viewBox="0 -38 512.00131 512" width="512px" xmlns="http://www.w3.org/2000/svg"><path d="m322.703125 59.109375c-36.070313 28.3125-70.144531 55.058594-132.117187 44.429687l-6.800782 39.644532c11.800782 2.023437 22.871094 2.941406 33.300782 2.941406 59.902343-.003906 98.511718-30.300781 130.453124-55.378906 39.667969-31.136719 68.328126-53.632813 127.929688-25.011719l17.410156-36.257813c-82.160156-39.457031-128.921875-2.75-170.175781 29.632813zm0 0" fill="#424952"/><path d="m264.164062 273.367188-18.199218-35.875c4.582031-2.324219 113.136718-56.347657 194.246094-5.554688l-21.351563 34.089844c-17.503906-10.960938-48.992187-21.796875-99.566406-11.144532-31.609375 6.65625-54.894531 18.363282-55.128907 18.484376zm0 0" fill="#424952"/><path d="m394.152344 400.246094c-2.910156-.246094-71.957032-6.441406-128.285156-42.386719l21.636718-33.910156c47.78125 30.492187 109.445313 36.164062 110.066406 36.21875zm0 0" fill="#424952"/><path d="m249.453125 122.3125c1.699219-6.871094 1.636719-13.886719-.042969-20.515625-16.800781 4.484375-35.898437 5.675781-58.824218 1.742187l-6.800782 39.644532c11.800782 2.023437 22.871094 2.941406 33.300782 2.941406 10.957031 0 21.195312-1.023438 30.816406-2.832031-.621094-6.734375-.234375-13.753907 1.550781-20.980469zm0 0" fill="#383d43"/><path d="m264.164062 273.367188c.222657-.113282 21.570313-10.839844 51.113282-17.597657-5.144532-12.316406-11.964844-24.542969-20.882813-36.257812-27.464843 7.519531-46.566406 17.035156-48.429687 17.980469zm0 0" fill="#383d43"/><path d="m287.503906 323.949219-21.636718 33.910156c18.296874 11.675781 37.9375 20.210937 56.214843 26.425781 1.867188-3.960937 3.230469-8.234375 3.996094-12.742187 1.328125-7.878907 2.503906-17.167969 3.074219-27.4375-13.878906-5.0625-28.304688-11.640625-41.648438-20.15625zm0 0" fill="#383d43"/><path d="m257.667969 224.347656c-45.558594-45.5625-43.484375-88.144531-38.21875-109.449218 1.792969-7.25-3.769531-14.234376-11.234375-14.234376h-90.152344c-13.960938 0-26.996094 6.898438-34.890625 18.414063-10.464844 15.269531-29.824219 35.4375-61.507813 41.636719-13.765624 2.691406-23.214843 15.394531-21.453124 29.308594l9.578124 75.679687c1.246094 9.820313 7.808594 18.148437 17.066407 21.652344l244.945312 92.679687c10.460938 3.960938 21.9375-2.613281 23.800781-13.644531 5.464844-32.332031 8.441407-95.671875-37.933593-142.042969zm0 0" fill="#e08778"/><g fill="#d2614c"><path d="m108.75 188.726562c0 9.441407-7.652344 17.09375-17.09375 17.09375s-17.097656-7.652343-17.097656-17.09375c0-9.441406 7.65625-17.097656 17.097656-17.097656s17.09375 7.65625 17.09375 17.097656zm0 0"/><path d="m183.484375 188.726562c0 9.441407-7.65625 17.09375-17.097656 17.09375-9.441407 0-17.09375-7.652343-17.09375-17.09375 0-9.441406 7.652343-17.097656 17.09375-17.097656 9.441406 0 17.097656 7.65625 17.097656 17.097656zm0 0"/><path d="m159.046875 266.078125c0 9.441406-7.65625 17.09375-17.097656 17.09375-9.441407 0-17.09375-7.652344-17.09375-17.09375s7.652343-17.09375 17.09375-17.09375c9.441406 0 17.097656 7.652344 17.097656 17.09375zm0 0"/><path d="m233.78125 266.078125c0 9.441406-7.65625 17.09375-17.097656 17.09375s-17.09375-7.652344-17.09375-17.09375 7.652344-17.09375 17.09375-17.09375 17.097656 7.652344 17.097656 17.09375zm0 0"/></g><path d="m390.332031 435.4375c-1.65625 0-3.339843-.207031-5.019531-.640625-10.757812-2.761719-17.238281-13.726563-14.472656-24.484375l101.566406-395.199219c2.761719-10.757812 13.71875-17.242187 24.484375-14.472656 10.757813 2.761719 17.238281 13.726563 14.472656 24.484375l-101.566406 395.203125c-2.332031 9.078125-10.503906 15.109375-19.464844 15.109375zm0 0" fill="#e08778"/><path d="m495.097656 69.496094-29.835937-7.667969c-1.523438-.390625-3.070313-.6875-4.621094-.925781l-41.582031 161.796875c1.46875.53125 2.96875 1 4.503906 1.394531l29.835938 7.667969c1.523437.390625 3.070312.683593 4.621093.925781l41.582031-161.800781c-1.46875-.53125-2.96875-.996094-4.503906-1.390625zm0 0" fill="#d2614c"/><path d="m487.40625 99.429688-29.839844-7.667969c-9.242187-2.375-18.660156 3.191406-21.035156 12.433593l-17.710938 68.929688c-2.378906 9.242188 3.191407 18.660156 12.433594 21.035156l29.835938 7.667969c9.246094 2.375 18.660156-3.191406 21.035156-12.433594l17.714844-68.929687c2.375-9.242188-3.191406-18.660156-12.433594-21.035156zm0 0" fill="#eee07d"/></svg>