<svg height="512pt" viewBox="-63 0 512 512.00053" width="512pt" xmlns="http://www.w3.org/2000/svg"><path d="m220.269531 163.027344 45.785157-11.3125 30.296874 122.609375-45.78125 11.3125zm0 0" fill="#d3d2d8"/><path d="m88.980469 274.324219 30.296875-122.609375 45.785156 11.3125-30.300781 122.609375zm0 0" fill="#d3d2d8"/><path d="m194.804688 87.402344c10.5.417968 20.351562-2.277344 28.691406-7.234375 15.261718-9.074219 25.488281-25.726563 25.488281-44.769531 0-8.730469-2.148437-16.96875-5.953125-24.1875-3.027344-5.785157 1.972656-12.472657 8.332031-11.003907h.011719c34.523438 7.953125 55.484375 43.039063 46.125 77.207031l-25.046875 91.339844c-4.371094 15.941406-18.859375 26.992188-35.386719 26.992188zm0 0" fill="#a6adb9"/><path d="m265.992188 107.015625c-5.6875-15.824219-16.179688-28.851563-29.566407-37.714844-3.683593 4.285157-8.046875 7.964844-12.925781 10.871094-8.34375 4.957031-18.195312 7.648437-28.695312 7.230469l42.261718 108.34375c16.527344 0 31.015625-11.050782 35.386719-26.988282l6.808594-24.832031zm0 0" fill="#8895a2"/><path d="m237.066406 195.746094h-.28125c-7.730468 0-14.574218-4.609375-17.929687-11.574219-4.308594-8.945313-13.460938-15.117187-24.050781-15.117187-10.601563 0-19.753907 6.171874-24.0625 15.117187-3.355469 6.96875-10.199219 11.574219-17.933594 11.574219h-13.253906c-8.867188 0-16.636719-5.925782-18.980469-14.476563l-28.46875-103.855469c-9.367188-34.164062 11.59375-69.253906 46.113281-77.207031h.023438c6.359374-1.46875 11.359374 5.21875 8.320312 11.003907-3.804688 7.21875-5.953125 15.457031-5.953125 24.1875 0 29.449218 24.472656 53.195312 54.195313 52.003906.105468.003906.210937.007812.316406.007812 18.800781.640625 35.425781 12.355469 41.789062 30.0625l18.675782 51.9375c4.609374 12.820313-4.894532 26.335938-18.519532 26.335938zm0 0" fill="#a6adb9"/><path d="m207.644531 130.066406c0 8.273438-6.707031 14.980469-14.980469 14.980469-8.273437 0-14.980468-6.707031-14.980468-14.980469 0-8.273437 6.707031-14.980468 14.980468-14.980468 8.273438 0 14.980469 6.707031 14.980469 14.980468zm0 0" fill="#8895a2"/><path d="m248.320312 459.046875c9.210938 37.261719 46.820313 60.035156 84.085938 50.960937 37.605469-9.160156 60.183594-48.164062 50.800781-85.710937-21.417969-85.71875-62.433593-158.832031-77.949219-184.597656-3.5625-5.910157-10.550781-8.8125-17.253906-7.15625l-45.078125 11.136719c-6.703125 1.65625-11.539062 7.488281-11.933593 14.382812-1.738282 30.191406-3.992188 114.703125 17.328124 200.984375zm34.101563-8.425781c-4.574219-18.507813 6.722656-37.21875 25.230469-41.789063 18.507812-4.574219 37.214844 6.71875 41.789062 25.226563 4.574219 18.507812-6.722656 37.21875-25.230468 41.792968-18.507813 4.574219-37.214844-6.722656-41.789063-25.230468zm0 0" fill="#7cdac2"/><path d="m353.011719 499.703125c-37.265625 9.078125-74.878907-13.695313-84.085938-50.957031-21.320312-86.28125-19.070312-170.792969-17.332031-200.984375.140625-2.410157.832031-4.6875 1.945312-6.703125l-10.613281 2.621094c-6.703125 1.65625-11.539062 7.488281-11.933593 14.382812-1.738282 30.191406-3.992188 114.703125 17.328124 200.984375 9.210938 37.261719 46.820313 60.035156 84.085938 50.960937 8.984375-2.1875 17.097656-6.097656 24.136719-11.265624-1.164063.351562-2.339844.671874-3.53125.960937zm0 0" fill="#6ec2a1"/><path d="m154.339844 258.0625c-.398438-6.894531-5.230469-12.726562-11.933594-14.382812l-45.082031-11.140626c-6.699219-1.652343-13.691407 1.246094-17.25 7.160157-15.515625 25.765625-56.53125 98.878906-77.953125 184.59375-9.382813 37.550781 13.199218 76.554687 50.804687 85.714843 37.261719 9.074219 74.875-13.699218 84.082031-50.960937 21.320313-86.28125 19.070313-170.792969 17.332032-200.984375zm-93.21875 217.789062c-18.507813-4.574218-29.804688-23.285156-25.230469-41.789062 4.574219-18.507812 23.28125-29.804688 41.789063-25.230469 18.507812 4.574219 29.804687 23.28125 25.230468 41.789063-4.574218 18.507812-23.285156 29.804687-41.789062 25.230468zm0 0" fill="#7cdac2"/><path d="m73.527344 510.007812c-37.601563-9.160156-60.183594-48.164062-50.800782-85.710937 21.417969-85.71875 62.433594-158.832031 77.949219-184.597656 1.273438-2.113281 2.988281-3.832031 4.964844-5.105469l-8.316406-2.054688c-6.699219-1.652343-13.691407 1.246094-17.25 7.160157-15.515625 25.765625-56.53125 98.878906-77.953125 184.597656-9.382813 37.546875 13.199218 76.550781 50.804687 85.710937 9.058594 2.207032 18.136719 2.515626 26.824219 1.207032-2.070312-.3125-4.148438-.703125-6.222656-1.207032zm0 0" fill="#6ec2a1"/></svg>