<svg height="512pt" viewBox="-38 0 512 512.0001" width="512pt" xmlns="http://www.w3.org/2000/svg"><path d="m435.429688 430.894531-76.734376-153.542969-146.726562 73.328126 76.734375 153.542968c4.351563 8.707032 16.019531 10.464844 22.742187 3.425782l42.90625-44.898438c2.253907-2.359375 5.261719-3.859375 8.5-4.246094l61.667969-7.359375c9.664063-1.15625 15.261719-11.542969 10.910157-20.25zm0 0" fill="#80c0e4"/><path d="m358.140625 276.691406-146.378906 74.019532 36.796875 72.773437c4.507812.835937 9.09375 1.273437 13.695312 1.273437 28.097656 0 53.679688-15.4375 66.757813-40.289062 2.210937-4.195312 6.527343-6.96875 11.261719-7.234375 20.542968-1.152344 39.277343-10.351563 52.753906-25.902344.609375-.703125 1.1875-1.425781 1.769531-2.148437zm0 0" fill="#5ba0d3"/><path d="m78.230469 277.351562-76.734375 153.542969c-4.351563 8.707031 1.246094 19.09375 10.910156 20.25l61.667969 7.359375c3.238281.386719 6.246093 1.890625 8.5 4.246094l42.90625 44.902344c6.726562 7.035156 18.390625 5.277344 22.742187-3.429688l76.734375-153.542968zm0 0" fill="#80c0e4"/><path d="m77.675781 278.015625-35.296875 71.472656c.503906.617188.996094 1.238281 1.519532 1.84375 13.476562 15.550781 32.210937 24.75 52.757812 25.902344 4.734375.265625 9.046875 3.039063 11.257812 7.234375 13.078126 24.851562 38.65625 40.289062 66.757813 40.289062h.003906c4.753907 0 9.492188-.460937 14.144531-1.355468l35.929688-72.753906zm0 0" fill="#5ba0d3"/><path d="m99.0625 419.128906 29.328125 30.691406 58.941406-117.945312-71.480469-35.722656-58.941406 117.945312zm0 0" fill="#eee07d"/><path d="m337.863281 419.128906-29.332031 30.691406-58.941406-117.945312 71.484375-35.722656 58.941406 117.945312zm0 0" fill="#eee07d"/><path d="m359.953125 373.484375-39.34375-77.8125-71.316406 36.058594 43.734375 86.492187c15.171875-6.761718 27.941406-18.472656 35.984375-33.753906 2.210937-4.195312 6.523437-6.96875 11.257812-7.234375 6.804688-.382813 13.402344-1.664063 19.683594-3.75zm0 0" fill="#e1ba68"/><path d="m187.039062 332.023438-71.652343-35.386719-38.019531 76.984375c6.160156 2.007812 12.625 3.242187 19.285156 3.613281 4.734375.265625 9.050781 3.039063 11.257812 7.234375 8.125 15.4375 21.074219 27.238281 36.449219 33.964844zm0 0" fill="#e1ba68"/><path d="m38.347656 258.234375c12.652344 9.171875 19.5625 24.304687 18.210938 39.871094-2.175782 25.011719 16.761718 46.867187 41.828125 48.273437 15.597656.875 29.597656 9.871094 36.875 23.695313 11.691406 22.21875 39.4375 30.363281 61.285156 17.996093 13.59375-7.695312 30.234375-7.695312 43.832031 0 21.84375 12.367188 49.59375 4.222657 61.285156-17.996093 7.277344-13.824219 21.273438-22.820313 36.875-23.695313 25.0625-1.410156 44-23.261718 41.828126-48.273437-1.355469-15.566407 5.558593-30.699219 18.207031-39.871094 20.328125-14.734375 24.441406-43.359375 9.089843-63.222656-9.554687-12.363281-11.921874-28.832031-6.238281-43.386719 9.132813-23.382812-2.878906-49.6875-26.53125-58.101562-14.722656-5.234376-25.617187-17.808594-28.707031-33.125-4.957031-24.609376-29.285156-40.246094-53.730469-34.53125-15.214843 3.554687-31.179687-1.132813-42.058593-12.351563-17.476563-18.019531-46.394532-18.019531-63.871094 0-10.878906 11.214844-26.84375 15.902344-42.058594 12.351563-24.445312-5.714844-48.773438 9.921874-53.734375 34.53125-3.085937 15.316406-13.980469 27.890624-28.703125 33.125-23.652344 8.414062-35.664062 34.71875-26.535156 58.101562 5.6875 14.554688 3.316406 31.023438-6.234375 43.386719-15.351563 19.863281-11.238281 48.488281 9.085937 63.222656zm0 0" fill="#e1738c"/><path d="m356.988281 196.925781c0 76.507813-62.019531 138.527344-138.527343 138.527344-76.503907 0-138.523438-62.019531-138.523438-138.527344 0-76.503906 62.019531-138.527343 138.523438-138.527343 76.507812 0 138.527343 62.023437 138.527343 138.527343zm0 0" fill="#eee07d"/><path d="m110.839844 196.925781c0-71.28125 53.84375-129.976562 123.074218-137.664062-5.074218-.5625-10.226562-.863281-15.453124-.863281-76.503907 0-138.523438 62.019531-138.523438 138.527343 0 76.507813 62.019531 138.527344 138.523438 138.527344 5.226562 0 10.378906-.300781 15.453124-.863281-69.230468-7.683594-123.074218-66.382813-123.074218-137.664063zm0 0" fill="#e1ba68"/><g fill="#d74a6c"><path d="m206.382812 139.863281c-2.101562-10.480469-10.183593-17.695312-18.050781-16.117187-7.871093 1.578125-12.546875 11.351562-10.445312 21.828125 2.101562 10.480469 10.183593 17.695312 18.050781 16.117187 7.871094-1.578125 12.546875-11.351562 10.445312-21.828125zm0 0"/><path d="m158.085938 165.398438c-4.328126-9.773438-13.785157-15.0625-21.121094-11.8125-7.339844 3.25-9.78125 13.804687-5.457032 23.578124 4.328126 9.769532 13.78125 15.058594 21.121094 11.8125 7.339844-3.25 9.78125-13.804687 5.457032-23.578124zm0 0"/><path d="m248.617188 123.757812c-7.871094-1.578124-15.953126 5.640626-18.054688 16.117188-2.101562 10.480469 2.574219 20.253906 10.445312 21.832031 7.867188 1.578125 15.949219-5.640625 18.050782-16.117187 2.101562-10.480469-2.574219-20.253906-10.441406-21.832032zm0 0"/><path d="m299.945312 153.5625c-7.339843-3.25-16.796874 2.039062-21.121093 11.8125-4.328125 9.769531-1.886719 20.328125 5.453125 23.574219 7.339844 3.25 16.796875-2.039063 21.121094-11.8125 4.328124-9.769531 1.882812-20.328125-5.453126-23.574219zm0 0"/><path d="m262.980469 204.417969c-21.144531 0-20.089844-20.738281-44.519531-20.738281-24.425782 0-23.375 20.738281-44.519532 20.738281-16.464844 0-34.917968 27.417969-19.890625 52.371093 15.027344 24.957032 39.277344 7.734376 64.410157 7.734376 25.132812 0 49.386718 17.222656 64.414062-7.734376 15.027344-24.957031-3.425781-52.371093-19.894531-52.371093zm0 0"/></g></svg>