<svg height="512pt" viewBox="-68 0 512 512.00077" width="512pt" xmlns="http://www.w3.org/2000/svg"><g fill="#a6adb9"><path d="m45.773438 0c-9.957032 0-18.03125 8.074219-18.03125 18.03125v126.585938h36.066406v-126.585938c0-9.957031-8.074219-18.03125-18.035156-18.03125zm0 0"/><path d="m330.175781 0c9.960938 0 18.03125 8.074219 18.03125 18.03125v126.585938h-36.0625v-126.585938c0-9.957031 8.074219-18.03125 18.03125-18.03125zm0 0"/><path d="m259.074219 0c9.960937 0 18.035156 8.074219 18.035156 18.03125v126.585938h-36.066406v-126.585938c0-9.957031 8.074219-18.03125 18.03125-18.03125zm0 0"/><path d="m187.976562 0c9.957032 0 18.03125 8.074219 18.03125 18.03125v126.585938h-36.066406v-126.585938c0-9.957031 8.074219-18.03125 18.035156-18.03125zm0 0"/><path d="m116.875 0c9.957031 0 18.03125 8.074219 18.03125 18.03125v126.585938h-36.0625v-126.585938c0-9.957031 8.070312-18.03125 18.03125-18.03125zm0 0"/></g><path d="m348.207031 93.101562h-36.0625v51.515626h36.0625zm0 0" fill="#8895a2"/><path d="m241.042969 93.101562h36.066406v51.515626h-36.066406zm0 0" fill="#8895a2"/><path d="m169.941406 93.101562h36.066406v51.515626h-36.066406zm0 0" fill="#8895a2"/><path d="m98.84375 93.101562h36.0625v51.515626h-36.0625zm0 0" fill="#8895a2"/><path d="m27.742188 93.101562v51.515626h36.066406v-51.515626zm0 0" fill="#8895a2"/><path d="m375.949219 151.738281v35.46875l-187.972657 21.296875-187.976562-21.296875v-35.46875c0-15.3125 12.429688-27.730469 27.742188-27.730469h320.464843c15.316407 0 27.742188 12.417969 27.742188 27.730469zm0 0" fill="#a6adb9"/><path d="m30.90625 187.207031v-35.46875c0-15.3125 12.429688-27.730469 27.742188-27.730469h-30.90625c-15.3125 0-27.742188 12.417969-27.742188 27.730469v35.46875l187.976562 21.296875 15.453126-1.75zm0 0" fill="#8895a2"/><path d="m224.539062 295.066406-36.5625-28.164062-36.5625 28.167968c0 116.9375-36.179687 156.726563-9.929687 193.273438 22.65625 31.542969 70.328125 31.542969 92.980469 0 26.25-36.546875-9.925782-76.335938-9.925782-193.277344zm-36.5625 167.972656c-11.09375 0-20.085937-12.609374-20.085937-28.164062 0-15.558594 8.992187-28.167969 20.085937-28.167969 11.089844 0 20.082032 12.609375 20.082032 28.167969 0 15.554688-8.992188 28.164062-20.082032 28.164062zm0 0" fill="#e1738c"/><path d="m224.539062 295.066406-36.5625-28.167968-36.5625 28.167968c0 10.960938-.320312 21.246094-.875 30.910156h74.871094c-.554687-9.664062-.871094-19.949218-.871094-30.910156zm0 0" fill="#d74a6c"/><path d="m375.949219 187.207031v23.425781c0 46.628907-37.808594 84.4375-84.441407 84.4375h-207.066406c-46.632812 0-84.441406-37.808593-84.441406-84.4375v-23.425781zm0 0" fill="#e1738c"/><path d="m30.90625 210.632812v-23.425781h-30.90625v23.425781c0 46.628907 37.8125 84.4375 84.441406 84.4375h30.90625c-46.632812 0-84.441406-37.808593-84.441406-84.4375zm0 0" fill="#d74a6c"/><path d="m108.414062 252.222656c-4.269531 0-7.726562-3.457031-7.726562-7.726562v-14.398438c0-4.265625 3.457031-7.726562 7.726562-7.726562 4.265626 0 7.726563 3.460937 7.726563 7.726562v14.398438c0 4.269531-3.460937 7.726562-7.726563 7.726562zm0 0" fill="#424952"/><path d="m267.539062 252.222656c-4.269531 0-7.726562-3.457031-7.726562-7.726562v-14.398438c0-4.265625 3.457031-7.726562 7.726562-7.726562 4.265626 0 7.726563 3.460937 7.726563 7.726562v14.398438c0 4.269531-3.460937 7.726562-7.726563 7.726562zm0 0" fill="#424952"/><path d="m187.976562 259.910156c-9.882812 0-19.164062-4.128906-25.457031-11.332031-2.808593-3.210937-2.480469-8.09375.734375-10.902344 3.210938-2.804687 8.09375-2.480469 10.902344.734375 3.359375 3.84375 8.394531 6.046875 13.820312 6.046875 5.421876 0 10.460938-2.203125 13.820313-6.046875 2.808594-3.214844 7.6875-3.542968 10.902344-.734375 3.210937 2.808594 3.539062 7.691407.730469 10.902344-6.292969 7.203125-15.570313 11.332031-25.453126 11.332031zm0 0" fill="#424952"/></svg>