<svg height="512pt" viewBox="0 -61 512 512" width="512pt" xmlns="http://www.w3.org/2000/svg"><path d="m512 313.609375v31.808594c0 24.367187-19.757812 44.125-44.125 44.125h-423.75c-24.367188 0-44.125-19.757813-44.125-44.125v-31.808594l256-19.886719zm0 0" fill="#eee07d"/><path d="m30.90625 345.417969v-31.808594l240.546875-18.683594-15.453125-1.203125-256 19.886719v31.808594c0 24.367187 19.757812 44.125 44.125 44.125h30.90625c-24.367188 0-44.125-19.757813-44.125-44.125zm0 0" fill="#e1ba68"/><path d="m45.847656 76.789062s44.988282-76.789062 210.152344-76.789062 210.152344 76.789062 210.152344 76.789062v146.371094h-420.304688zm0 0" fill="#e1738c"/><path d="m466.152344 76.789062s-7.34375-12.523437-26.96875-27.457031c-13.121094 3.414063-25.515625 9.324219-36.648438 17.597657-18.535156 13.765624-31.851562 32.730468-38.515625 54.835937l-12.441406 41.285156c-2.667969 8.851563-10.671875 14.796875-19.910156 14.796875h-151.335938c-9.238281 0-17.242187-5.945312-19.90625-14.792968l-12.445312-41.289063c-6.664063-22.105469-19.980469-41.070313-38.515625-54.835937-11.136719-8.273438-23.527344-14.183594-36.648438-17.597657-19.628906 14.933594-26.972656 27.457031-26.972656 27.457031v146.371094h420.308594zm0 0" fill="#d74a6c"/><path d="m417.09375 173.644531c0-35.214843-72.125-63.761719-161.09375-63.761719s-161.09375 28.546876-161.09375 63.761719c0 35.214844 72.125 63.757813 161.09375 63.757813s161.09375-28.542969 161.09375-63.757813zm0 0" fill="#e9e9e9"/><path d="m256 237.402344c88.96875 0 161.09375-28.542969 161.09375-63.757813 0-19.003906-21.007812-36.058593-54.324219-47.738281l-11.191406 37.144531c-2.667969 8.851563-10.671875 14.796875-19.910156 14.796875h-151.335938c-9.238281 0-17.242187-5.945312-19.90625-14.792968l-11.195312-37.148438c-33.316407 11.679688-54.324219 28.734375-54.324219 47.738281 0 35.214844 72.125 63.757813 161.09375 63.757813zm0 0" fill="#d3d2d8"/><path d="m512 101.808594v211.800781h-512v-211.800781c0-13.816406 11.203125-25.019532 25.027344-25.019532h20.820312c33.421875 0 62.898438 21.894532 72.542969 53.894532l12.445313 41.289062c6.582031 21.832032 26.695312 36.777344 49.496093 36.777344h151.335938c22.800781 0 42.917969-14.945312 49.5-36.777344l12.445312-41.289062c9.644531-32 39.121094-53.894532 72.542969-53.894532h20.816406c13.824219 0 25.027344 11.203126 25.027344 25.019532zm0 0" fill="#e1738c"/><path d="m52.246094 77.0625c-2.113282-.179688-4.246094-.273438-6.398438-.273438h-20.820312c-13.824219 0-25.027344 11.203126-25.027344 25.019532v211.800781h30.90625v-211.800781c0-12.5625 9.261719-22.964844 21.339844-24.746094zm0 0" fill="#d74a6c"/><g fill="#424952"><path d="m160.101562 268.492188c-4.265624 0-7.726562-3.457032-7.726562-7.722657v-17.359375c0-4.265625 3.460938-7.726562 7.726562-7.726562 4.265626 0 7.726563 3.460937 7.726563 7.726562v17.359375c0 4.265625-3.460937 7.722657-7.726563 7.722657zm0 0"/><path d="m351.898438 268.492188c-4.265626 0-7.726563-3.457032-7.726563-7.722657v-17.359375c0-4.265625 3.460937-7.726562 7.726563-7.726562 4.265624 0 7.726562 3.460937 7.726562 7.726562v17.359375c0 4.265625-3.460938 7.722657-7.726562 7.722657zm0 0"/><path d="m256 277.757812c-11.453125 0-22.203125-4.78125-29.488281-13.113281-2.808594-3.210937-2.480469-8.09375.734375-10.902343 3.210937-2.808594 8.09375-2.480469 10.902344.734374 4.347656 4.976563 10.855468 7.828126 17.851562 7.828126s13.5-2.855469 17.851562-7.828126c2.808594-3.214843 7.691407-3.542968 10.902344-.734374 3.214844 2.808593 3.542969 7.691406.734375 10.902343-7.285156 8.332031-18.035156 13.113281-29.488281 13.113281zm0 0"/></g></svg>