<svg height="512pt" viewBox="-1 0 512 512.0003" width="512pt" xmlns="http://www.w3.org/2000/svg"><path d="m19.414062 303.292969v208.707031h122.644532l112.542968-20.320312 116.078126 20.320312h119.109374v-208.707031zm0 0" fill="#eee07d"/><path d="m119.640625 14.226562c-16.691406-9.625-38.4375-18.363281-57.847656-12.132812-15.664063 5.027344-19.742188 17.128906-22.414063 31.878906-1.445312 7.984375-5.535156 14.863282-10.421875 21.210938-5.773437 7.503906-13.410156 15.539062-13.503906 25.617187-.089844 10.273438 8.042969 19.441407 17.421875 22.71875 17.570312 6.140625 37.164062-6.601562 49.867188-17.617187 1.515624-1.316406 3.003906-2.664063 4.425781-4.082032zm0 0" fill="#d2614c"/><path d="m217.261719 14.226562c16.691406-9.625 38.4375-18.363281 57.851562-12.132812 15.660157 5.027344 19.742188 17.128906 22.414063 31.878906 1.445312 7.984375 5.535156 14.863282 10.421875 21.210938 5.773437 7.503906 13.410156 15.539062 13.5 25.617187.09375 10.273438-8.039063 19.441407-17.421875 22.71875-17.566406 6.140625-37.164063-6.601562-49.863282-17.617187-1.515624-1.316406-3.003906-2.664063-4.429687-4.082032zm0 0" fill="#d2614c"/><path d="m284.175781 209.945312c0-95.058593-13.085937-206.652343-115.722656-206.652343s-115.726563 111.59375-115.726563 206.652343l115.726563 27.726563zm0 0" fill="#e08778"/><path d="m277.289062 154.492188s-24.378906-24.058594-15.402343-70.316407c.609375-3.140625 3.054687-5.601562 6.195312-6.226562 45.875-9.128907 64.421875 13.125 64.421875 13.125zm0 0" fill="#e1ba68"/><path d="m476.363281 154.492188s24.378907-24.058594 15.402344-70.316407c-.609375-3.140625-3.058594-5.601562-6.195313-6.226562-45.875-9.128907-64.421874 13.125-64.421874 13.125zm0 0" fill="#e1ba68"/><path d="m376.824219 81.820312c-61.058594 0-110.554688 49.5-110.554688 110.558594v38.230469h221.117188v-38.230469c-.003907-61.058594-49.5-110.558594-110.5625-110.558594zm0 0" fill="#eee07d"/><g fill="#424952"><path d="m324.527344 137.484375c-4.265625 0-7.726563 3.457031-7.726563 7.726563v9.464843c0 4.265625 3.460938 7.726563 7.726563 7.726563s7.726562-3.460938 7.726562-7.726563v-9.464843c0-4.269532-3.460937-7.726563-7.726562-7.726563zm0 0"/><path d="m429.125 137.484375c-4.269531 0-7.726562 3.457031-7.726562 7.726563v9.464843c0 4.265625 3.457031 7.726563 7.726562 7.726563 4.265625 0 7.722656-3.460938 7.722656-7.726563v-9.464843c0-4.269532-3.457031-7.726563-7.722656-7.726563zm0 0"/><path d="m362.625 158.269531c4.316406 1.859375 9.128906 2.898438 14.199219 2.898438 5.074219 0 9.886719-1.039063 14.203125-2.898438 4.53125-1.953125 3.148437-8.707031-1.785156-8.707031h-24.832032c-4.933594 0-6.316406 6.757812-1.785156 8.707031zm0 0"/><path d="m405.054688 166.617188c-3.210938-2.808594-8.09375-2.480469-10.902344.730468-1.378906 1.578125-3.472656 2.480469-5.753906 2.480469s-4.378907-.902344-5.757813-2.480469c-2.933594-3.355468-8.558594-3.519531-11.632813 0-1.375 1.578125-3.472656 2.480469-5.753906 2.480469s-4.378906-.90625-5.753906-2.480469c-2.808594-3.210937-7.691406-3.539062-10.902344-.730468-3.214844 2.808593-3.542968 7.6875-.730468 10.902343 4.3125 4.933594 10.648437 7.761719 17.386718 7.761719 4.132813 0 8.113282-1.070312 11.570313-3.03125 3.460937 1.960938 7.441406 3.03125 11.574219 3.03125 6.738281 0 13.078124-2.832031 17.390624-7.761719 2.804688-3.210937 2.476563-8.09375-.734374-10.902343zm0 0"/><path d="m112.023438 91.777344c-4.265626 0-7.726563 3.457031-7.726563 7.726562v10.210938c0 4.265625 3.460937 7.726562 7.726563 7.726562 4.269531 0 7.726562-3.460937 7.726562-7.726562v-10.210938c0-4.269531-3.457031-7.726562-7.726562-7.726562zm0 0"/><path d="m224.878906 91.777344c-4.265625 0-7.726562 3.457031-7.726562 7.726562v10.210938c0 4.265625 3.460937 7.726562 7.726562 7.726562s7.726563-3.460937 7.726563-7.726562v-10.210938c0-4.269531-3.460938-7.726562-7.726563-7.726562zm0 0"/><path d="m153.132812 113.59375c4.65625 2.007812 9.847657 3.128906 15.320313 3.128906s10.664063-1.121094 15.320313-3.128906c4.886718-2.105469 3.398437-9.394531-1.925782-9.394531h-26.792968c-5.320313 0-6.8125 7.289062-1.921876 9.394531zm0 0"/><path d="m198.507812 123.0625c-3.214843-2.808594-8.09375-2.484375-10.902343.730469-3.351563 3.835937-9.984375 3.832031-13.335938 0-3.027343-3.460938-8.609375-3.460938-11.632812 0-3.351563 3.835937-9.988281 3.832031-13.335938 0-2.808593-3.214844-7.691406-3.542969-10.902343-.730469-3.214844 2.804688-3.542969 7.6875-.734376 10.902344 4.535157 5.1875 11.207032 8.164062 18.304688 8.164062 4.472656 0 8.777344-1.183594 12.484375-3.359375 3.707031 2.175781 8.011719 3.359375 12.484375 3.359375 7.097656 0 13.769531-2.976562 18.304688-8.164062 2.808593-3.214844 2.480468-8.097656-.734376-10.902344zm0 0"/></g><path d="m19.414062 353.820312h470.375v-50.523437h-470.375zm0 0" fill="#e1ba68"/><path d="m489.789062 209.945312h-470.375c-10.722656 0-19.414062 8.691407-19.414062 19.414063v74.140625c0 10.722656 8.691406 19.414062 19.414062 19.414062h470.375c10.722657 0 19.414063-8.691406 19.414063-19.414062v-74.140625c0-10.722656-8.691406-19.414063-19.414063-19.414063zm0 0" fill="#80c0e4"/><path d="m48.066406 233.132812c0-2.527343 2.324219-4.75 5.863282-4.75h20.929687c13.34375 0 23.859375 6.265626 23.859375 23.25v.507813c0 16.984375-10.921875 23.453125-24.871094 23.453125h-10.007812v21.839844c0 3.234375-3.945313 4.851562-7.886719 4.851562s-7.886719-1.617187-7.886719-4.851562zm15.769532 9v21.332032h10.007812c5.664062 0 9.101562-3.238282 9.101562-10.109375v-1.113281c0-6.875-3.4375-10.109376-9.101562-10.109376zm0 0" fill="#e9e9e9"/><path d="m121.359375 259.214844h15.164063c3.035156 0 4.75 2.933594 4.75 6.167968 0 2.730469-1.414063 5.964844-4.75 5.964844h-15.164063v17.1875h27.09375c3.035156 0 4.753906 3.234375 4.753906 6.976563 0 3.234375-1.417969 6.773437-4.753906 6.773437h-35.988281c-3.441406 0-6.875-1.617187-6.875-4.851562v-64.199219c0-3.234375 3.4375-4.851563 6.875-4.851563h35.988281c3.335937 0 4.753906 3.539063 4.753906 6.773438 0 3.738281-1.71875 6.976562-4.753906 6.976562h-27.09375zm0 0" fill="#e9e9e9"/><path d="m203.851562 228.382812c3.335938 0 4.753907 3.636719 4.753907 6.976563 0 3.839844-1.71875 7.175781-4.753907 7.175781h-13.949218v54.898438c0 3.234375-3.941406 4.851562-7.886719 4.851562-3.941406 0-7.886719-1.617187-7.886719-4.851562v-54.898438h-13.949218c-3.035157 0-4.753907-3.335937-4.753907-7.175781 0-3.335937 1.417969-6.976563 4.753907-6.976563zm0 0" fill="#e9e9e9"/><path d="m265.417969 282.46875c0-12.230469-32.046875-10.109375-32.046875-33.765625 0-15.164063 13.242187-20.925781 25.878906-20.925781 5.359375 0 20.121094 1.007812 20.121094 8.894531 0 2.730469-1.820313 8.289063-6.269532 8.289063-3.640624 0-5.558593-3.839844-13.851562-3.839844-7.179688 0-10.109375 2.929687-10.109375 6.066406 0 10.109375 32.046875 8.1875 32.046875 33.664062 0 14.558594-10.613281 22.441407-25.273438 22.441407-13.242187 0-24.363281-6.46875-24.363281-13.140625 0-3.4375 3.03125-8.492188 6.875-8.492188 4.75 0 7.785157 7.480469 17.1875 7.480469 4.648438 0 9.804688-1.820313 9.804688-6.671875zm0 0" fill="#e9e9e9"/><path d="m324.863281 270.035156h-20.117187v27.398438c0 3.234375-3.945313 4.851562-7.886719 4.851562-3.945313 0-7.886719-1.617187-7.886719-4.851562v-64.300782c0-3.335937 3.941406-4.75 7.886719-4.75 3.941406 0 7.886719 1.414063 7.886719 4.75v24.769532h20.117187v-24.769532c0-3.335937 3.941407-4.75 7.882813-4.75 3.945312 0 7.886718 1.414063 7.886718 4.75v64.300782c0 3.234375-3.941406 4.851562-7.886718 4.851562-3.941406 0-7.882813-1.617187-7.882813-4.851562zm0 0" fill="#e9e9e9"/><path d="m350.738281 279.03125v-26.789062c0-17.390626 10.820313-23.859376 24.769531-23.859376 13.953126 0 24.871094 6.46875 24.871094 23.859376v26.789062c0 17.390625-10.917968 23.859375-24.871094 23.859375-13.949218 0-24.769531-6.46875-24.769531-23.859375zm33.871094-26.789062c0-6.976563-3.4375-10.109376-9.101563-10.109376-5.660156 0-8.996093 3.132813-8.996093 10.109376v26.789062c0 6.976562 3.335937 10.109375 8.996093 10.109375 5.664063 0 9.101563-3.132813 9.101563-10.109375zm0 0" fill="#e9e9e9"/><path d="m410.488281 233.132812c0-2.527343 2.324219-4.75 5.863281-4.75h20.925782c13.347656 0 23.859375 6.265626 23.859375 23.25v.507813c0 16.984375-10.917969 23.453125-24.871094 23.453125h-10.007813v21.839844c0 3.234375-3.941406 4.851562-7.882812 4.851562-3.945312 0-7.886719-1.617187-7.886719-4.851562zm15.769531 9v21.332032h10.007813c5.664063 0 9.101563-3.238282 9.101563-10.109375v-1.113281c0-6.875-3.4375-10.109376-9.101563-10.109376zm0 0" fill="#e9e9e9"/><path d="m370.679688 404.777344v107.222656h-116.078126l-36.851562-59.585938 36.851562-73.363281h90.359376c14.207031 0 25.71875 11.519531 25.71875 25.726563zm0 0" fill="#80c0e4"/><path d="m254.601562 379.050781v132.949219h-112.542968v-107.222656c0-14.207032 11.511718-25.726563 25.71875-25.726563zm0 0" fill="#5ba0d3"/></svg>