<svg height="512pt" viewBox="0 0 512 512" width="512pt" xmlns="http://www.w3.org/2000/svg"><path d="m348.203125 101.988281h-41.210937v-47.308593c0-7.429688-6.042969-13.472657-13.46875-13.472657h-75.046876c-7.425781 0-13.46875 6.042969-13.46875 13.472657v47.308593h-41.210937v-47.308593c0-30.152344 24.53125-54.679688 54.679687-54.679688h75.046876c30.148437 0 54.679687 24.527344 54.679687 54.679688zm0 0" fill="#e1738c"/><path d="m30.332031 299.964844 29.140625 165.9375c4.628906 26.359375 27.523438 45.582031 54.28125 45.582031h284.488282c26.761718 0 49.65625-19.222656 54.285156-45.582031l29.140625-165.9375-225.667969-30.332032zm0 0" fill="#80c0e4"/><path d="m90.378906 465.902344-29.140625-165.9375 210.214844-28.257813-15.453125-2.074219-225.667969 30.332032 29.140625 165.9375c4.628906 26.359375 27.523438 45.582031 54.28125 45.582031h30.90625c-26.761718 0-49.652344-19.222656-54.28125-45.582031zm0 0" fill="#5ba0d3"/><path d="m348.203125 101.988281v-47.308593c0-.992188-.03125-1.976563-.085937-2.957032h-41.460938c.214844.953125.335938 1.941406.335938 2.957032v47.308593zm0 0" fill="#d74a6c"/><path d="m163.882812 51.726562c-.054687.976563-.085937 1.960938-.085937 2.953126v47.308593h41.210937v-47.308593c0-1.015626.121094-2.003907.335938-2.957032h-41.460938zm0 0" fill="#d74a6c"/><path d="m456.066406 137.613281c-8.136718-32.324219-37.207031-54.984375-70.539062-54.984375h-259.054688c-33.332031 0-62.402344 22.660156-70.539062 54.984375l-25.601563 101.683594 225.667969 30.335937 225.667969-30.335937zm0 0" fill="#eee07d"/><path d="m61.238281 239.296875 25.601563-101.683594c8.136718-32.324219 37.203125-54.984375 70.539062-54.984375h-30.90625c-33.332031 0-62.402344 22.660156-70.539062 54.984375l-25.601563 101.683594 225.667969 30.335937 15.453125-2.078124zm0 0" fill="#e1ba68"/><path d="m168.6875 177.496094c-4.265625 0-7.726562-3.460938-7.726562-7.726563v-15.800781c0-4.269531 3.460937-7.726562 7.726562-7.726562s7.726562 3.457031 7.726562 7.726562v15.800781c0 4.265625-3.460937 7.726563-7.726562 7.726563zm0 0" fill="#424952"/><path d="m343.3125 177.496094c-4.265625 0-7.726562-3.460938-7.726562-7.726563v-15.800781c0-4.269531 3.460937-7.726562 7.726562-7.726562s7.726562 3.457031 7.726562 7.726562v15.800781c0 4.265625-3.460937 7.726563-7.726562 7.726563zm0 0" fill="#424952"/><path d="m256 185.929688c-10.628906 0-20.605469-4.4375-27.367188-12.175782-2.808593-3.210937-2.480468-8.09375.730469-10.902344 3.214844-2.808593 8.09375-2.480468 10.902344.734376 3.832031 4.378906 9.566406 6.890624 15.734375 6.890624s11.902344-2.511718 15.730469-6.890624c2.8125-3.214844 7.691406-3.542969 10.902343-.734376 3.214844 2.808594 3.542969 7.691407.734376 10.902344-6.761719 7.738282-16.738282 12.175782-27.367188 12.175782zm0 0" fill="#424952"/><g fill="#5ba0d3"><path d="m123.882812 339.859375c-12.894531 0-23.351562 10.457031-23.351562 23.355469v87.082031c0 12.898437 10.457031 23.355469 23.351562 23.355469 12.898438 0 23.355469-10.457032 23.355469-23.355469v-87.082031c0-12.898438-10.457031-23.355469-23.355469-23.355469zm0 0"/><path d="m211.960938 339.859375c-12.898438 0-23.351563 10.457031-23.351563 23.355469v87.082031c0 12.898437 10.453125 23.355469 23.351563 23.355469 12.898437 0 23.355468-10.457032 23.355468-23.355469v-87.082031c0-12.898438-10.457031-23.355469-23.355468-23.355469zm0 0"/><path d="m300.039062 339.859375c-12.898437 0-23.355468 10.457031-23.355468 23.355469v87.082031c0 12.898437 10.457031 23.355469 23.355468 23.355469 12.898438 0 23.351563-10.457032 23.351563-23.355469v-87.082031c0-12.898438-10.453125-23.355469-23.351563-23.355469zm0 0"/><path d="m388.117188 339.859375c-12.898438 0-23.355469 10.457031-23.355469 23.355469v87.082031c0 12.898437 10.457031 23.355469 23.355469 23.355469 12.894531 0 23.351562-10.457032 23.351562-23.355469v-87.082031c0-12.898438-10.457031-23.355469-23.351562-23.355469zm0 0"/></g><path d="m481.667969 239.296875h-451.335938c-16.75 0-30.332031 13.582031-30.332031 30.335937 0 16.75 13.582031 30.332032 30.332031 30.332032h451.335938c16.753906 0 30.332031-13.582032 30.332031-30.332032 0-16.753906-13.582031-30.335937-30.332031-30.335937zm0 0" fill="#e1738c"/><path d="m30.90625 269.632812c0-16.753906 13.578125-30.335937 30.332031-30.335937h-30.90625c-16.75 0-30.332031 13.582031-30.332031 30.335937 0 16.75 13.582031 30.332032 30.332031 30.332032h30.90625c-16.753906 0-30.332031-13.582032-30.332031-30.332032zm0 0" fill="#d74a6c"/></svg>