<svg height="512pt" viewBox="-71 0 512 512" width="512pt" xmlns="http://www.w3.org/2000/svg"><path d="m369.414062 425.320312c0 .816407-.007812 1.632813-.03125 2.4375-1.113281 47.023438-40.261718 84.242188-87.296874 84.242188h-194.757813c-47.03125 0-86.183594-37.21875-87.296875-84.242188-.0195312-.804687-.03125-1.621093-.03125-2.4375l184.707031-21.667968zm0 0" fill="#cbe7f8"/><path d="m30.9375 427.757812c-.023438-.804687-.03125-1.621093-.03125-2.4375l169.253906-19.855468-15.453125-1.8125-184.707031 21.667968c0 .816407.0117188 1.632813.03125 2.4375 1.113281 47.023438 40.265625 84.242188 87.296875 84.242188h30.90625c-47.035156 0-86.183594-37.21875-87.296875-84.242188zm0 0" fill="#80c0e4"/><path d="m369.414062 180.765625-184.707031 25.796875-184.707031-25.796875c0-58.816406 50.273438-86.679687 50.273438-86.679687l134.433593-17.4375 134.433594 17.4375s50.273437 27.863281 50.273437 86.679687zm0 0" fill="#cbe7f8"/><path d="m30.90625 180.765625c0-58.816406 50.273438-86.679687 50.273438-86.679687l118.980468-15.433594-15.453125-2.003906-134.433593 17.4375s-50.273438 27.863281-50.273438 86.679687l184.707031 25.796875 15.453125-2.160156zm0 0" fill="#80c0e4"/><path d="m344.859375 62.113281-6.273437-28.59375c-4.292969-19.574219-21.628907-33.519531-41.667969-33.519531h-224.421875c-20.039063 0-37.375 13.945312-41.667969 33.519531l-6.273437 28.59375c-3.601563 16.425781 8.90625 31.972657 25.722656 31.972657h268.859375c16.816406 0 29.324219-15.546876 25.722656-31.972657zm0 0" fill="#80c0e4"/><path d="m55.460938 62.113281 6.273437-28.59375c4.292969-19.574219 21.628906-33.519531 41.664063-33.519531h-30.902344c-20.039063 0-37.375 13.945312-41.667969 33.519531l-6.273437 28.59375c-3.601563 16.425781 8.90625 31.972657 25.722656 31.972657h30.90625c-16.816406 0-29.324219-15.546876-25.722656-31.972657zm0 0" fill="#5ba0d3"/><path d="m112.214844 57.828125c-4.269532 0-7.726563-3.460937-7.726563-7.726563v-13.121093c0-4.265625 3.457031-7.726563 7.726563-7.726563 4.265625 0 7.726562 3.460938 7.726562 7.726563v13.121093c0 4.265626-3.460937 7.726563-7.726562 7.726563zm0 0" fill="#424952"/><path d="m257.203125 57.828125c-4.269531 0-7.726563-3.460937-7.726563-7.726563v-13.121093c0-4.265625 3.457032-7.726563 7.726563-7.726563 4.265625 0 7.722656 3.460938 7.722656 7.726563v13.121093c0 4.265626-3.457031 7.726563-7.722656 7.726563zm0 0" fill="#424952"/><path d="m184.707031 64.832031c-9.203125 0-17.84375-3.847656-23.710937-10.558593-2.808594-3.214844-2.480469-8.09375.734375-10.902344 3.210937-2.808594 8.09375-2.480469 10.902343.730468 2.929688 3.355469 7.332032 5.277344 12.074219 5.277344 4.746094 0 9.144531-1.921875 12.074219-5.277344 2.808594-3.210937 7.691406-3.539062 10.902344-.730468 3.214844 2.808594 3.542968 7.6875.734375 10.902344-5.867188 6.710937-14.507813 10.558593-23.710938 10.558593zm0 0" fill="#424952"/><path d="m0 180.765625h369.414062v244.554687h-369.414062zm0 0" fill="#80c0e4"/><path d="m0 180.765625h30.90625v244.554687h-30.90625zm0 0" fill="#5ba0d3"/><g fill="#e9e9e9"><path d="m171.058594 238.96875c-2.375-11.84375-11.511719-20.003906-20.410156-18.21875-8.894532 1.785156-14.179688 12.832031-11.804688 24.679688 2.375 11.84375 11.511719 20 20.40625 18.21875 8.898438-1.785157 14.183594-12.835938 11.808594-24.679688zm0 0"/><path d="m116.453125 267.832031c-4.890625-11.046875-15.582031-17.027343-23.875-13.351562-8.296875 3.671875-11.058594 15.601562-6.167969 26.648437 4.890625 11.050782 15.582032 17.027344 23.875 13.355469 8.296875-3.671875 11.058594-15.605469 6.167969-26.652344zm0 0"/><path d="m218.792969 220.769531c-8.898438-1.785156-18.035157 6.371094-20.410157 18.21875-2.375 11.84375 2.910157 22.890625 11.808594 24.675781 8.894532 1.785157 18.03125-6.371093 20.40625-18.21875 2.375-11.84375-2.910156-22.894531-11.804687-24.675781zm0 0"/><path d="m276.816406 254.449219c-8.296875-3.671875-18.984375 2.304687-23.875 13.351562s-2.132812 22.980469 6.164063 26.652344 18.988281-2.304687 23.875-13.351563c4.890625-11.046874 2.132812-22.980468-6.164063-26.652343zm0 0"/><path d="m235.03125 311.941406c-23.902344 0-22.707031-23.445312-50.324219-23.445312-27.613281 0-26.421875 23.445312-50.324219 23.445312-18.613281 0-39.472656 30.992188-22.488281 59.199219 16.988281 28.210937 44.402344 8.742187 72.8125 8.742187 28.410157 0 55.824219 19.46875 72.8125-8.742187 16.988281-28.207031-3.875-59.199219-22.488281-59.199219zm0 0"/></g></svg>