<svg height="512pt" viewBox="-69 0 512 512" width="512pt" xmlns="http://www.w3.org/2000/svg"><path d="m163.496094 0h47.382812v91.207031h-47.382812zm0 0" fill="#424952"/><path d="m267.070312 216.445312-36.160156-19.746093 26.261719-48.089844-69.984375-34.441406-69.984375 34.441406 26.261719 48.085937-36.160156 19.75-36.566407-66.953124c-2.695312-4.929688-3.257812-10.742188-1.558593-16.097657 1.695312-5.351562 5.503906-9.78125 10.539062-12.261719l98.371094-48.410156c5.738281-2.824218 12.457031-2.824218 18.195312 0l98.367188 48.410156c5.039062 2.480469 8.847656 6.910157 10.542968 12.261719 1.695313 5.355469 1.132813 11.167969-1.558593 16.097657zm0 0" fill="#a6adb9"/><path d="m186.582031 224.140625c-5.417969-1.898437-11.566406.03125-14.644531 4.875-21.078125 33.148437-138.539062 31.492187-98.558594 116.4375l101.730469 23.511719 97.300781-43.222656 6.144532-24.683594.039062-.023438c-11.800781-44.253906-67.53125-68.308594-92.011719-76.894531zm0 0" fill="#d2614c"/><path d="m104.285156 345.453125c-39.515625-83.957031 74.746094-83.320313 97.765625-115.292969-5.851562-2.503906-11.148437-4.503906-15.46875-6.019531-5.417969-1.902344-11.566406.03125-14.648437 4.875-21.074219 33.148437-138.535156 31.492187-98.558594 116.4375l101.734375 23.511719 10.578125-4.699219zm0 0" fill="#ab4b3a"/><path d="m278.59375 301.035156s61.136719 29.183594 43.890625 76.128906l3.066406 51.96875-142.234375 7.761719-150.183594-7.457031c-70.339843-120.335938 218.816407-91.605469 245.460938-128.402344zm0 0" fill="#e08778"/><path d="m64.039062 429.4375c-25.363281-43.390625-3.984374-71.414062 34.972657-91.242188-56.804688 13.375-97.367188 37.367188-65.878907 91.242188l150.183594 7.457031 14.722656-.804687zm0 0" fill="#d2614c"/><path d="m19.433594 436.496094c77.070312-47.199219 292.175781-22.152344 303.050781-59.332032 0 0 64.085937 44.242188 49.816406 103.949219-4.347656 18.203125-20.867187 30.886719-39.585937 30.886719h-291.78125c-41.082032 0-56.535156-54.046875-21.5-75.503906zm0 0" fill="#d2614c"/><path d="m50.339844 426.195312c3.8125-2.335937 7.964844-4.542968 12.410156-6.632812-16.808594 4.300781-31.644531 9.785156-43.316406 16.933594-35.035156 21.457031-19.582032 75.503906 21.5 75.503906h30.90625c-41.085938 0-56.535156-64.347656-21.5-85.804688zm0 0" fill="#ab4b3a"/><g fill="#424952"><path d="m110.1875 472.226562c-4.269531 0-7.726562-3.460937-7.726562-7.726562v-13.9375c0-4.265625 3.457031-7.726562 7.726562-7.726562 4.265625 0 7.726562 3.460937 7.726562 7.726562v13.9375c0 4.265625-3.460937 7.726562-7.726562 7.726562zm0 0"/><path d="m264.1875 472.226562c-4.269531 0-7.726562-3.460937-7.726562-7.726562v-13.9375c0-4.265625 3.457031-7.726562 7.726562-7.726562 4.265625 0 7.726562 3.460937 7.726562 7.726562v13.9375c0 4.265625-3.460937 7.726562-7.726562 7.726562zm0 0"/><path d="m187.1875 479.664062c-9.636719 0-18.683594-4.027343-24.824219-11.050781-2.808593-3.210937-2.480469-8.09375.734375-10.902343 3.210938-2.804688 8.09375-2.480469 10.902344.734374 3.203125 3.664063 8.007812 5.765626 13.1875 5.765626 5.175781 0 9.984375-2.101563 13.1875-5.765626 2.808594-3.214843 7.6875-3.542968 10.902344-.734374 3.210937 2.808593 3.539062 7.691406.730468 10.902343-6.136718 7.023438-15.183593 11.050781-24.820312 11.050781zm0 0"/></g><path d="m178.089844 72.722656-53.738282 26.445313c1.8125 14.359375 8.433594 27.242187 18.214844 36.960937l44.621094-21.960937 44.621094 21.960937c9.78125-9.71875 16.402344-22.601562 18.210937-36.960937l-53.734375-26.445313c-5.738281-2.824218-12.457031-2.824218-18.195312 0zm0 0" fill="#8895a2"/><path d="m210.878906 38.066406c-7.242187-3.242187-15.257812-5.0625-23.691406-5.0625-8.4375 0-16.449219 1.820313-23.691406 5.0625v53.140625h47.382812zm0 0" fill="#383d43"/><path d="m219.632812 91.207031c0 17.917969-14.527343 32.445313-32.445312 32.445313-17.921875 0-32.445312-14.527344-32.445312-32.445313 0-17.921875 14.523437-32.449219 32.445312-32.449219 17.917969 0 32.445312 14.527344 32.445312 32.449219zm0 0" fill="#e1738c"/></svg>