<svg height="512pt" viewBox="0 -32 512.00078 512" width="512pt" xmlns="http://www.w3.org/2000/svg"><path d="m319.621094 201.632812h-36.128906v-38.828124c0-15.160157-12.332032-27.492188-27.492188-27.492188s-27.492188 12.332031-27.492188 27.492188v38.828124h-36.128906v-38.828124c0-35.078126 28.539063-63.621094 63.621094-63.621094 35.078125 0 63.617188 28.542968 63.617188 63.621094v38.828124zm0 0" fill="#6ec2a1"/><path d="m274.066406 0v130.152344c0 9.976562-8.089844 18.066406-18.066406 18.066406s-18.0625-8.089844-18.0625-18.066406v-130.152344zm0 0" fill="#8895a2"/><path d="m472.484375 287.65625c24.222656-15.96875 40.070313-43.609375 39.5-74.921875-.855469-47.230469-39.621094-85.648437-86.859375-86.105469-33-.320312-61.847656 17.582032-77.09375 44.261719-4.644531 8.125-13.234375 13.195313-22.59375 13.195313h-138.875c-9.359375 0-17.945312-5.070313-22.59375-13.195313-15.246094-26.679687-44.09375-44.582031-77.09375-44.261719-47.238281.457032-86 38.875-86.859375 86.105469-.570313 31.316406 15.28125 58.953125 39.5 74.921875-24.21875 15.96875-40.070313 43.605469-39.5 74.921875.855469 47.230469 39.621094 85.648437 86.859375 86.105469 33 .320312 61.847656-17.582032 77.09375-44.261719 4.648438-8.125 13.234375-13.195313 22.59375-13.195313h138.875c9.363281 0 17.949219 5.070313 22.59375 13.195313 15.25 26.679687 44.09375 44.582031 77.097656 44.261719 47.234375-.457032 86-38.875 86.855469-86.105469.570313-31.316406-15.277344-58.953125-39.5-74.921875zm0 0" fill="#7cdac2"/><path d="m30.921875 362.574219c-.433594-23.84375 8.652344-45.558594 23.710937-61.613281 7.027344-7.492188 7.027344-19.121094 0-26.613282-15.058593-16.050781-24.144531-37.765625-23.710937-61.613281.765625-42.289063 31.933594-77.492187 72.351563-84.726563-5.316407-.953124-10.796876-1.433593-16.398438-1.378906-47.238281.457032-86.003906 38.875-86.859375 86.105469-.570313 31.3125 15.28125 58.949219 39.5 74.921875-24.222656 15.96875-40.070313 43.605469-39.5 74.917969.855469 47.230469 39.621094 85.652343 86.859375 86.109375 5.601562.054687 11.082031-.429688 16.398438-1.378906-40.417969-7.234376-71.585938-42.4375-72.351563-84.730469zm0 0" fill="#6ec2a1"/><path d="m380.214844 287.65625c0-36.773438-55.613282-66.582031-124.214844-66.582031s-124.214844 29.808593-124.214844 66.582031c0 36.769531 55.613282 66.582031 124.214844 66.582031s124.214844-29.8125 124.214844-66.582031zm0 0" fill="#424952"/><g fill="#e9e9e9"><path d="m189.328125 298.195312c-4.265625 0-7.726563-3.460937-7.726563-7.726562v-12.066406c0-4.269532 3.460938-7.726563 7.726563-7.726563 4.269531 0 7.726563 3.457031 7.726563 7.726563v12.066406c0 4.265625-3.457032 7.726562-7.726563 7.726562zm0 0"/><path d="m322.671875 298.195312c-4.265625 0-7.726563-3.460937-7.726563-7.726562v-12.066406c0-4.269532 3.460938-7.726563 7.726563-7.726563s7.726563 3.457031 7.726563 7.726563v12.066406c0 4.265625-3.460938 7.726562-7.726563 7.726562zm0 0"/><path d="m256 304.636719c-8.644531 0-16.761719-3.617188-22.273438-9.921875-2.808593-3.214844-2.480468-8.09375.734376-10.902344 3.210937-2.808594 8.089843-2.480469 10.902343.730469 2.574219 2.949219 6.453125 4.640625 10.636719 4.640625s8.058594-1.691406 10.636719-4.640625c2.8125-3.210938 7.691406-3.539063 10.902343-.730469 3.214844 2.808594 3.542969 7.6875.734376 10.902344-5.511719 6.304687-13.628907 9.921875-22.273438 9.921875zm0 0"/></g></svg>