<svg height="512pt" viewBox="0 -9 512 512" width="512pt" xmlns="http://www.w3.org/2000/svg"><path d="m14.457031 34.589844h483.085938v424.886718h-483.085938zm0 0" fill="#cbe7f8"/><path d="m14.457031 34.589844h30.90625v424.886718h-30.90625zm0 0" fill="#80c0e4"/><path d="m243.941406 343.089844c-9.613281-13.832032-14.203125-31.203125-12.742187-47.972656 1.277343-14.695313 5.320312-29.054688 11.996093-42.210938l-25.828124-15.871094-29.941407 15.871094c-.054687.109375-.113281.210938-.167969.320312-17.632812 33.910157-22.582031 74.703126-10.109374 111.164063 2.464843 7.210937 5.535156 14.074219 8.765624 20.964844 0 0 61.53125-36.828125 61.875-37.03125-.582031.070312-3.484374-4.714844-3.847656-5.234375zm0 0" fill="#d2614c"/><path d="m412.457031 202.953125c-.941406-25.257813-21.742187-45.710937-47.007812-46.261719-9.992188-.21875-19.300781 2.617188-27.078125 7.628906-.976563.628907-2.238282-.066406-2.238282-1.226562v-.03125c0-34.25-27.765624-62.019531-62.019531-62.019531-26.417969 0-48.964843 16.53125-57.902343 39.804687-.359376.933594-1.523438 1.253906-2.273438.59375-8.871094-7.820312-20.511719-12.574218-33.269531-12.574218-19.421875 0-36.265625 11-44.664063 27.105468-.265625.507813-.796875.8125-1.367187.78125-.816407-.042968-1.640625-.074218-2.46875-.074218-26.84375 0-48.554688 21.988281-48.105469 48.9375.441406 26.378906 22.515625 47.289062 48.898438 47.289062h231.417968c27.183594 0 49.101563-22.542969 48.078125-49.953125zm0 0" fill="#7cdac2"/><g fill="#424952"><path d="m177.476562 213.25c-4.269531 0-7.726562-3.457031-7.726562-7.726562v-13.097657c0-4.265625 3.457031-7.726562 7.726562-7.726562 4.265626 0 7.726563 3.460937 7.726563 7.726562v13.097657c0 4.269531-3.460937 7.726562-7.726563 7.726562zm0 0"/><path d="m322.222656 213.25c-4.265625 0-7.726562-3.457031-7.726562-7.726562v-13.097657c0-4.265625 3.460937-7.726562 7.726562-7.726562 4.269532 0 7.726563 3.460937 7.726563 7.726562v13.097657c0 4.269531-3.457031 7.726562-7.726563 7.726562zm0 0"/><path d="m249.851562 220.242188c-9.191406 0-17.824218-3.84375-23.683593-10.542969-2.808594-3.214844-2.480469-8.09375.734375-10.902344 3.210937-2.808594 8.09375-2.480469 10.902344.730469 2.921874 3.34375 7.3125 5.261718 12.046874 5.261718 4.730469 0 9.121094-1.917968 12.042969-5.257812 2.808594-3.214844 7.6875-3.542969 10.902344-.734375s3.539063 7.691406.734375 10.902344c-5.859375 6.699219-14.488281 10.542969-23.679688 10.542969zm0 0"/><path d="m497.542969 0h-483.085938c-7.984375 0-14.457031 6.472656-14.457031 14.457031v40.261719c0 7.984375 6.472656 14.457031 14.457031 14.457031h483.085938c7.984375 0 14.457031-6.472656 14.457031-14.457031v-40.261719c0-7.984375-6.472656-14.457031-14.457031-14.457031zm0 0"/></g><path d="m30.90625 54.71875v-40.261719c0-7.984375 6.472656-14.457031 14.457031-14.457031h-30.90625c-7.984375 0-14.457031 6.472656-14.457031 14.457031v40.261719c0 7.984375 6.472656 14.457031 14.457031 14.457031h30.90625c-7.984375 0-14.457031-6.472656-14.457031-14.457031zm0 0" fill="#383d43"/><path d="m435.21875 474.101562c10.367188-13.679687 16.515625-30.726562 16.515625-49.214843 0-42.4375-32.414063-77.292969-73.832031-81.1875-13.710938-25.753907-40.816406-43.289063-72.027344-43.289063-32.507812 0-60.5625 19.015625-73.671875 46.527344-7.847656-3.789062-16.648437-5.914062-25.949219-5.914062-26.027344 0-48.160156 16.652343-56.351562 39.882812-6.730469-3.484375-14.363282-5.46875-22.464844-5.46875-27.027344 0-48.933594 21.910156-48.933594 48.933594 0 27.027344 21.90625 48.933594 48.933594 48.933594zm0 0" fill="#e08778"/><path d="m497.542969 424.886719h-483.085938c-7.984375 0-14.457031 6.472656-14.457031 14.457031v40.261719c0 7.984375 6.472656 14.457031 14.457031 14.457031h483.085938c7.984375 0 14.457031-6.472656 14.457031-14.457031v-40.261719c0-7.984375-6.472656-14.457031-14.457031-14.457031zm0 0" fill="#424952"/><path d="m30.90625 479.609375v-40.265625c0-7.980469 6.472656-14.453125 14.457031-14.453125h-30.90625c-7.984375-.003906-14.457031 6.46875-14.457031 14.453125v40.261719c0 7.984375 6.472656 14.457031 14.457031 14.457031h30.90625c-7.984375.003906-14.457031-6.46875-14.457031-14.453125zm0 0" fill="#383d43"/></svg>