<svg height="512pt" viewBox="-71 0 512 512" width="512pt" xmlns="http://www.w3.org/2000/svg"><path d="m70.320312 101.96875c-120.257812 292.984375-62.859374 410.03125-.519531 410.03125h230.988281c62.335938 0 119.738282-117.050781-.519531-410.03125l-114.453125-50.984375zm0 0" fill="#eee07d"/><path d="m101.226562 101.96875 99.972657-44.132812-15.382813-6.851563-115.496094 50.980469c-120.257812 292.988281-62.859374 410.035156-.519531 410.035156h30.90625c-62.339843 0-119.738281-117.046875.519531-410.03125zm0 0" fill="#e1ba68"/><path d="m128.066406 0h-6.191406c-23.367188 0-42.949219 17.6875-45.332031 40.945312l-6.222657 61.023438h229.945313l-6.222656-61.023438c-2.378907-23.257812-21.960938-40.945312-45.332031-40.945312h-6.191407l-57.746093 25.492188zm0 0" fill="#e9e9e9"/><path d="m135.578125 3.375-7.511719-3.375h-6.191406c-23.367188 0-42.949219 17.6875-45.332031 40.945312l-6.222657 61.023438h30.90625l6.222657-61.023438c1.761719-17.21875 12.957031-31.371093 28.128906-37.570312zm0 0" fill="#d3d2d8"/><path d="m242.519531 0v26.710938c0 13.398437-10.859375 24.273437-24.261719 24.273437h-65.925781c-13.402343 0-24.265625-10.875-24.265625-24.273437v-26.710938zm0 0" fill="#e1ba68"/><path d="m220.140625 157.808594-16.257813 30.980468 16.582032 37.230469 15.40625-29.355469c7.886718-15.027343.394531-33.542968-15.730469-38.855468zm0 0" fill="#d2614c"/><path d="m150.445312 157.808594 16.261719 30.980468-16.582031 37.230469-15.40625-29.355469c-7.886719-15.027343-.394531-33.542968 15.726562-38.855468zm0 0" fill="#d2614c"/><g fill="#e08778"><path d="m238.617188 238.777344c0 29.449218-23.875 53.320312-53.324219 53.320312s-53.320313-23.871094-53.320313-53.320312c0-29.449219 23.871094-53.320313 53.320313-53.320313s53.324219 23.871094 53.324219 53.320313zm0 0"/><path d="m268.574219 261.902344-45.617188 45.617187 24.980469 24.980469 20.636719-20.636719c13.796875-13.796875 13.796875-36.164062 0-49.960937zm0 0"/><path d="m268.574219 394.445312-20.636719-20.636718-24.980469 24.984375 45.617188 45.617187c13.796875-13.796875 13.796875-36.164062 0-49.964844zm0 0"/><path d="m235.707031 336.148438v34.011718h43.066407c18.78125 0 34.011718-15.226562 34.011718-34.011718zm0 0"/><path d="m102.015625 261.902344 45.617187 45.617187-24.980468 24.980469-20.636719-20.636719c-13.796875-13.796875-13.796875-36.164062 0-49.960937zm0 0"/><path d="m102.015625 394.445312 20.636719-20.636718 24.980468 24.984375-45.617187 45.617187c-13.796875-13.796875-13.796875-36.164062 0-49.964844zm0 0"/><path d="m134.878906 336.148438v34.011718h-43.0625c-18.785156 0-34.011718-15.226562-34.011718-34.011718zm0 0"/></g><path d="m275.398438 353.15625c0 49.761719-40.339844 90.101562-90.105469 90.101562-49.761719 0-90.101563-40.339843-90.101563-90.101562 0-49.765625 40.339844-90.105469 90.101563-90.105469 49.765625 0 90.105469 40.339844 90.105469 90.105469zm0 0" fill="#d2614c"/></svg>