<svg height="512px" viewBox="0 -68 512 511" width="512px" xmlns="http://www.w3.org/2000/svg"><path d="m90.476562 286.289062c0 39.117188 74.105469 70.824219 165.523438 70.824219s165.523438-31.707031 165.523438-70.824219l-165.523438-17.472656zm0 0" fill="#e9e9e9"/><path d="m421.523438 286.289062-165.523438-17.472656-165.523438 17.472656c0 11.871094 6.835938 23.054688 18.898438 32.882813h57.917969c27.132812 14.734375 57.609375 22.480469 88.707031 22.480469 31.09375 0 61.574219-7.746094 88.707031-22.480469h57.917969c12.0625-9.828125 18.898438-21.011719 18.898438-32.882813zm0 0" fill="#d3d2d8"/><path d="m87.761719 265.253906-59.183594 23.015625c-1.277344 22.539063-14.984375 43.878907-22.941406 54.484375-3.535157 4.710938-4.820313 10.730469-3.570313 16.484375 2.136719 9.855469 11.179688 16.683594 21.242188 16.003907 112.804687-7.625 152.21875-86.972657 152.21875-86.972657zm0 0" fill="#7cdac2"/><path d="m424.238281 265.253906 59.183594 23.015625c1.277344 22.539063 14.984375 43.878907 22.941406 54.484375 3.535157 4.710938 4.820313 10.730469 3.570313 16.484375-2.136719 9.855469-11.179688 16.683594-21.242188 16.003907-112.804687-7.625-152.21875-86.972657-152.21875-86.972657zm0 0" fill="#7cdac2"/><path d="m28.578125 231.109375 16.328125-66.644531c14.574219-59.488282 57.308594-108.097656 114.441406-130.167969h193.304688c57.132812 22.070313 99.867187 70.679687 114.441406 130.167969l16.328125 66.644531-227.421875 28.578125zm0 0" fill="#e08778"/><path d="m59.484375 231.109375 16.328125-66.644531c14.570312-59.488282 57.304688-108.097656 114.441406-130.167969h-30.90625c-57.132812 22.070313-99.867187 70.679687-114.441406 130.167969l-16.328125 66.644531 227.421875 28.578125 15.453125-1.941406zm0 0" fill="#d2614c"/><path d="m491.722656 318.582031c-4.273437-9.152343-7.695312-19.597656-8.300781-30.316406l-59.183594-23.011719-87.765625 23.011719s6.984375 14.058594 23.480469 30.90625h123.46875c2.816406 0 5.585937-.210937 8.300781-.589844zm0 0" fill="#6ec2a1"/><path d="m28.578125 288.265625c-.605469 10.71875-4.027344 21.164063-8.300781 30.316406 2.714844.378907 5.480468.589844 8.300781.589844h123.46875c16.496094-16.847656 23.480469-30.90625 23.480469-30.90625l-87.765625-23.011719zm0 0" fill="#6ec2a1"/><path d="m483.421875 231.109375h-454.84375c-15.785156 0-28.578125 12.792969-28.578125 28.578125s12.792969 28.578125 28.578125 28.578125h454.84375c15.785156 0 28.578125-12.792969 28.578125-28.578125s-12.792969-28.578125-28.578125-28.578125zm0 0" fill="#e9e9e9"/><path d="m30.90625 259.6875c0-15.785156 12.792969-28.578125 28.578125-28.578125h-30.90625c-15.785156 0-28.578125 12.792969-28.578125 28.578125s12.792969 28.578125 28.578125 28.578125h30.90625c-15.785156 0-28.578125-12.792969-28.578125-28.578125zm0 0" fill="#d3d2d8"/><path d="m411.125 155.625c0 85.671875-69.453125 155.121094-155.125 155.121094s-155.125-69.449219-155.125-155.121094 69.453125-155.125 155.125-155.125 155.125 69.453125 155.125 155.125zm0 0" fill="#7cdac2"/><path d="m131.78125 155.625c0-80.457031 61.253906-146.605469 139.671875-154.359375-5.082031-.503906-10.238281-.765625-15.453125-.765625-85.671875 0-155.125 69.453125-155.125 155.125s69.453125 155.125 155.125 155.125c5.214844 0 10.371094-.261719 15.453125-.765625-78.417969-7.757813-139.671875-73.902344-139.671875-154.359375zm0 0" fill="#6ec2a1"/><path d="m178.773438 199.058594c-4.265626 0-7.726563-3.460938-7.726563-7.726563v-15.015625c0-4.265625 3.460937-7.726562 7.726563-7.726562 4.269531 0 7.726562 3.460937 7.726562 7.726562v15.015625c0 4.265625-3.457031 7.726563-7.726562 7.726563zm0 0" fill="#424952"/><path d="m189 221.128906h-20.453125c-4.265625 0-7.726563-3.457031-7.726563-7.726562 0-4.265625 3.460938-7.726563 7.726563-7.726563h20.453125c4.269531 0 7.726562 3.460938 7.726562 7.726563 0 4.269531-3.460937 7.726562-7.726562 7.726562zm0 0" fill="#e1738c"/><path d="m333.226562 199.058594c-4.269531 0-7.726562-3.460938-7.726562-7.726563v-15.015625c0-4.265625 3.457031-7.726562 7.726562-7.726562 4.269532 0 7.726563 3.460937 7.726563 7.726562v15.015625c0 4.265625-3.457031 7.726563-7.726563 7.726563zm0 0" fill="#424952"/><path d="m343.453125 221.128906h-20.453125c-4.269531 0-7.726562-3.457031-7.726562-7.726562 0-4.265625 3.457031-7.726563 7.726562-7.726563h20.453125c4.265625 0 7.726563 3.460938 7.726563 7.726563 0 4.269531-3.460938 7.726562-7.726563 7.726562zm0 0" fill="#e1738c"/><path d="m256 220.28125c-7.613281 0-14.769531-3.191406-19.632812-8.753906-2.804688-3.214844-2.476563-8.09375.734374-10.902344 3.214844-2.808594 8.09375-2.480469 10.902344.734375 1.925782 2.203125 4.839844 3.46875 7.996094 3.46875s6.066406-1.265625 7.996094-3.46875c2.808594-3.214844 7.6875-3.542969 10.902344-.734375 3.210937 2.808594 3.539062 7.6875.730468 10.902344-4.859375 5.5625-12.015625 8.753906-19.628906 8.753906zm0 0" fill="#424952"/></svg>