<svg height="512px" viewBox="-45 0 512 512" width="512px" xmlns="http://www.w3.org/2000/svg"><path d="m381.082031 49.855469h-331.226562v421.492187c0 22.453125 18.203125 40.652344 40.652343 40.652344h290.574219c22.449219 0 40.652344-18.199219 40.652344-40.652344v-380.839844c0-22.449218-18.199219-40.652343-40.652344-40.652343zm0 0" fill="#e9e9e9"/><path d="m399.691406 54.371094c-5.578125-2.878906-11.902344-4.515625-18.609375-4.515625h-331.226562v421.492187c0 6.710938 1.636719 13.03125 4.515625 18.609375h276.855468c37.75 0 68.464844-30.710937 68.464844-68.464843zm0 0" fill="#d3d2d8"/><path d="m331.226562 0h-331.226562v421.492188c0 22.449218 18.199219 40.648437 40.652344 40.648437h290.574218c22.449219 0 40.648438-18.199219 40.648438-40.648437v-380.839844c0-22.453125-18.199219-40.652344-40.648438-40.652344zm0 0" fill="#80c0e4"/><path d="m30.90625 421.492188v-421.492188h-30.90625v421.492188c0 22.449218 18.199219 40.648437 40.652344 40.648437h30.902344c-22.449219.003906-40.648438-18.199219-40.648438-40.648437zm0 0" fill="#5ba0d3"/><g fill="#424952"><path d="m103.796875 97.261719c-4.269531 0-7.726563-3.460938-7.726563-7.726563v-14.867187c0-4.265625 3.457032-7.726563 7.726563-7.726563s7.726563 3.460938 7.726563 7.726563v14.867187c0 4.265625-3.460938 7.726563-7.726563 7.726563zm0 0"/><path d="m268.078125 97.261719c-4.265625 0-7.722656-3.460938-7.722656-7.726563v-14.867187c0-4.265625 3.457031-7.726563 7.722656-7.726563 4.269531 0 7.726563 3.460938 7.726563 7.726563v14.867187c0 4.265625-3.457032 7.726563-7.726563 7.726563zm0 0"/><path d="m185.9375 105.195312c-10.132812 0-19.640625-4.230468-26.089844-11.613281-2.808594-3.210937-2.480468-8.09375.734375-10.902343 3.210938-2.808594 8.09375-2.476563 10.902344.734374 3.511719 4.023438 8.78125 6.328126 14.453125 6.328126s10.941406-2.304688 14.457031-6.328126c2.808594-3.210937 7.6875-3.539062 10.902344-.730468 3.210937 2.808594 3.542969 7.6875.730469 10.902344-6.449219 7.378906-15.957032 11.609374-26.089844 11.609374zm0 0"/></g><path d="m262.746094 215.519531h-45.597656v-45.597656c0-7.980469-6.46875-14.449219-14.449219-14.449219h-33.519531c-7.980469 0-14.453126 6.46875-14.453126 14.449219v45.597656h-45.59375c-7.984374 0-14.453124 6.46875-14.453124 14.449219v33.519531c0 7.980469 6.46875 14.449219 14.453124 14.449219h45.59375v45.597656c0 7.980469 6.472657 14.449219 14.453126 14.449219h33.519531c7.980469 0 14.449219-6.46875 14.449219-14.449219v-45.597656h45.597656c7.980468 0 14.449218-6.46875 14.449218-14.449219v-33.519531c0-7.980469-6.46875-14.449219-14.449218-14.449219zm0 0" fill="#e1738c"/><path d="m268.078125 402.984375h-164.28125c-4.269531 0-7.726563-3.457031-7.726563-7.726563 0-4.265624 3.457032-7.726562 7.726563-7.726562h164.285156c4.265625 0 7.726563 3.460938 7.726563 7.726562 0 4.269532-3.460938 7.726563-7.730469 7.726563zm0 0" fill="#e9e9e9"/></svg>