<svg height="512px" viewBox="0 -7 512.00077 512" width="512px" xmlns="http://www.w3.org/2000/svg"><path d="m119.546875 347.597656 31.460937 31.464844-80.460937 80.460938-31.460937-31.464844zm0 0" fill="#80c0e4"/><path d="m84.066406 383.070312 35.472656-35.46875 31.464844 31.460938-35.472656 35.472656zm0 0" fill="#5ba0d3"/><path d="m227.023438 384.957031-44.789063-68.585937-68.582031-44.785156c-8.300782-8.304688-21.761719-8.304688-30.0625 0l-18.617188 18.613281c-8.300781 8.304687-8.300781 21.761719 0 30.066406l113.371094 113.371094c8.300781 8.300781 21.761719 8.300781 30.0625 0l18.617188-18.617188c8.300781-8.300781 8.300781-21.761719 0-30.0625zm0 0" fill="#80c0e4"/><path d="m227.023438 384.957031-44.789063-68.585937-12.460937-8.136719 36.648437 56.117187c8.300781 8.304688 8.300781 21.761719 0 30.066407l-18.617187 18.617187c-8.304688 8.300782-21.761719 8.300782-30.066407 0l20.605469 20.601563c8.300781 8.304687 21.761719 8.304687 30.0625 0l18.617188-18.617188c8.300781-8.300781 8.300781-21.761719 0-30.0625zm0 0" fill="#5ba0d3"/><path d="m512 9.46875c-12.625-12.625-33.097656-12.625-45.726562 0l-130.925782 130.925781 22.863282 22.863281zm0 0" fill="#a6adb9"/><path d="m394.910156 126.5625-22.867187-22.863281-36.695313 36.695312 22.863282 22.863281zm0 0" fill="#8895a2"/><path d="m373.054688 148.417969-22.863282-22.863281c-10.90625-10.90625-28.589844-10.90625-39.5 0l-29.792968 29.792968 62.359374 62.359375 29.796876-29.792969c10.90625-10.90625 10.90625-28.589843 0-39.496093zm0 0" fill="#80c0e4"/><path d="m373.054688 148.417969-20.605469-20.605469c10.90625 10.90625 10.90625 28.589844 0 39.5l-29.792969 29.792969 20.605469 20.605469 29.792969-29.796876c10.90625-10.90625 10.90625-28.589843 0-39.496093zm0 0" fill="#5ba0d3"/><path d="m357.347656 203.621094-62.359375-62.363282c-14.085937-14.082031-36.925781-14.082031-51.011719 0l-130.324218 130.328126 113.371094 113.371093 130.324218-130.324219c14.085938-14.085937 14.085938-36.925781 0-51.011718zm0 0" fill="#cbe7f8"/><path d="m357.347656 203.621094-62.359375-62.363282 41.757813 41.761719c14.085937 14.085938 14.085937 36.921875 0 51.007813l-130.324219 130.324218 20.601563 20.605469 130.324218-130.324219c14.085938-14.085937 14.085938-36.925781 0-51.011718zm0 0" fill="#80c0e4"/><path d="m307.769531 233.273438c-36.070312-10.796876-41.761719 3.648437-70.398437-22.222657-4.089844-3.695312-10.367188-3.511719-14.265625.386719-12.808594 12.808594-39.515625 39.519531-52.597657 52.601562-4.171874 4.167969-4.167968 10.925782.003907 15.097657l48.960937 48.960937c4.171875 4.167969 10.933594 4.167969 15.101563 0l77.539062-77.539062c5.550781-5.550782 3.175781-15.035156-4.34375-17.285156zm0 0" fill="#e1738c"/><path d="m219.472656 328.097656c4.171875 4.167969 10.933594 4.167969 15.101563 0l77.539062-77.539062c5.550781-5.550782 3.175781-15.035156-4.339843-17.285156-6.117188-1.828126-11.359376-2.933594-15.988282-3.632813-.097656.101563-.175781.210937-.273437.3125l-77.539063 77.539063c-4.171875 4.171874-10.933594 4.171874-15.105468 0zm0 0" fill="#d74a6c"/><g fill="#424952"><path d="m106.824219 325.898438c-1.980469 0-3.957031-.753907-5.464844-2.265626-3.015625-3.015624-3.015625-7.910156 0-10.925781l6.660156-6.664062c3.019531-3.015625 7.910157-3.015625 10.925781 0 3.019532 3.019531 3.019532 7.910156 0 10.929687l-6.660156 6.660156c-1.507812 1.507813-3.484375 2.265626-5.460937 2.265626zm0 0"/><path d="m180.4375 399.511719c-1.976562 0-3.953125-.753907-5.460938-2.261719-3.019531-3.019531-3.019531-7.910156 0-10.929688l6.660157-6.660156c3.015625-3.015625 7.910156-3.015625 10.925781 0 3.015625 3.019532 3.015625 7.910156 0 10.925782l-6.660156 6.664062c-1.507813 1.507812-3.488282 2.261719-5.464844 2.261719zm0 0"/><path d="m152.105469 371.363281c-6.464844 0-12.765625-2.636719-17.496094-7.367187-5.117187-5.117188-7.78125-12.074219-7.308594-19.085938.285157-4.257812 3.953125-7.476562 8.226563-7.1875 4.257812.285156 7.476562 3.96875 7.191406 8.226563-.171875 2.5625.855469 5.15625 2.820312 7.121093 1.964844 1.964844 4.550782 2.996094 7.121094 2.820313 4.25-.289063 7.941406 2.933594 8.226563 7.191406.285156 4.257813-2.933594 7.941407-7.191407 8.226563-.53125.035156-1.0625.054687-1.589843.054687zm0 0"/><path d="m97.8125 456.824219-56.027344-56.027344c-10.230468-10.226563-26.8125-10.226563-37.042968 0-6.324219 6.324219-6.324219 16.574219 0 22.894531l70.175781 70.175782c6.320312 6.320312 16.570312 6.320312 22.894531 0 10.226562-10.230469 10.226562-26.816407 0-37.042969zm0 0"/></g><path d="m97.8125 456.824219-20.605469-20.605469c10.230469 10.230469 10.230469 26.816406 0 37.042969-6.320312 6.324219-16.570312 6.324219-22.894531 0l20.605469 20.605469c6.320312 6.320312 16.570312 6.320312 22.894531 0 10.226562-10.230469 10.226562-26.816407 0-37.042969zm0 0" fill="#383d43"/></svg>