<svg height="511px" viewBox="-108 0 511 511.99935" width="511px" xmlns="http://www.w3.org/2000/svg"><path d="m289.605469 472.65625-44.34375-22.660156-29.871094 9.273437 10.386719 28.871094 44.34375 22.648437c5.421875 2.769532 12.0625.621094 14.832031-4.800781l9.453125-18.5c2.769531-5.421875.621094-12.0625-4.800781-14.832031zm0 0" fill="#cbe7f8"/><path d="m245.261719 449.996094-19.484375 38.144531-90.429688-46.203125 19.484375-38.132812zm0 0" fill="#a6adb9"/><path d="m154.832031 403.804688-19.484375 38.132812 67.179688 34.324219c11.828125-8.851563 21.554687-20.367188 28.285156-33.644531zm0 0" fill="#8895a2"/><path d="m74.789062 376.121094v23.195312c0 38.828125 31.476563 70.300782 70.300782 70.300782 38.824218 0 70.300781-31.472657 70.300781-70.300782v-23.195312zm0 0" fill="#cbe7f8"/><path d="m289.679688 37.171875v58.109375l-144.589844 25.335938-144.589844-25.335938v-58.109375c0-20.535156 16.636719-37.171875 37.171875-37.171875h214.839844c20.53125 0 37.167969 16.636719 37.167969 37.171875zm0 0" fill="#80c0e4"/><path d="m31.40625 95.28125v-58.109375c0-20.535156 16.636719-37.171875 37.167969-37.171875h-30.90625c-20.53125 0-37.167969 16.636719-37.167969 37.171875v58.109375l144.589844 25.335938 15.453125-2.707032zm0 0" fill="#5ba0d3"/><path d="m289.679688 306.179688v58.109374c0 20.53125-16.636719 37.167969-37.171876 37.167969h-214.835937c-20.535156 0-37.171875-16.636719-37.171875-37.167969v-58.109374l144.589844-21.410157zm0 0" fill="#80c0e4"/><path d="m31.40625 364.289062v-58.109374l129.136719-19.125-15.453125-2.289063-144.589844 21.414063v58.109374c0 20.53125 16.636719 37.167969 37.171875 37.167969h30.902344c-20.53125 0-37.167969-16.636719-37.167969-37.167969zm0 0" fill="#5ba0d3"/><path d="m.5 95.28125v27.777344l7.277344 7.726562-7.277344 7.726563v19.519531l7.277344 7.726562-7.277344 7.726563v19.519531l7.277344 7.726563-7.277344 7.726562v19.519531l7.277344 7.722657-7.277344 7.726562v19.519531l7.277344 7.726563-7.277344 7.726563v27.78125h289.179688v-210.898438zm0 0" fill="#cbe7f8"/><path d="m38.683594 270.671875-7.277344-7.726563v-19.519531l7.277344-7.726562-7.277344-7.722657v-19.519531l7.277344-7.726562-7.277344-7.726563v-19.519531l7.277344-7.726563-7.277344-7.726562v-19.519531l7.277344-7.726563-7.277344-7.726562v-27.777344h-30.90625v27.777344l7.277344 7.726562-7.277344 7.726563v19.519531l7.277344 7.726562-7.277344 7.726563v19.519531l7.277344 7.726563-7.277344 7.726562v19.519531l7.277344 7.722657-7.277344 7.726562v19.519531l7.277344 7.726563-7.277344 7.726563v27.78125h30.90625v-27.78125zm0 0" fill="#80c0e4"/><g fill="#424952"><path d="m69.878906 58.539062c-4.269531 0-7.726562-3.460937-7.726562-7.726562v-13.613281c0-4.265625 3.457031-7.726563 7.726562-7.726563 4.269532 0 7.726563 3.460938 7.726563 7.726563v13.613281c0 4.265625-3.457031 7.726562-7.726563 7.726562zm0 0"/><path d="m220.300781 58.539062c-4.269531 0-7.726562-3.460937-7.726562-7.726562v-13.613281c0-4.265625 3.457031-7.726563 7.726562-7.726563s7.726563 3.460938 7.726563 7.726563v13.613281c0 4.265625-3.460938 7.726562-7.726563 7.726562zm0 0"/><path d="m145.089844 65.804688c-9.464844 0-18.351563-3.957032-24.378906-10.855469-2.8125-3.210938-2.480469-8.09375.730468-10.902344 3.210938-2.808594 8.09375-2.480469 10.902344.734375 3.09375 3.539062 7.742188 5.570312 12.746094 5.570312s9.652344-2.03125 12.746094-5.570312c2.808593-3.214844 7.6875-3.542969 10.902343-.734375 3.210938 2.808594 3.539063 7.691406.730469 10.902344-6.03125 6.898437-14.914062 10.855469-24.378906 10.855469zm0 0"/><path d="m.5 123.058594h48.597656c4.265625 0 7.726563 3.460937 7.726563 7.726562 0 4.269532-3.460938 7.726563-7.726563 7.726563h-48.597656zm0 0"/></g><path d="m.5 123.058594h30.90625v15.453125h-30.90625zm0 0" fill="#383d43"/><path d="m.5 158.03125h48.597656c4.265625 0 7.726563 3.460938 7.726563 7.726562 0 4.265626-3.460938 7.726563-7.726563 7.726563h-48.597656zm0 0" fill="#424952"/><path d="m.5 193.003906h48.597656c4.265625 0 7.726563 3.457032 7.726563 7.726563 0 4.265625-3.460938 7.726562-7.726563 7.726562h-48.597656zm0 0" fill="#424952"/><path d="m.5 227.972656h48.597656c4.265625 0 7.726563 3.460938 7.726563 7.726563 0 4.269531-3.460938 7.726562-7.726563 7.726562h-48.597656zm0 0" fill="#424952"/><path d="m.5 158.03125h30.90625v15.453125h-30.90625zm0 0" fill="#383d43"/><path d="m.5 193.003906h30.90625v15.453125h-30.90625zm0 0" fill="#383d43"/><path d="m.5 227.976562h30.90625v15.449219h-30.90625zm0 0" fill="#383d43"/><path d="m.5 262.945312h48.597656c4.265625 0 7.726563 3.460938 7.726563 7.726563s-3.460938 7.726563-7.726563 7.726563h-48.597656zm0 0" fill="#424952"/><path d="m.5 262.945312h30.90625v15.453126h-30.90625zm0 0" fill="#383d43"/></svg>